<?xml version="1.0" encoding="UTF-8" ?>
<!DOCTYPE svg PUBLIC "-//W3C//DTD SVG 1.1//EN" "http://www.w3.org/Graphics/SVG/1.1/DTD/svg11.dtd">
<svg width="1024pt" height="1024pt" viewBox="0 0 1024 1024" version="1.1" xmlns="http://www.w3.org/2000/svg">
<g id="#fcfcf9fd">
<path fill="#fcfcf9" opacity="1.00" d=" M 537.44 353.55 C 555.81 351.70 574.78 356.21 590.24 366.35 C 585.85 375.23 581.08 383.92 576.70 392.80 C 568.17 386.48 557.54 383.64 547.05 383.28 C 536.86 383.98 526.13 387.21 519.10 395.03 C 512.42 401.88 509.37 411.53 509.00 420.92 C 509.49 433.38 516.11 445.86 527.08 452.15 C 533.02 455.96 540.09 457.00 546.95 457.85 C 557.63 457.70 568.16 454.28 576.79 447.93 C 581.44 456.49 585.66 465.32 590.83 473.58 C 586.62 476.46 582.66 479.83 577.85 481.67 C 566.56 486.31 554.17 488.22 542.00 487.79 C 522.48 487.12 502.78 479.15 490.03 464.03 C 472.82 442.80 470.22 411.19 483.40 387.31 C 486.13 381.74 490.12 376.91 494.63 372.70 C 505.76 361.09 521.76 355.41 537.44 353.55 Z" />
<path fill="#fcfcf9" opacity="1.00" d=" M 859.57 361.61 C 869.99 354.93 882.71 352.62 894.93 353.33 C 908.13 355.36 921.51 358.74 932.64 366.46 C 928.13 374.83 923.57 383.20 919.69 391.89 C 909.43 384.38 896.10 379.12 883.32 382.14 C 878.64 384.30 874.54 389.70 876.89 394.95 C 880.15 401.22 887.49 403.13 893.59 405.51 C 904.88 409.27 916.59 413.38 925.41 421.69 C 936.66 432.08 938.44 449.93 932.35 463.48 C 927.08 474.32 916.65 482.37 904.95 485.11 C 888.86 489.10 871.57 488.46 855.91 482.97 C 848.67 480.82 842.62 476.18 836.17 472.45 C 836.02 476.69 836.10 480.94 836.05 485.19 C 807.73 485.12 779.40 485.46 751.08 485.09 C 751.00 483.48 750.92 481.88 750.93 480.28 C 750.93 454.09 751.02 427.91 750.90 401.73 C 751.02 386.43 750.80 371.13 751.03 355.83 C 779.04 355.42 807.07 356.32 835.06 355.31 C 834.92 364.53 834.97 373.74 835.04 382.96 C 818.00 382.80 800.96 383.01 783.92 382.96 C 783.88 391.12 783.87 399.29 783.83 407.45 C 799.93 407.30 816.03 407.49 832.13 407.19 C 832.05 415.97 832.37 424.77 831.90 433.54 C 815.93 433.74 799.94 433.88 783.97 433.67 C 783.89 441.82 783.83 449.98 783.87 458.14 C 801.51 458.04 819.17 458.55 836.81 458.15 C 836.81 461.36 836.68 464.57 836.57 467.79 C 841.11 460.52 845.95 453.39 849.56 445.60 C 859.05 452.76 870.10 458.50 882.07 459.75 C 887.83 459.71 894.36 459.06 898.46 454.51 C 901.61 451.20 901.97 445.55 898.80 442.13 C 893.40 435.57 884.60 434.01 877.06 431.12 C 865.71 427.41 854.57 421.31 847.54 411.39 C 837.46 395.17 843.59 371.69 859.57 361.61 Z" />
<path fill="#fcfcf9" opacity="1.00" d=" M 95.20 375.93 C 95.99 369.15 96.32 362.34 96.88 355.54 C 108.49 355.93 120.11 355.78 131.72 355.48 C 138.71 374.05 147.29 391.95 154.49 410.43 C 156.99 416.59 160.07 422.50 162.45 428.72 C 165.69 419.44 169.88 410.54 173.50 401.42 C 179.53 386.16 186.06 371.10 192.21 355.89 C 204.15 355.67 216.09 356.00 228.03 355.65 C 228.54 369.10 230.09 382.50 231.23 395.91 C 233.73 425.65 235.87 455.41 238.35 485.10 C 227.57 485.10 216.78 485.17 206.00 485.39 C 204.62 467.65 203.36 449.91 201.65 432.20 C 200.61 425.62 201.16 418.90 199.84 412.35 C 195.29 425.02 189.73 437.29 184.98 449.89 C 180.33 461.66 175.42 473.32 170.79 485.10 C 165.09 484.57 159.21 485.44 153.62 484.58 C 146.02 466.57 138.83 448.40 131.92 430.12 C 129.15 424.16 127.12 417.86 124.15 412.01 C 122.44 436.46 119.92 460.85 118.11 485.30 C 107.04 485.10 95.96 485.08 84.89 485.22 C 86.42 467.14 88.06 449.06 89.99 431.05 C 89.57 426.63 91.55 422.48 91.08 418.05 C 92.78 404.06 93.61 389.96 95.20 375.93 Z" />
<path fill="#fcfcf9" opacity="1.00" d=" M 237.95 355.72 C 248.98 355.94 260.01 355.70 271.05 355.75 C 271.04 382.18 271.06 408.61 271.07 435.04 C 272.06 441.33 273.46 448.19 278.25 452.77 C 284.72 458.01 293.73 459.00 301.59 456.82 C 310.83 454.35 315.80 444.85 316.36 435.88 C 316.94 409.18 316.01 382.43 316.47 355.73 C 327.40 355.81 338.33 355.45 349.27 355.69 C 349.40 383.79 349.67 411.90 349.53 440.01 C 348.73 451.84 345.58 464.28 337.09 473.02 C 331.92 477.82 325.94 481.92 319.12 483.96 C 305.17 488.27 290.14 488.81 275.83 486.10 C 265.77 483.77 255.53 479.45 249.09 471.03 C 240.62 460.02 237.59 445.63 238.05 432.00 C 238.08 406.57 238.02 381.14 237.95 355.72 Z" />
<path fill="#fcfcf9" opacity="1.00" d=" M 355.28 485.16 C 355.41 442.01 355.15 398.85 355.57 355.69 C 366.39 355.44 377.22 356.07 388.03 355.54 C 401.76 375.93 415.60 396.24 429.29 416.65 C 433.49 422.08 436.49 428.37 440.91 433.64 C 440.39 421.44 440.87 409.23 440.63 397.02 C 440.81 383.29 440.21 369.55 440.67 355.82 C 451.51 355.73 462.35 355.83 473.19 355.71 C 473.90 398.91 473.49 442.11 473.50 485.32 C 462.48 485.04 451.46 485.66 440.45 485.07 C 435.37 476.49 429.47 468.41 423.77 460.24 C 414.31 446.04 404.76 431.90 394.95 417.95 C 392.57 414.77 391.10 410.86 388.13 408.18 C 388.19 433.91 388.17 459.65 388.23 485.39 C 377.25 484.95 366.26 485.41 355.28 485.16 Z" />
<path fill="#fcfcf9" opacity="1.00" d=" M 591.74 355.87 C 602.64 355.68 613.55 355.96 624.46 355.53 C 625.29 372.71 624.47 389.95 624.70 407.16 C 640.17 407.10 655.64 407.28 671.10 407.09 C 671.03 390.01 671.03 372.94 671.11 355.86 C 682.04 355.71 692.97 355.80 703.90 355.77 C 704.51 398.88 704.07 442.00 704.07 485.12 C 693.09 485.16 682.11 485.36 671.13 485.09 C 670.58 467.82 671.62 450.48 670.82 433.24 C 655.51 433.10 640.20 433.30 624.88 433.19 C 624.61 450.48 624.91 467.77 624.76 485.07 C 613.80 485.12 602.84 485.28 591.88 485.11 C 590.94 470.75 591.67 456.35 591.49 441.96 C 591.77 413.27 591.30 384.56 591.74 355.87 Z" />
<path fill="#fcfcf9" opacity="1.00" d=" M 711.00 355.87 C 721.97 355.74 732.95 356.07 743.92 355.71 C 743.96 398.85 743.82 441.99 743.96 485.13 C 733.00 485.26 722.05 485.34 711.09 485.08 C 710.82 473.16 711.00 461.24 710.90 449.32 C 710.96 418.17 711.03 387.02 711.00 355.87 Z" />
</g>
<g id="#1e1c1a38">
<path fill="#1e1c1a" opacity="0.22" d=" M 710.49 355.34 C 719.64 355.14 728.81 355.31 737.97 355.19 C 739.95 355.14 741.96 355.26 743.92 355.71 C 732.95 356.07 721.97 355.74 711.00 355.87 C 711.03 387.02 710.96 418.17 710.90 449.32 C 710.55 447.58 710.27 445.82 710.26 444.05 C 710.30 414.48 710.34 384.91 710.49 355.34 Z" />
</g>
<g id="#1c191736">
<path fill="#1c1917" opacity="0.21" d=" M 750.25 407.07 C 750.24 405.27 750.50 403.48 750.90 401.73 C 751.02 427.91 750.93 454.09 750.93 480.28 C 750.64 478.88 750.38 477.47 750.33 476.06 C 750.19 453.07 750.38 430.07 750.25 407.07 Z" />
</g>
<g id="#e2c679e9">
<path fill="#e2c679" opacity="0.91" d=" M 655.25 499.87 C 658.83 499.81 662.42 499.87 666.01 499.92 C 666.55 511.25 669.31 522.34 669.88 533.69 C 670.25 533.77 670.98 533.95 671.35 534.04 C 672.80 535.17 674.14 536.46 675.44 537.78 C 674.40 540.25 673.24 542.69 672.74 545.35 C 675.48 545.47 678.23 545.35 680.98 545.47 C 675.68 545.49 670.42 546.25 665.13 546.01 C 664.91 542.93 664.54 539.88 664.18 536.83 C 663.77 530.17 662.86 523.56 662.08 516.94 C 663.12 515.47 664.53 511.79 661.84 511.44 C 661.49 511.47 660.79 511.55 660.44 511.58 C 658.67 522.77 656.75 533.93 654.87 545.10 C 651.19 545.26 647.54 545.90 643.86 545.78 L 642.28 545.02 C 643.30 544.96 645.33 544.84 646.35 544.78 L 647.14 544.74 C 649.08 537.21 649.97 529.47 651.41 521.84 C 652.66 514.51 654.29 507.24 655.25 499.87 Z" />
</g>
<g id="#e0c574e8">
<path fill="#e0c574" opacity="0.91" d=" M 688.33 500.03 C 691.80 500.05 695.27 500.08 698.75 500.20 C 696.07 515.50 692.53 530.63 690.30 546.00 C 687.63 545.91 684.96 545.87 682.30 545.97 C 684.36 539.48 685.00 532.66 686.53 526.05 C 687.33 521.34 688.69 516.71 688.85 511.92 C 687.55 513.15 686.56 514.65 685.81 516.27 C 684.76 514.70 683.64 513.16 682.48 511.68 C 684.26 507.71 686.27 503.86 688.33 500.03 Z" />
</g>
<g id="#d3b568df">
<path fill="#d3b568" opacity="0.87" d=" M 702.12 516.65 C 703.33 511.15 704.11 505.57 705.05 500.03 C 707.15 500.03 709.25 500.05 711.36 500.06 C 709.23 500.39 707.10 500.71 704.98 501.04 C 705.00 502.80 705.04 504.57 705.08 506.34 C 705.53 505.41 706.00 504.50 706.47 503.59 C 707.44 504.39 708.40 505.22 709.37 506.03 C 709.85 507.26 710.30 508.50 710.79 509.74 C 709.59 514.43 709.18 519.27 708.15 523.99 C 708.14 522.66 708.13 521.33 708.11 520.01 C 707.50 520.46 706.89 520.91 706.30 521.36 C 704.90 519.79 703.51 518.22 702.12 516.65 Z" />
</g>
<g id="#dfc67be8">
<path fill="#dfc67b" opacity="0.91" d=" M 711.36 500.06 L 712.45 499.89 C 712.10 503.21 711.43 506.47 710.79 509.74 C 710.30 508.50 709.85 507.26 709.37 506.03 C 708.40 505.22 707.44 504.39 706.47 503.59 C 706.00 504.50 705.53 505.41 705.08 506.34 C 705.04 504.57 705.00 502.80 704.98 501.04 C 707.10 500.71 709.23 500.39 711.36 500.06 Z" />
</g>
<g id="#e6ca7eeb">
<path fill="#e6ca7e" opacity="0.92" d=" M 719.18 500.15 C 722.79 500.12 726.39 500.10 730.00 499.99 C 729.94 511.58 733.14 522.95 733.03 534.55 C 733.44 534.51 734.25 534.41 734.66 534.36 C 734.02 535.36 733.25 535.47 732.35 534.69 C 730.10 529.02 732.75 521.62 727.36 517.35 C 726.94 519.42 726.51 521.49 726.17 523.58 C 725.74 519.40 725.66 515.18 724.90 511.04 C 722.81 513.12 723.03 516.21 722.47 518.89 C 721.15 527.92 719.72 536.94 717.97 545.90 C 715.50 545.85 713.04 545.84 710.59 545.92 C 713.24 530.63 715.84 515.31 719.18 500.15 Z" />
</g>
<g id="#e2c574e8">
<path fill="#e2c574" opacity="0.91" d=" M 752.08 500.12 C 755.42 500.22 758.76 500.27 762.11 500.35 C 759.42 515.49 756.38 530.55 753.53 545.65 C 751.13 545.65 748.73 545.66 746.34 545.72 C 748.14 534.63 750.92 523.68 752.26 512.53 C 751.07 514.09 750.13 515.82 749.43 517.65 L 749.44 516.94 C 749.46 515.43 749.43 513.94 749.39 512.45 C 748.09 512.40 746.78 512.36 745.49 512.33 C 747.58 508.20 749.57 504.01 752.08 500.12 Z" />
</g>
<g id="#dabc6fe3">
<path fill="#dabc6f" opacity="0.89" d=" M 777.45 501.47 C 784.98 498.42 794.85 499.04 800.52 505.43 C 804.83 510.15 805.06 517.07 804.13 523.07 C 803.14 532.65 797.05 542.73 787.30 545.27 C 784.62 545.10 781.94 544.85 779.27 544.65 C 780.16 544.14 781.05 543.62 781.96 543.12 C 780.95 542.10 779.95 541.09 778.95 540.09 C 782.74 540.12 786.75 539.35 789.62 536.68 C 793.86 532.88 795.61 527.16 796.76 521.76 C 797.65 517.20 796.94 511.92 793.34 508.67 C 788.93 504.60 781.56 505.34 777.29 509.24 C 774.25 511.85 772.68 515.66 771.50 519.38 C 769.63 516.89 767.88 514.31 766.28 511.64 C 768.94 507.29 772.58 503.32 777.45 501.47 Z" />
</g>
<g id="#d9bb68e2">
<path fill="#d9bb68" opacity="0.89" d=" M 815.70 502.77 C 821.09 499.35 828.04 499.22 834.07 500.81 L 833.43 500.86 C 833.19 500.87 832.72 500.90 832.49 500.91 C 832.66 501.94 834.42 503.22 833.25 504.13 C 831.58 505.13 829.60 505.40 827.73 505.78 C 824.03 505.79 820.16 506.83 818.05 510.12 C 817.99 510.92 817.87 512.53 817.80 513.33 C 817.54 512.76 817.00 511.63 816.73 511.06 C 813.43 513.59 813.03 517.66 813.08 521.51 C 807.37 516.38 809.78 506.72 815.70 502.77 Z" />
</g>
<g id="#e3c56be8">
<path fill="#e3c56b" opacity="0.91" d=" M 890.12 505.98 C 894.06 500.34 901.77 499.40 908.10 500.22 C 911.73 501.02 915.76 501.81 918.28 504.81 C 920.65 507.48 920.94 511.20 921.06 514.61 C 918.54 514.51 916.02 514.60 913.52 514.48 C 914.44 507.69 906.45 505.00 901.05 506.37 C 898.30 506.68 896.61 508.98 895.17 511.07 C 894.96 511.39 894.54 512.01 894.33 512.33 C 893.94 513.38 893.59 514.44 893.26 515.52 C 891.91 515.76 890.58 516.01 889.24 516.25 C 888.99 514.79 888.75 513.34 888.51 511.89 C 888.23 513.63 887.96 515.37 887.76 517.13 C 887.26 513.27 887.65 509.13 890.12 505.98 Z" />
</g>
<g id="#e3c46ee8">
<path fill="#e3c46e" opacity="0.91" d=" M 832.49 500.91 C 832.72 500.90 833.19 500.87 833.43 500.86 C 838.12 501.20 842.28 505.26 843.09 509.85 C 842.08 512.74 838.82 511.97 836.42 512.42 C 835.38 508.45 831.68 506.06 827.73 505.78 C 829.60 505.40 831.58 505.13 833.25 504.13 C 834.42 503.22 832.66 501.94 832.49 500.91 Z" />
</g>
<g id="#dfc26ce7">
<path fill="#dfc26c" opacity="0.91" d=" M 862.15 503.42 C 862.76 502.56 863.38 501.72 864.00 500.87 C 866.75 500.85 869.51 500.83 872.28 500.86 C 873.15 507.97 874.49 515.02 875.32 522.14 C 875.13 522.54 874.75 523.36 874.56 523.76 C 873.95 521.43 873.34 519.12 872.64 516.83 C 872.25 518.07 871.91 519.34 871.55 520.59 C 871.16 520.25 870.40 519.57 870.02 519.23 C 869.84 520.79 869.67 522.36 869.50 523.94 C 869.07 522.87 868.67 521.79 868.29 520.72 C 867.63 516.75 867.37 512.72 866.58 508.78 C 865.27 506.90 863.74 505.19 862.21 503.49 L 862.15 503.42 Z" />
</g>
<g id="#edd57df0">
<path fill="#edd57d" opacity="0.94" d=" M 862.21 503.49 C 863.74 505.19 865.27 506.90 866.58 508.78 C 865.05 510.83 863.82 513.08 862.60 515.32 C 861.37 514.58 860.15 513.83 858.94 513.09 C 857.95 513.43 856.98 513.77 856.01 514.12 C 857.89 510.47 860.05 506.98 862.21 503.49 Z" />
</g>
<g id="#ead280ee">
<path fill="#ead280" opacity="0.93" d=" M 612.20 506.95 C 614.38 507.00 616.58 507.08 618.77 507.13 C 618.04 511.08 617.96 515.11 617.38 519.09 C 621.09 519.07 624.80 519.22 628.52 519.44 C 628.35 521.29 628.19 523.16 628.09 525.03 C 624.29 524.92 620.49 524.94 616.70 524.94 C 616.04 528.93 615.85 532.98 615.54 537.02 C 613.30 537.03 611.06 537.03 608.84 537.05 C 609.58 533.04 610.08 528.98 610.30 524.90 C 606.51 524.68 602.74 524.37 598.96 524.33 C 599.18 522.49 599.41 520.65 599.63 518.82 C 603.40 518.95 607.18 518.98 610.95 518.80 C 611.51 514.87 612.16 510.93 612.20 506.95 Z" />
</g>
<g id="#ecd983f1">
<path fill="#ecd983" opacity="0.95" d=" M 836.42 512.42 C 838.82 511.97 842.08 512.74 843.09 509.85 C 843.09 510.66 843.09 512.29 843.09 513.11 C 840.43 513.08 837.76 513.17 835.12 512.91 L 836.42 512.42 Z" />
</g>
<g id="#f4e593f6">
<path fill="#f4e593" opacity="0.96" d=" M 661.84 511.44 C 664.53 511.79 663.12 515.47 662.08 516.94 C 661.88 515.11 661.71 513.27 661.84 511.44 Z" />
</g>
<g id="#ddc370e7">
<path fill="#ddc370" opacity="0.91" d=" M 813.08 521.51 C 813.03 517.66 813.43 513.59 816.73 511.06 C 817.00 511.63 817.54 512.76 817.80 513.33 C 819.18 517.74 824.26 518.20 827.99 519.49 C 833.23 521.11 839.46 523.89 840.52 529.94 C 841.67 535.20 839.52 541.84 834.35 544.24 C 826.21 548.19 815.76 548.20 808.30 542.78 C 804.88 540.19 804.98 535.75 804.13 531.97 C 806.68 531.98 809.23 531.97 811.79 531.96 C 812.38 534.17 812.79 536.70 814.65 538.28 C 820.50 543.08 831.42 540.95 833.19 532.95 C 831.93 529.18 828.19 527.54 824.68 526.47 C 820.63 525.32 816.79 523.57 813.07 521.64 L 813.08 521.51 Z" />
</g>
<g id="#eacf7ced">
<path fill="#eacf7c" opacity="0.93" d=" M 894.33 512.33 C 894.54 512.01 894.96 511.39 895.17 511.07 C 893.83 515.56 898.48 518.20 902.13 519.12 C 901.09 519.68 900.07 520.25 899.06 520.82 C 899.42 521.21 900.13 522.00 900.48 522.40 C 899.70 523.43 898.91 524.46 898.14 525.51 C 893.87 524.12 888.76 522.07 887.76 517.13 C 887.96 515.37 888.23 513.63 888.51 511.89 C 888.75 513.34 888.99 514.79 889.24 516.25 C 890.58 516.01 891.91 515.76 893.26 515.52 C 893.59 514.44 893.94 513.38 894.33 512.33 Z" />
</g>
<g id="#d8b86be1">
<path fill="#d8b86b" opacity="0.88" d=" M 682.39 511.56 L 682.48 511.68 C 683.64 513.16 684.76 514.70 685.81 516.27 C 683.04 523.79 678.85 530.66 675.65 537.99 L 675.44 537.78 C 674.14 536.46 672.80 535.17 671.35 534.04 C 674.85 526.46 678.62 519.01 682.39 511.56 Z" />
</g>
<g id="#ddc171e6">
<path fill="#ddc171" opacity="0.90" d=" M 745.49 512.33 C 746.78 512.36 748.09 512.40 749.39 512.45 C 749.43 513.94 749.46 515.43 749.44 516.94 C 747.33 523.21 743.34 528.67 740.67 534.71 C 738.96 538.57 737.12 542.38 734.88 545.98 C 732.60 545.93 730.32 545.91 728.05 545.94 C 727.67 538.47 726.60 531.04 726.17 523.58 C 726.51 521.49 726.94 519.42 727.36 517.35 C 732.75 521.62 730.10 529.02 732.35 534.69 C 733.25 535.47 734.02 535.36 734.66 534.36 C 738.07 526.92 741.92 519.69 745.49 512.33 Z" />
</g>
<g id="#e4c97dea">
<path fill="#e4c97d" opacity="0.92" d=" M 766.22 511.55 L 766.28 511.64 C 767.88 514.31 769.63 516.89 771.50 519.38 C 770.37 524.07 769.11 529.19 771.11 533.85 C 772.25 537.29 775.59 539.26 778.95 540.09 C 779.95 541.09 780.95 542.10 781.96 543.12 C 781.05 543.62 780.16 544.14 779.27 544.65 C 781.94 544.85 784.62 545.10 787.30 545.27 C 780.26 547.98 771.12 546.92 766.12 540.87 C 763.24 538.04 762.76 533.85 762.28 530.06 C 761.46 523.65 763.33 517.22 766.22 511.55 Z" />
</g>
<g id="#e1c573e8">
<path fill="#e1c573" opacity="0.91" d=" M 856.01 514.12 C 856.98 513.77 857.95 513.43 858.94 513.09 C 860.15 513.83 861.37 514.58 862.60 515.32 C 860.17 519.65 857.73 523.99 855.68 528.52 C 860.34 528.85 865.01 528.91 869.65 529.52 C 865.17 530.66 860.54 530.44 855.98 530.55 C 860.71 532.35 865.82 532.37 870.69 533.60 C 864.58 534.71 858.34 533.70 852.23 534.69 C 851.30 536.10 850.56 537.63 849.80 539.14 C 847.74 538.10 845.68 537.09 843.68 535.97 C 847.31 528.46 851.95 521.43 856.01 514.12 Z" />
</g>
<g id="#e5c87aea">
<path fill="#e5c87a" opacity="0.92" d=" M 702.12 516.65 C 703.51 518.22 704.90 519.79 706.30 521.36 C 706.89 520.91 707.50 520.46 708.11 520.01 C 708.13 521.33 708.14 522.66 708.15 523.99 C 706.96 531.26 705.65 538.52 704.44 545.79 C 701.80 545.77 699.17 545.74 696.54 545.75 C 698.24 536.02 700.19 526.34 702.12 516.65 Z" />
</g>
<g id="#d5b562df">
<path fill="#d5b562" opacity="0.87" d=" M 872.64 516.83 C 873.34 519.12 873.95 521.43 874.56 523.76 C 874.75 523.36 875.13 522.54 875.32 522.14 C 876.82 530.10 878.19 538.09 879.66 546.06 C 876.89 546.06 874.12 546.02 871.36 546.00 C 871.20 542.19 870.61 538.41 870.01 534.65 C 864.09 534.43 858.15 534.51 852.23 534.69 C 858.34 533.70 864.58 534.71 870.69 533.60 C 865.82 532.37 860.71 532.35 855.98 530.55 C 860.54 530.44 865.17 530.66 869.65 529.52 C 865.01 528.91 860.34 528.85 855.68 528.52 C 860.19 528.66 864.71 528.74 869.22 528.57 C 868.93 525.95 868.63 523.33 868.29 520.72 C 868.67 521.79 869.07 522.87 869.50 523.94 C 869.67 522.36 869.84 520.79 870.02 519.23 C 870.40 519.57 871.16 520.25 871.55 520.59 C 871.91 519.34 872.25 518.07 872.64 516.83 Z" />
</g>
<g id="#170a042f">
<path fill="#170a04" opacity="0.18" d=" M 434.90 521.84 C 437.65 522.13 440.26 521.03 442.50 519.53 C 444.71 524.34 450.77 523.30 455.10 524.24 C 450.89 525.81 446.40 526.45 441.93 526.15 C 439.94 525.75 438.38 527.10 436.81 528.05 C 430.25 527.69 423.74 528.54 417.19 528.78 C 404.45 532.15 391.52 534.86 378.47 536.77 C 367.38 539.87 355.66 540.09 344.67 543.56 C 334.86 542.16 324.88 542.66 315.00 542.66 C 307.09 543.60 299.11 543.26 291.22 544.37 C 286.48 544.70 281.72 544.68 276.98 544.53 C 274.89 544.54 273.36 542.92 271.70 541.90 C 267.96 543.94 263.81 545.06 259.75 546.29 C 258.08 546.83 256.39 546.09 254.77 545.72 C 249.80 548.59 244.20 550.64 238.39 550.52 C 232.08 549.81 225.90 551.95 219.58 551.36 C 223.99 548.84 228.70 546.54 233.77 545.80 C 235.84 545.45 237.79 544.66 239.73 543.88 C 239.66 543.47 239.52 542.64 239.45 542.22 C 242.34 543.24 245.51 543.98 248.43 542.60 C 251.93 540.78 255.95 542.32 259.51 540.70 C 259.80 540.04 260.38 538.73 260.67 538.07 C 263.15 538.95 265.79 541.08 268.45 539.57 C 269.90 539.04 270.61 537.58 271.52 536.45 C 272.06 537.27 272.59 538.08 273.14 538.92 C 277.66 540.99 282.45 538.99 287.09 540.10 C 289.49 540.39 291.73 539.08 293.99 538.46 C 298.46 541.80 304.02 539.49 308.98 538.99 C 315.28 537.97 321.65 538.92 328.00 538.69 C 332.35 538.43 336.61 539.95 340.96 539.50 C 357.18 537.89 373.20 534.81 389.26 532.15 C 392.42 531.40 395.04 529.24 398.23 528.55 C 402.06 527.42 406.15 527.34 409.87 525.87 C 413.76 523.91 418.25 525.08 422.43 524.68 C 422.70 524.16 423.26 523.12 423.53 522.61 C 427.31 522.18 431.09 521.47 434.90 521.84 Z" />
</g>
<g id="#e2c56fe8">
<path fill="#e2c56f" opacity="0.91" d=" M 902.13 519.12 C 907.69 520.61 913.54 522.58 917.10 527.42 L 917.08 528.04 C 917.06 528.50 917.01 529.42 916.99 529.88 C 916.38 529.44 915.78 529.01 915.19 528.59 C 913.11 529.46 910.93 530.17 908.66 530.10 C 905.28 528.23 901.77 526.59 898.01 525.68 L 898.14 525.51 C 898.91 524.46 899.70 523.43 900.48 522.40 C 900.13 522.00 899.42 521.21 899.06 520.82 C 900.07 520.25 901.09 519.68 902.13 519.12 Z" />
</g>
<g id="#2f0f0b5c">
<path fill="#2f0f0b" opacity="0.36" d=" M 456.55 523.75 C 459.37 525.63 462.86 525.28 466.07 525.16 C 467.29 525.21 468.12 524.64 468.57 523.44 C 472.90 526.20 478.16 526.00 483.04 526.90 C 488.40 527.32 493.69 528.29 498.97 529.29 L 498.95 530.21 C 491.53 529.66 483.86 530.54 476.69 528.21 C 475.19 527.59 473.65 528.08 472.18 528.50 C 467.60 530.13 462.73 529.13 458.15 528.12 C 457.39 527.93 456.63 527.73 455.89 527.54 C 449.62 529.17 443.17 527.87 436.81 528.05 C 438.38 527.10 439.94 525.75 441.93 526.15 C 446.40 526.45 450.89 525.81 455.10 524.24 C 455.46 524.12 456.19 523.87 456.55 523.75 Z" />
</g>
<g id="#45240d62">
<path fill="#45240d" opacity="0.38" d=" M 417.19 528.78 C 423.74 528.54 430.25 527.69 436.81 528.05 C 443.17 527.87 449.62 529.17 455.89 527.54 C 456.63 527.73 457.39 527.93 458.15 528.12 C 457.78 528.43 457.05 529.05 456.68 529.36 C 456.52 530.46 456.42 531.57 456.33 532.68 C 455.93 532.87 455.12 533.24 454.72 533.43 C 443.01 532.66 430.80 527.57 419.36 532.55 C 413.19 534.38 406.78 535.10 400.51 536.46 C 396.75 536.34 393.00 536.70 389.39 537.80 C 385.03 539.07 380.48 539.31 376.00 539.81 C 372.35 540.20 368.77 541.03 365.22 541.94 C 365.26 542.81 365.30 543.69 365.35 544.59 C 358.72 544.81 352.10 545.16 345.49 545.50 L 344.67 543.56 C 355.66 540.09 367.38 539.87 378.47 536.77 C 391.52 534.86 404.45 532.15 417.19 528.78 Z" />
</g>
<g id="#5714229c">
<path fill="#571422" opacity="0.61" d=" M 472.18 528.50 C 473.65 528.08 475.19 527.59 476.69 528.21 C 483.86 530.54 491.53 529.66 498.95 530.21 C 503.69 529.40 508.64 528.31 513.38 529.72 C 517.80 531.02 522.35 531.80 526.94 532.13 C 526.98 532.58 527.04 533.48 527.08 533.93 C 530.51 533.67 534.02 534.23 536.49 536.84 C 537.20 536.91 538.61 537.03 539.32 537.09 C 538.35 537.74 537.39 538.39 536.44 539.05 C 530.49 537.57 525.22 533.92 519.04 533.35 C 514.31 532.89 509.81 531.01 505.03 531.02 C 501.06 530.97 497.13 531.59 493.24 532.26 C 489.61 532.38 485.90 532.82 482.34 531.88 C 480.24 531.44 478.18 530.61 476.01 530.61 C 473.91 530.98 471.97 531.91 469.95 532.54 L 468.73 532.30 C 469.86 531.01 470.99 529.73 472.18 528.50 Z" />
</g>
<g id="#d9b864e1">
<path fill="#d9b864" opacity="0.88" d=" M 908.66 530.10 C 910.93 530.17 913.11 529.46 915.19 528.59 C 915.78 529.01 916.38 529.44 916.99 529.88 C 917.01 529.42 917.06 528.50 917.08 528.04 C 919.12 532.92 917.04 538.87 913.17 542.25 C 905.20 548.32 892.52 549.23 884.96 542.04 C 882.01 539.52 881.57 535.53 880.85 531.98 C 883.50 531.81 886.16 531.71 888.81 531.45 C 889.08 533.43 889.14 535.69 890.70 537.19 C 894.68 541.58 901.83 541.53 906.59 538.50 C 909.37 536.70 910.40 532.97 908.66 530.10 Z" />
</g>
<g id="#59271378">
<path fill="#592713" opacity="0.47" d=" M 456.68 529.36 C 457.05 529.05 457.78 528.43 458.15 528.12 C 462.73 529.13 467.60 530.13 472.18 528.50 C 470.99 529.73 469.86 531.01 468.73 532.30 C 465.74 531.28 462.55 532.04 460.22 534.11 C 457.94 534.11 455.66 534.07 453.39 534.04 L 454.72 533.43 C 455.12 533.24 455.93 532.87 456.33 532.68 C 456.42 531.57 456.52 530.46 456.68 529.36 Z" />
</g>
<g id="#723d158f">
<path fill="#723d15" opacity="0.56" d=" M 419.36 532.55 C 430.80 527.57 443.01 532.66 454.72 533.43 L 453.39 534.04 C 448.05 534.21 442.72 533.64 437.43 532.94 C 431.43 532.15 425.37 533.20 419.36 532.55 Z" />
</g>
<g id="#ac2d46e0">
<path fill="#ac2d46" opacity="0.88" d=" M 469.95 532.54 C 471.97 531.91 473.91 530.98 476.01 530.61 C 478.18 530.61 480.24 531.44 482.34 531.88 C 485.90 532.82 489.61 532.38 493.24 532.26 L 494.85 533.05 C 492.83 533.48 490.83 533.99 488.81 534.40 C 488.35 534.42 487.43 534.45 486.97 534.47 C 482.38 534.65 477.79 534.32 473.21 534.68 C 473.31 534.34 473.51 533.67 473.61 533.34 C 472.67 533.12 471.73 532.92 470.80 532.73 L 469.95 532.54 Z" />
</g>
<g id="#891843d4">
<path fill="#891843" opacity="0.83" d=" M 493.24 532.26 C 497.13 531.59 501.06 530.97 505.03 531.02 C 509.81 531.01 514.31 532.89 519.04 533.35 C 525.22 533.92 530.49 537.57 536.44 539.05 C 537.73 539.17 539.04 539.29 540.35 539.40 C 543.39 540.79 546.81 540.43 550.06 540.59 C 556.83 540.82 563.62 540.14 570.39 540.62 C 580.90 542.21 591.62 540.50 602.08 542.38 C 606.19 542.90 610.34 542.16 614.45 542.67 C 620.68 544.19 627.07 542.47 633.37 543.28 C 637.36 545.51 642.07 543.76 646.35 544.78 C 645.33 544.84 643.30 544.96 642.28 545.02 C 614.49 544.03 586.78 541.56 558.97 540.96 C 552.73 540.88 546.49 540.83 540.26 540.57 C 530.46 539.96 520.65 540.60 510.85 539.86 C 511.82 539.22 512.80 538.58 513.78 537.94 C 510.78 535.88 507.85 533.25 504.09 532.81 C 501.01 532.50 497.92 532.90 494.85 533.05 L 493.24 532.26 Z" />
</g>
<g id="#b0711ec5">
<path fill="#b0711e" opacity="0.77" d=" M 400.51 536.46 C 406.78 535.10 413.19 534.38 419.36 532.55 C 425.37 533.20 431.43 532.15 437.43 532.94 C 438.36 533.81 439.32 534.66 440.29 535.51 C 439.83 535.53 438.93 535.57 438.47 535.58 C 435.47 534.49 432.33 535.11 429.24 535.32 C 421.84 535.15 414.82 537.95 407.41 538.03 C 401.14 539.18 394.75 539.34 388.47 540.41 C 388.75 541.50 389.31 543.69 389.59 544.78 C 388.40 544.87 387.22 544.98 386.04 545.09 C 385.09 544.00 384.14 542.91 383.21 541.82 C 388.47 538.49 395.02 539.23 400.51 536.46 Z" />
<path fill="#b0711e" opacity="0.77" d=" M 188.85 594.72 C 195.80 593.33 202.53 590.79 209.67 590.52 C 205.97 591.77 202.20 592.79 198.46 593.88 C 198.24 593.94 197.80 594.05 197.58 594.11 C 196.80 594.22 195.25 594.46 194.47 594.57 C 193.14 594.75 191.82 594.90 190.49 595.04 L 188.85 594.72 Z" />
<path fill="#b0711e" opacity="0.77" d=" M 188.18 603.93 C 191.02 602.66 193.89 601.46 196.88 600.61 L 198.09 600.28 C 196.94 601.28 195.87 602.36 194.76 603.41 C 194.50 603.51 194.00 603.70 193.74 603.79 C 189.03 605.23 184.32 606.72 179.66 608.34 C 179.33 608.62 178.66 609.18 178.33 609.46 C 175.95 609.69 173.62 610.62 171.22 610.45 C 175.21 608.35 180.33 608.50 183.56 604.94 C 184.76 607.18 187.28 605.51 188.18 603.93 Z" />
</g>
<g id="#773b1d80">
<path fill="#773b1d" opacity="0.50" d=" M 460.22 534.11 C 462.55 532.04 465.74 531.28 468.73 532.30 L 469.95 532.54 L 470.80 532.73 C 468.32 533.49 465.86 534.29 463.37 535.01 C 463.69 535.38 464.34 536.13 464.66 536.50 C 462.54 537.20 460.39 537.79 458.21 538.23 C 458.84 536.83 459.49 535.45 460.22 534.11 Z" />
</g>
<g id="#965823a5">
<path fill="#965823" opacity="0.65" d=" M 437.43 532.94 C 442.72 533.64 448.05 534.21 453.39 534.04 C 455.66 534.07 457.94 534.11 460.22 534.11 C 459.49 535.45 458.84 536.83 458.21 538.23 L 457.75 538.13 C 455.55 537.13 453.52 535.63 451.10 535.18 C 447.50 534.80 443.89 535.36 440.29 535.51 C 439.32 534.66 438.36 533.81 437.43 532.94 Z" />
</g>
<g id="#b04740c5">
<path fill="#b04740" opacity="0.77" d=" M 463.37 535.01 C 465.86 534.29 468.32 533.49 470.80 532.73 C 471.73 532.92 472.67 533.12 473.61 533.34 C 473.51 533.67 473.31 534.34 473.21 534.68 C 470.89 535.85 468.96 537.60 467.04 539.33 C 466.93 539.30 466.71 539.26 466.59 539.23 C 465.93 538.32 465.33 537.39 464.66 536.50 C 464.34 536.13 463.69 535.38 463.37 535.01 Z" />
</g>
<g id="#d91e74fd">
<path fill="#d91e74" opacity="1.00" d=" M 488.81 534.40 C 490.83 533.99 492.83 533.48 494.85 533.05 C 497.92 532.90 501.01 532.50 504.09 532.81 C 507.85 533.25 510.78 535.88 513.78 537.94 C 512.80 538.58 511.82 539.22 510.85 539.86 C 509.62 539.84 508.40 539.81 507.18 539.79 C 504.85 539.55 502.55 539.09 500.27 538.61 C 497.61 535.19 492.51 535.91 488.81 534.40 Z" />
</g>
<g id="#efb329f0">
<path fill="#efb329" opacity="0.94" d=" M 407.41 538.03 C 414.82 537.95 421.84 535.15 429.24 535.32 C 432.33 535.11 435.47 534.49 438.47 535.58 C 440.01 536.25 441.54 536.97 443.12 537.56 C 441.57 537.56 440.03 537.61 438.50 537.65 C 433.31 535.92 427.85 537.08 422.58 537.68 C 418.03 538.55 413.31 538.94 409.01 540.79 C 409.76 541.57 410.52 542.36 411.29 543.15 C 407.50 543.40 403.72 543.65 399.95 543.97 C 401.21 540.79 404.81 539.82 407.41 538.03 Z" />
</g>
<g id="#c98d31cf">
<path fill="#c98d31" opacity="0.81" d=" M 440.29 535.51 C 443.89 535.36 447.50 534.80 451.10 535.18 C 453.52 535.63 455.55 537.13 457.75 538.13 C 457.98 538.79 458.42 540.09 458.64 540.75 C 457.32 540.78 456.01 540.84 454.70 540.95 C 451.30 538.54 447.25 537.48 443.12 537.56 C 441.54 536.97 440.01 536.25 438.47 535.58 C 438.93 535.57 439.83 535.53 440.29 535.51 Z" />
</g>
<g id="#e95173f0">
<path fill="#e95173" opacity="0.94" d=" M 467.04 539.33 C 468.96 537.60 470.89 535.85 473.21 534.68 C 477.79 534.32 482.38 534.65 486.97 534.47 C 486.36 535.65 485.76 536.83 485.16 538.02 C 485.33 538.50 485.65 539.47 485.82 539.95 C 481.28 540.04 476.74 540.18 472.21 540.36 C 470.48 540.02 468.75 539.65 467.04 539.33 Z" />
</g>
<g id="#f13587ff">
<path fill="#f13587" opacity="1.00" d=" M 486.97 534.47 C 487.43 534.45 488.35 534.42 488.81 534.40 C 492.51 535.91 497.61 535.19 500.27 538.61 C 502.55 539.09 504.85 539.55 507.18 539.79 C 500.06 539.92 492.94 539.85 485.82 539.95 C 485.65 539.47 485.33 538.50 485.16 538.02 C 485.76 536.83 486.36 535.65 486.97 534.47 Z" />
</g>
<g id="#9453219d">
<path fill="#945321" opacity="0.62" d=" M 389.39 537.80 C 393.00 536.70 396.75 536.34 400.51 536.46 C 395.02 539.23 388.47 538.49 383.21 541.82 C 384.14 542.91 385.09 544.00 386.04 545.09 C 383.64 545.30 381.23 545.47 378.83 545.56 C 376.68 544.34 374.36 543.49 371.96 542.98 C 373.29 541.91 374.62 540.82 376.00 539.81 C 380.48 539.31 385.03 539.07 389.39 537.80 Z" />
</g>
<g id="#fadd32fa">
<path fill="#fadd32" opacity="0.98" d=" M 422.58 537.68 C 427.85 537.08 433.31 535.92 438.50 537.65 C 437.53 537.85 435.60 538.23 434.63 538.43 C 428.66 538.04 422.90 539.73 417.08 540.77 C 417.37 541.22 417.96 542.13 418.25 542.58 C 415.92 542.77 413.61 542.98 411.29 543.15 C 410.52 542.36 409.76 541.57 409.01 540.79 C 413.31 538.94 418.03 538.55 422.58 537.68 Z" />
</g>
<g id="#9c574a9f">
<path fill="#9c574a" opacity="0.62" d=" M 464.66 536.50 C 465.33 537.39 465.93 538.32 466.59 539.23 C 466.71 539.26 466.93 539.30 467.04 539.33 C 468.75 539.65 470.48 540.02 472.21 540.36 L 473.48 540.63 C 468.53 540.70 463.59 540.70 458.64 540.75 C 458.42 540.09 457.98 538.79 457.75 538.13 L 458.21 538.23 C 460.39 537.79 462.54 537.20 464.66 536.50 Z" />
</g>
<g id="#d9bd65e3">
<path fill="#d9bd65" opacity="0.89" d=" M 843.37 535.80 L 843.68 535.97 C 845.68 537.09 847.74 538.10 849.80 539.14 C 848.67 541.40 847.49 543.65 846.48 545.97 C 843.53 546.01 840.58 546.02 837.63 545.99 C 839.28 542.45 841.63 539.29 843.37 535.80 Z" />
<path fill="#d9bd65" opacity="0.89" d=" M 106.27 601.11 C 108.33 600.05 110.60 599.51 112.77 598.73 C 113.03 599.48 113.55 600.97 113.80 601.71 L 113.84 601.82 C 110.44 602.52 107.11 603.53 103.68 604.12 C 104.55 603.12 105.39 602.09 106.27 601.11 Z" />
</g>
<g id="#95592f9d">
<path fill="#95592f" opacity="0.62" d=" M 664.18 536.83 C 664.54 539.88 664.91 542.93 665.13 546.01 C 650.78 547.19 636.38 546.28 622.02 546.66 C 614.53 546.72 606.96 546.04 599.54 547.21 C 599.48 547.04 599.36 546.71 599.31 546.55 C 599.40 546.37 599.58 546.01 599.67 545.83 C 605.43 546.34 611.20 545.74 616.97 545.80 C 625.93 545.83 634.89 545.89 643.86 545.78 C 647.54 545.90 651.19 545.26 654.87 545.10 C 658.22 545.03 661.57 545.18 664.92 545.44 C 664.64 542.57 664.38 539.70 664.18 536.83 Z" />
<path fill="#95592f" opacity="0.62" d=" M 164.87 588.89 C 173.56 586.95 182.26 585.12 190.90 582.97 C 192.73 582.82 194.58 582.74 196.42 582.66 C 196.48 584.21 196.71 585.80 196.34 587.34 C 195.24 588.04 194.04 588.58 192.85 589.12 C 192.72 588.39 192.46 586.93 192.33 586.20 C 187.43 587.05 182.57 588.18 177.86 589.82 C 173.57 591.37 169.18 589.17 164.87 588.89 Z" />
</g>
<g id="#d7952fdc">
<path fill="#d7952f" opacity="0.86" d=" M 388.47 540.41 C 394.75 539.34 401.14 539.18 407.41 538.03 C 404.81 539.82 401.21 540.79 399.95 543.97 C 396.50 544.31 393.04 544.52 389.59 544.78 C 389.31 543.69 388.75 541.50 388.47 540.41 Z" />
<path fill="#d7952f" opacity="0.86" d=" M 82.71 609.92 C 90.21 606.18 98.29 603.63 106.27 601.11 C 105.39 602.09 104.55 603.12 103.68 604.12 C 101.12 605.66 98.00 605.98 95.14 606.75 C 90.94 607.58 86.92 609.15 82.71 609.92 Z" />
</g>
<g id="#f9f56dfa">
<path fill="#f9f56d" opacity="0.98" d=" M 417.08 540.77 C 422.90 539.73 428.66 538.04 434.63 538.43 C 440.20 539.00 445.60 540.52 451.13 541.31 C 444.75 541.94 438.34 541.74 431.96 541.36 C 427.34 541.06 422.82 542.20 418.25 542.58 C 417.96 542.13 417.37 541.22 417.08 540.77 Z" />
</g>
<g id="#e8c64ce9">
<path fill="#e8c64c" opacity="0.91" d=" M 434.63 538.43 C 435.60 538.23 437.53 537.85 438.50 537.65 C 440.03 537.61 441.57 537.56 443.12 537.56 C 447.25 537.48 451.30 538.54 454.70 540.95 C 453.51 541.08 452.32 541.20 451.13 541.31 C 445.60 540.52 440.20 539.00 434.63 538.43 Z" />
</g>
<g id="#d18117e0">
<path fill="#d18117" opacity="0.88" d=" M 196.40 540.36 C 198.00 539.80 198.54 540.34 198.02 542.00 C 196.42 542.55 195.88 542.01 196.40 540.36 Z" />
<path fill="#d18117" opacity="0.88" d=" M 429.01 559.18 C 435.76 557.18 442.57 555.17 449.70 555.17 C 445.58 558.90 439.84 559.03 434.65 559.86 C 434.00 560.49 433.36 561.12 432.72 561.76 C 419.14 561.64 405.55 561.49 391.97 561.69 C 382.77 562.82 373.45 562.17 364.31 563.76 C 362.07 563.98 359.82 564.03 357.58 564.13 C 375.90 561.65 394.24 559.27 412.64 557.44 C 418.20 556.94 423.57 558.58 429.01 559.18 Z" />
</g>
<g id="#6b3b1980">
<path fill="#6b3b19" opacity="0.50" d=" M 365.22 541.94 C 368.77 541.03 372.35 540.20 376.00 539.81 C 374.62 540.82 373.29 541.91 371.96 542.98 C 374.36 543.49 376.68 544.34 378.83 545.56 C 368.52 546.64 358.27 548.27 347.91 548.81 C 353.20 547.08 358.86 547.54 364.26 546.31 C 355.38 546.07 346.54 547.18 337.69 547.54 C 331.46 547.33 325.33 548.43 319.21 549.39 C 315.75 549.56 312.48 548.38 309.47 546.80 C 317.94 545.30 326.50 546.82 335.01 546.36 C 338.52 546.25 342.00 545.83 345.49 545.50 C 352.10 545.16 358.72 544.81 365.35 544.59 C 365.30 543.69 365.26 542.81 365.22 541.94 Z" />
</g>
<g id="#fcfcfcfd">
<path fill="#fcfcfc" opacity="1.00" d=" M 454.70 540.95 C 456.01 540.84 457.32 540.78 458.64 540.75 C 463.59 540.70 468.53 540.70 473.48 540.63 C 485.97 541.55 498.50 540.39 511.01 540.74 C 520.76 540.91 530.51 540.71 540.26 540.57 C 546.49 540.83 552.73 540.88 558.97 540.96 C 586.78 541.56 614.49 544.03 642.28 545.02 L 643.86 545.78 C 634.89 545.89 625.93 545.83 616.97 545.80 C 611.20 545.74 605.43 546.34 599.67 545.83 C 599.58 546.01 599.40 546.37 599.31 546.55 L 598.48 546.74 C 585.47 546.64 572.45 547.03 559.44 547.29 C 548.67 546.21 537.82 547.26 527.05 546.31 C 521.91 545.88 516.77 546.35 511.65 546.66 C 488.07 546.30 464.42 546.57 440.99 549.37 C 439.70 549.48 438.42 549.54 437.14 549.55 C 433.09 549.23 429.03 549.58 425.14 550.79 C 417.70 550.64 410.25 550.45 402.86 551.46 C 390.77 552.62 378.67 553.64 366.66 555.38 C 342.99 557.38 319.44 560.55 295.90 563.66 C 293.70 563.99 291.51 564.39 289.32 564.76 C 284.89 565.51 280.41 566.03 276.05 567.15 C 272.69 567.97 269.50 569.67 265.96 569.59 C 262.21 569.65 258.47 569.85 254.79 570.59 C 249.74 571.50 244.69 572.43 239.66 573.46 C 238.15 573.69 236.65 573.97 235.15 574.24 C 228.45 575.28 221.77 576.45 215.17 578.01 C 207.17 580.10 198.97 581.22 190.90 582.97 C 182.26 585.12 173.56 586.95 164.87 588.89 C 160.79 589.87 156.71 590.87 152.60 591.74 C 151.09 590.83 150.20 589.33 149.46 587.80 L 149.06 587.09 C 149.50 587.10 150.37 587.12 150.80 587.13 C 151.34 587.01 152.41 586.77 152.95 586.65 C 155.19 585.75 157.50 585.04 159.83 584.39 C 163.47 583.44 167.10 582.46 170.72 581.43 C 173.80 580.57 176.76 579.31 179.83 578.44 C 182.31 578.02 184.81 577.75 187.27 577.24 C 189.89 576.71 192.42 575.83 194.98 575.09 C 195.88 574.82 196.79 574.57 197.70 574.33 C 198.22 574.20 199.25 573.93 199.77 573.79 C 201.05 574.45 202.19 574.26 203.19 573.22 C 203.61 573.18 204.46 573.10 204.88 573.06 C 206.15 573.49 207.27 573.22 208.24 572.27 C 210.73 571.93 213.21 571.45 215.67 570.93 C 219.79 570.08 223.93 569.26 228.00 568.20 C 235.18 566.89 242.38 565.65 249.48 563.94 C 254.07 562.43 260.22 563.15 263.30 558.82 C 266.40 558.40 270.42 559.59 272.51 556.58 C 273.36 557.22 274.20 557.88 275.03 558.56 C 283.27 558.12 291.48 556.96 299.63 555.68 C 309.20 554.14 318.82 552.87 328.43 551.59 C 332.91 551.13 337.35 550.28 341.86 550.06 C 343.33 550.30 344.82 550.01 346.10 549.23 C 346.55 549.13 347.46 548.92 347.91 548.81 C 358.27 548.27 368.52 546.64 378.83 545.56 C 381.23 545.47 383.64 545.30 386.04 545.09 C 387.22 544.98 388.40 544.87 389.59 544.78 C 393.04 544.52 396.50 544.31 399.95 543.97 C 403.72 543.65 407.50 543.40 411.29 543.15 C 413.61 542.98 415.92 542.77 418.25 542.58 C 422.82 542.20 427.34 541.06 431.96 541.36 C 438.34 541.74 444.75 541.94 451.13 541.31 C 452.32 541.20 453.51 541.08 454.70 540.95 Z" />
</g>
<g id="#d3a7b7db">
<path fill="#d3a7b7" opacity="0.86" d=" M 472.21 540.36 C 476.74 540.18 481.28 540.04 485.82 539.95 C 492.94 539.85 500.06 539.92 507.18 539.79 C 508.40 539.81 509.62 539.84 510.85 539.86 C 520.65 540.60 530.46 539.96 540.26 540.57 C 530.51 540.71 520.76 540.91 511.01 540.74 C 498.50 540.39 485.97 541.55 473.48 540.63 L 472.21 540.36 Z" />
</g>
<g id="#381b0c4f">
<path fill="#381b0c" opacity="0.31" d=" M 259.75 546.29 C 263.81 545.06 267.96 543.94 271.70 541.90 C 273.36 542.92 274.89 544.54 276.98 544.53 C 281.72 544.68 286.48 544.70 291.22 544.37 C 299.11 543.26 307.09 543.60 315.00 542.66 C 324.88 542.66 334.86 542.16 344.67 543.56 L 345.49 545.50 C 342.00 545.83 338.52 546.25 335.01 546.36 C 326.50 546.82 317.94 545.30 309.47 546.80 C 301.64 547.58 293.83 548.68 285.99 549.37 C 283.60 549.86 281.59 548.51 279.74 547.24 C 278.89 547.60 278.04 547.95 277.19 548.31 C 273.52 548.60 269.84 548.41 266.19 547.99 C 263.28 551.91 258.04 549.51 254.09 551.21 C 249.36 553.16 244.20 554.19 239.10 553.27 C 238.00 552.55 236.94 551.79 235.87 551.03 C 236.50 550.91 237.76 550.65 238.39 550.52 C 244.20 550.64 249.80 548.59 254.77 545.72 C 256.39 546.09 258.08 546.83 259.75 546.29 Z" />
</g>
<g id="#ed4069fa">
<path fill="#ed4069" opacity="0.98" d=" M 337.69 547.54 C 346.54 547.18 355.38 546.07 364.26 546.31 C 358.86 547.54 353.20 547.08 347.91 548.81 C 347.46 548.92 346.55 549.13 346.10 549.23 C 344.74 548.61 342.40 548.15 341.86 550.06 C 337.35 550.28 332.91 551.13 328.43 551.59 C 328.05 551.17 327.28 550.34 326.89 549.92 C 330.51 549.21 334.10 548.39 337.69 547.54 Z" />
</g>
<g id="#f9fa64fb">
<path fill="#f9fa64" opacity="1.00" d=" M 440.99 549.37 C 464.42 546.57 488.07 546.30 511.65 546.66 C 512.39 546.89 513.14 547.13 513.89 547.38 C 513.23 547.37 511.90 547.35 511.23 547.34 C 486.24 546.96 461.37 549.83 436.41 550.51 C 436.59 550.27 436.96 549.79 437.14 549.55 C 438.42 549.54 439.70 549.48 440.99 549.37 Z" />
</g>
<g id="#fbf8ccfc">
<path fill="#fbf8cc" opacity="1.00" d=" M 511.65 546.66 C 516.77 546.35 521.91 545.88 527.05 546.31 C 537.82 547.26 548.67 546.21 559.44 547.29 C 557.50 547.55 555.54 547.69 553.59 547.74 C 546.15 547.71 538.72 548.01 531.29 548.34 C 524.53 548.23 517.81 549.07 511.06 549.15 L 511.23 547.34 C 511.90 547.35 513.23 547.37 513.89 547.38 C 513.14 547.13 512.39 546.89 511.65 546.66 Z" />
<path fill="#fbf8cc" opacity="1.00" d=" M 326.92 592.47 C 336.07 590.37 345.30 588.64 354.50 586.80 C 356.12 587.26 357.73 587.79 359.34 588.32 C 359.42 588.68 359.59 589.39 359.67 589.74 C 360.58 589.51 361.50 589.28 362.42 589.06 C 362.48 589.49 362.61 590.34 362.67 590.77 C 366.16 590.00 369.74 589.79 373.31 589.93 C 368.60 591.23 363.71 591.68 358.92 592.54 C 350.29 593.83 341.79 595.81 333.18 597.16 C 330.70 597.04 328.38 596.17 326.47 594.60 C 326.58 594.07 326.80 593.01 326.92 592.47 Z" />
</g>
<g id="#5f341877">
<path fill="#5f3418" opacity="0.47" d=" M 266.19 547.99 C 269.84 548.41 273.52 548.60 277.19 548.31 C 274.56 549.69 271.57 549.26 268.74 548.99 C 268.60 550.15 268.47 551.33 268.34 552.51 C 261.08 553.06 253.81 554.13 247.00 556.84 C 245.71 557.44 244.44 558.09 243.15 558.70 C 239.29 557.39 235.55 555.73 231.75 554.25 C 234.18 553.81 236.62 553.36 239.10 553.27 C 244.20 554.19 249.36 553.16 254.09 551.21 C 258.04 549.51 263.28 551.91 266.19 547.99 Z" />
</g>
<g id="#874a2096">
<path fill="#874a20" opacity="0.59" d=" M 277.19 548.31 C 278.04 547.95 278.89 547.60 279.74 547.24 C 281.59 548.51 283.60 549.86 285.99 549.37 C 293.83 548.68 301.64 547.58 309.47 546.80 C 312.48 548.38 315.75 549.56 319.21 549.39 C 314.28 550.57 309.94 553.59 304.76 553.83 C 302.80 552.30 300.91 549.80 298.10 550.47 C 292.37 551.04 286.66 551.79 280.93 552.30 C 279.40 552.52 278.26 551.22 276.98 550.61 C 275.37 551.19 273.77 551.77 272.16 552.35 C 271.21 552.06 270.25 551.81 269.30 551.58 C 269.06 551.81 268.58 552.28 268.34 552.51 C 268.47 551.33 268.60 550.15 268.74 548.99 C 271.57 549.26 274.56 549.69 277.19 548.31 Z" />
</g>
<g id="#ba5444c0">
<path fill="#ba5444" opacity="0.75" d=" M 319.21 549.39 C 325.33 548.43 331.46 547.33 337.69 547.54 C 334.10 548.39 330.51 549.21 326.89 549.92 C 327.28 550.34 328.05 551.17 328.43 551.59 C 318.82 552.87 309.20 554.14 299.63 555.68 C 301.33 555.05 303.02 554.38 304.76 553.83 C 309.94 553.59 314.28 550.57 319.21 549.39 Z" />
</g>
<g id="#fcfcf1fd">
<path fill="#fcfcf1" opacity="1.00" d=" M 436.41 550.51 C 461.37 549.83 486.24 546.96 511.23 547.34 L 511.06 549.15 C 487.00 550.05 463.08 552.90 439.10 554.80 C 430.31 556.06 421.44 556.35 412.64 557.44 C 394.24 559.27 375.90 561.65 357.58 564.13 C 349.63 564.98 341.72 566.20 333.85 567.57 C 322.30 569.36 310.69 570.81 299.24 573.16 C 289.32 574.17 279.71 577.31 269.74 577.86 C 264.20 577.48 258.64 577.09 253.21 575.83 C 254.69 575.63 256.18 575.45 257.66 575.29 C 260.38 575.07 263.06 574.57 265.75 574.10 C 271.27 573.46 276.75 572.49 282.18 571.31 C 285.19 570.76 288.17 570.08 291.17 569.49 C 302.25 567.41 313.43 565.98 324.57 564.33 C 340.29 561.54 356.19 559.96 372.02 557.89 C 385.25 556.39 398.48 554.78 411.70 553.18 C 416.25 552.82 420.75 552.04 425.14 550.79 C 429.03 549.58 433.09 549.23 437.14 549.55 C 436.96 549.79 436.59 550.27 436.41 550.51 Z" />
</g>
<g id="#f9dd34fa">
<path fill="#f9dd34" opacity="0.98" d=" M 511.06 549.15 C 517.81 549.07 524.53 548.23 531.29 548.34 C 524.77 549.07 518.21 549.03 511.69 549.61 C 497.62 550.13 483.60 551.40 469.58 552.60 C 462.93 553.21 456.23 553.66 449.70 555.17 C 442.57 555.17 435.76 557.18 429.01 559.18 C 423.57 558.58 418.20 556.94 412.64 557.44 C 421.44 556.35 430.31 556.06 439.10 554.80 C 463.08 552.90 487.00 550.05 511.06 549.15 Z" />
</g>
<g id="#702a0ca2">
<path fill="#702a0c" opacity="0.64" d=" M 531.29 548.34 C 538.72 548.01 546.15 547.71 553.59 547.74 C 550.68 549.35 547.24 548.53 544.09 548.73 C 541.04 548.55 538.12 549.40 535.23 550.21 C 528.58 550.35 521.93 550.61 515.33 551.44 C 513.63 551.12 511.93 550.81 510.24 550.50 L 511.69 549.61 C 518.21 549.03 524.77 549.07 531.29 548.34 Z" />
</g>
<g id="#b67d97c0">
<path fill="#b67d97" opacity="0.75" d=" M 341.86 550.06 C 342.40 548.15 344.74 548.61 346.10 549.23 C 344.82 550.01 343.33 550.30 341.86 550.06 Z" />
</g>
<g id="#36111169">
<path fill="#361111" opacity="0.41" d=" M 219.58 551.36 C 225.90 551.95 232.08 549.81 238.39 550.52 C 237.76 550.65 236.50 550.91 235.87 551.03 C 236.94 551.79 238.00 552.55 239.10 553.27 C 236.62 553.36 234.18 553.81 231.75 554.25 L 231.03 554.34 C 220.55 555.56 210.13 557.86 199.52 557.47 C 194.10 562.17 186.62 562.35 180.20 564.88 C 175.12 566.80 169.70 567.26 164.35 567.83 C 160.08 568.99 155.72 569.57 151.32 569.91 C 145.99 573.54 141.26 579.79 134.25 579.81 C 133.53 580.37 132.82 580.94 132.12 581.53 C 131.50 576.86 137.40 578.19 140.22 576.94 C 139.33 576.14 138.09 575.57 137.82 574.31 C 139.82 573.43 142.07 573.93 144.10 573.18 C 141.34 569.95 146.57 569.10 148.38 567.49 C 149.66 567.61 150.93 567.75 152.20 567.92 C 152.64 567.69 153.53 567.21 153.97 566.97 C 154.39 567.20 155.23 567.67 155.65 567.90 C 158.19 567.19 160.39 565.78 161.68 563.43 C 165.10 563.70 168.97 564.17 171.61 561.46 C 172.96 561.55 174.31 561.67 175.66 561.77 C 176.07 559.48 178.79 559.81 179.42 561.78 C 181.94 561.20 184.45 560.58 186.96 559.97 C 187.30 559.16 187.65 558.36 188.00 557.57 C 189.61 557.91 191.27 558.56 192.93 558.10 C 195.12 557.01 196.73 553.93 199.48 555.55 C 204.20 556.04 208.93 555.01 213.42 553.63 C 214.80 553.30 215.88 552.39 216.83 551.39 C 217.74 551.36 218.66 551.35 219.58 551.36 M 197.34 557.26 C 197.84 557.82 197.84 557.82 197.34 557.26 Z" />
</g>
<g id="#dba937dc">
<path fill="#dba937" opacity="0.86" d=" M 276.98 550.61 C 278.26 551.22 279.40 552.52 280.93 552.30 C 286.66 551.79 292.37 551.04 298.10 550.47 C 300.91 549.80 302.80 552.30 304.76 553.83 C 303.02 554.38 301.33 555.05 299.63 555.68 C 291.48 556.96 283.27 558.12 275.03 558.56 C 274.20 557.88 273.36 557.22 272.51 556.58 C 269.17 556.18 265.80 556.23 262.46 556.47 C 264.72 555.66 266.74 554.31 268.34 552.51 C 268.58 552.28 269.06 551.81 269.30 551.58 C 270.25 551.81 271.21 552.06 272.16 552.35 C 273.77 551.77 275.37 551.19 276.98 550.61 Z" />
<path fill="#dba937" opacity="0.86" d=" M 101.89 558.02 C 103.24 557.50 103.75 557.95 103.43 559.38 C 102.06 559.87 101.55 559.42 101.89 558.02 Z" />
<path fill="#dba937" opacity="0.86" d=" M 235.59 589.09 C 241.60 587.86 247.55 586.38 253.42 584.60 C 254.92 585.09 256.34 585.81 257.70 586.63 C 248.99 588.94 240.15 590.68 231.36 592.63 C 231.34 591.83 231.31 591.04 231.26 590.25 C 232.70 589.85 234.13 589.44 235.59 589.09 Z" />
</g>
<g id="#f9f572fa">
<path fill="#f9f572" opacity="0.98" d=" M 402.86 551.46 C 410.25 550.45 417.70 550.64 425.14 550.79 C 420.75 552.04 416.25 552.82 411.70 553.18 C 408.90 552.01 405.90 551.34 402.86 551.46 Z" />
</g>
<g id="#9f3a1fc5">
<path fill="#9f3a1f" opacity="0.77" d=" M 469.58 552.60 C 483.60 551.40 497.62 550.13 511.69 549.61 L 510.24 550.50 C 503.50 552.80 496.26 551.73 489.37 553.18 C 482.25 553.82 475.16 554.60 468.07 555.44 C 468.45 554.73 469.20 553.31 469.58 552.60 Z" />
</g>
<g id="#310f0b62">
<path fill="#310f0b" opacity="0.38" d=" M 515.33 551.44 C 521.93 550.61 528.58 550.35 535.23 550.21 C 530.90 551.38 526.61 553.13 522.08 553.23 C 519.10 553.44 516.34 554.75 513.37 554.96 C 507.08 555.06 500.87 556.49 494.56 556.03 C 501.46 554.35 508.64 553.94 515.33 551.44 Z" />
</g>
<g id="#6e2419a3">
<path fill="#6e2419" opacity="0.64" d=" M 489.37 553.18 C 496.26 551.73 503.50 552.80 510.24 550.50 C 511.93 550.81 513.63 551.12 515.33 551.44 C 508.64 553.94 501.46 554.35 494.56 556.03 C 488.38 556.37 482.20 556.28 476.02 556.54 C 473.31 556.69 470.66 556.10 468.07 555.44 C 475.16 554.60 482.25 553.82 489.37 553.18 Z" />
</g>
<g id="#c08732c5">
<path fill="#c08732" opacity="0.77" d=" M 247.00 556.84 C 253.81 554.13 261.08 553.06 268.34 552.51 C 266.74 554.31 264.72 555.66 262.46 556.47 C 258.40 557.95 254.15 558.74 249.87 559.16 C 249.41 558.79 248.95 558.42 248.49 558.06 C 248.12 557.76 247.38 557.14 247.00 556.84 Z" />
</g>
<g id="#f7eb46f8">
<path fill="#f7eb46" opacity="0.97" d=" M 366.66 555.38 C 378.67 553.64 390.77 552.62 402.86 551.46 C 405.90 551.34 408.90 552.01 411.70 553.18 C 398.48 554.78 385.25 556.39 372.02 557.89 C 372.18 557.48 372.49 556.66 372.65 556.25 C 370.66 555.93 368.66 555.61 366.66 555.38 Z" />
</g>
<g id="#974f14af">
<path fill="#974f14" opacity="0.69" d=" M 449.70 555.17 C 456.23 553.66 462.93 553.21 469.58 552.60 C 469.20 553.31 468.45 554.73 468.07 555.44 C 465.97 555.58 463.95 556.19 462.02 556.98 C 458.44 558.43 454.55 558.76 450.93 560.10 C 439.24 564.65 426.49 564.75 414.12 564.54 C 406.75 565.25 399.33 564.29 391.98 565.35 C 383.05 565.75 374.11 565.27 365.17 565.49 L 364.31 563.76 C 373.45 562.17 382.77 562.82 391.97 561.69 C 405.55 561.49 419.14 561.64 432.72 561.76 C 433.36 561.12 434.00 560.49 434.65 559.86 C 439.84 559.03 445.58 558.90 449.70 555.17 Z" />
</g>
<g id="#6e2427a3">
<path fill="#6e2427" opacity="0.64" d=" M 199.52 557.47 C 210.13 557.86 220.55 555.56 231.03 554.34 C 230.80 554.99 230.32 556.29 230.08 556.94 C 227.19 557.35 224.32 557.93 221.47 558.60 C 216.88 559.75 212.07 558.81 207.46 559.90 C 201.49 560.61 195.91 562.92 190.10 564.27 C 186.09 565.28 181.88 565.90 178.34 568.19 C 178.51 568.62 178.86 569.50 179.03 569.93 C 178.22 570.03 177.41 570.13 176.60 570.25 C 170.76 570.85 164.89 571.20 159.03 571.49 C 149.51 570.92 144.19 581.03 135.08 582.16 C 133.07 582.50 131.06 582.81 129.06 583.15 L 129.04 582.23 C 129.70 582.14 131.03 581.96 131.69 581.88 L 132.12 581.53 C 132.82 580.94 133.53 580.37 134.25 579.81 C 141.26 579.79 145.99 573.54 151.32 569.91 C 155.72 569.57 160.08 568.99 164.35 567.83 C 169.70 567.26 175.12 566.80 180.20 564.88 C 186.62 562.35 194.10 562.17 199.52 557.47 Z" />
</g>
<g id="#6e352188">
<path fill="#6e3521" opacity="0.53" d=" M 231.03 554.34 L 231.75 554.25 C 235.55 555.73 239.29 557.39 243.15 558.70 C 240.69 559.70 238.15 560.50 235.60 561.25 C 234.07 561.42 232.53 561.46 231.00 561.43 C 231.21 560.82 231.64 559.61 231.85 559.00 C 231.26 558.31 230.67 557.62 230.08 556.94 C 230.32 556.29 230.80 554.99 231.03 554.34 Z" />
</g>
<g id="#401e0962">
<path fill="#401e09" opacity="0.38" d=" M 462.02 556.98 C 463.95 556.19 465.97 555.58 468.07 555.44 C 470.66 556.10 473.31 556.69 476.02 556.54 C 482.20 556.28 488.38 556.37 494.56 556.03 C 500.87 556.49 507.08 555.06 513.37 554.96 C 511.70 555.82 509.79 555.86 507.98 556.08 C 503.76 556.44 499.63 557.56 495.38 557.61 C 489.89 557.44 484.31 557.17 478.95 558.66 C 473.28 560.37 467.18 558.44 461.61 560.53 C 456.48 562.36 451.38 564.29 446.38 566.43 C 443.13 567.90 439.49 567.31 436.05 567.46 C 431.34 567.44 426.70 568.46 422.00 568.58 C 414.69 568.82 407.35 567.98 400.07 568.88 C 394.73 569.76 389.38 567.82 384.04 568.92 C 379.10 569.86 374.09 567.64 369.20 569.14 C 363.50 570.67 357.58 571.13 351.88 572.67 C 346.08 574.38 339.80 572.73 334.13 575.03 C 328.62 577.22 322.62 576.22 316.86 576.54 C 317.17 576.12 317.79 575.27 318.11 574.85 C 322.02 574.02 326.04 573.95 330.01 573.52 C 333.83 573.16 337.07 570.45 340.99 570.58 C 345.08 570.55 349.21 570.69 353.26 569.87 C 352.85 569.60 352.02 569.06 351.61 568.79 C 354.84 568.41 358.03 567.71 361.23 567.08 C 359.82 566.86 358.41 566.64 357.01 566.44 C 359.71 565.99 362.43 565.60 365.17 565.49 C 374.11 565.27 383.05 565.75 391.98 565.35 C 399.33 564.29 406.75 565.25 414.12 564.54 C 426.49 564.75 439.24 564.65 450.93 560.10 C 454.55 558.76 458.44 558.43 462.02 556.98 Z" />
</g>
<g id="#f6dc3bf7">
<path fill="#f6dc3b" opacity="0.97" d=" M 295.90 563.66 C 319.44 560.55 342.99 557.38 366.66 555.38 C 368.66 555.61 370.66 555.93 372.65 556.25 C 372.49 556.66 372.18 557.48 372.02 557.89 C 356.19 559.96 340.29 561.54 324.57 564.33 C 313.43 565.98 302.25 567.41 291.17 569.49 C 290.66 569.18 289.63 568.56 289.11 568.25 C 291.67 567.45 294.23 566.65 296.79 565.86 C 296.57 565.31 296.12 564.21 295.90 563.66 Z" />
<path fill="#f6dc3b" opacity="0.97" d=" M 217.67 593.87 C 222.14 592.44 226.73 591.48 231.26 590.25 C 231.31 591.04 231.34 591.83 231.36 592.63 C 228.49 593.34 225.64 594.14 222.82 595.02 C 222.40 595.14 221.55 595.40 221.13 595.52 C 219.97 594.96 218.82 594.41 217.67 593.87 Z" />
</g>
<g id="#9b685ca9">
<path fill="#9b685c" opacity="0.66" d=" M 197.34 557.26 C 197.84 557.82 197.84 557.82 197.34 557.26 Z" />
</g>
<g id="#83352fa3">
<path fill="#83352f" opacity="0.64" d=" M 221.47 558.60 C 224.32 557.93 227.19 557.35 230.08 556.94 C 230.67 557.62 231.26 558.31 231.85 559.00 C 231.64 559.61 231.21 560.82 231.00 561.43 C 229.03 561.35 227.06 561.25 225.09 561.33 C 221.15 561.46 217.19 561.68 213.29 561.06 C 211.33 560.70 209.40 560.27 207.46 559.90 C 212.07 558.81 216.88 559.75 221.47 558.60 Z" />
</g>
<g id="#ab6d44b0">
<path fill="#ab6d44" opacity="0.69" d=" M 247.00 556.84 C 247.38 557.14 248.12 557.76 248.49 558.06 C 248.19 559.87 248.07 562.06 246.30 563.12 C 244.50 563.35 242.72 563.63 240.93 563.87 C 239.13 563.02 237.37 562.15 235.60 561.25 C 238.15 560.50 240.69 559.70 243.15 558.70 C 244.44 558.09 245.71 557.44 247.00 556.84 Z" />
</g>
<g id="#e5c054e6">
<path fill="#e5c054" opacity="0.90" d=" M 249.87 559.16 C 254.15 558.74 258.40 557.95 262.46 556.47 C 265.80 556.23 269.17 556.18 272.51 556.58 C 270.42 559.59 266.40 558.40 263.30 558.82 C 260.22 563.15 254.07 562.43 249.48 563.94 C 248.68 563.74 247.09 563.33 246.30 563.12 C 248.07 562.06 248.19 559.87 248.49 558.06 C 248.95 558.42 249.41 558.79 249.87 559.16 Z" />
</g>
<g id="#170a022f">
<path fill="#170a02" opacity="0.18" d=" M 478.95 558.66 C 484.31 557.17 489.89 557.44 495.38 557.61 C 492.97 559.39 489.70 558.76 487.03 559.95 C 480.62 562.38 473.48 562.58 467.48 566.08 C 469.36 569.13 473.28 567.80 476.25 568.07 L 476.27 568.66 C 469.79 569.27 463.34 570.05 456.90 570.99 C 454.56 570.46 452.14 570.60 450.02 571.79 C 442.17 572.46 434.42 573.91 426.61 574.94 C 424.25 574.69 421.88 574.41 419.51 574.45 C 418.58 573.75 417.66 573.06 416.74 572.39 C 414.64 572.71 412.37 573.73 410.32 572.68 C 408.02 571.67 405.55 571.12 403.04 571.31 C 393.02 571.74 383.00 570.90 372.99 571.25 C 367.61 571.64 362.32 572.80 357.08 574.03 C 349.26 575.67 341.01 575.24 333.41 577.99 C 323.18 578.29 313.00 580.17 302.75 579.13 C 307.31 577.46 312.38 578.20 316.86 576.54 C 322.62 576.22 328.62 577.22 334.13 575.03 C 339.80 572.73 346.08 574.38 351.88 572.67 C 357.58 571.13 363.50 570.67 369.20 569.14 C 374.09 567.64 379.10 569.86 384.04 568.92 C 389.38 567.82 394.73 569.76 400.07 568.88 C 407.35 567.98 414.69 568.82 422.00 568.58 C 426.70 568.46 431.34 567.44 436.05 567.46 C 439.49 567.31 443.13 567.90 446.38 566.43 C 451.38 564.29 456.48 562.36 461.61 560.53 C 467.18 558.44 473.28 560.37 478.95 558.66 Z" />
</g>
<g id="#f6f0d2fa">
<path fill="#f6f0d2" opacity="0.98" d=" M 598.97 559.09 C 612.59 557.45 626.36 558.26 640.03 557.32 C 688.88 556.57 737.73 558.14 786.55 559.36 C 785.08 559.77 783.55 559.81 782.05 559.85 C 737.69 559.62 693.30 559.78 648.99 562.01 C 642.14 561.96 635.32 563.13 628.47 562.86 C 623.68 561.34 617.69 563.14 613.77 559.47 C 608.84 559.35 603.90 559.39 598.97 559.09 Z" />
</g>
<g id="#fcfcf2fd">
<path fill="#fcfcf2" opacity="1.00" d=" M 578.11 560.07 C 585.06 559.81 591.99 558.83 598.97 559.09 C 603.90 559.39 608.84 559.35 613.77 559.47 C 617.69 563.14 623.68 561.34 628.47 562.86 C 612.31 564.04 596.13 564.66 580.00 566.10 C 555.71 568.04 531.37 569.50 507.11 572.06 C 477.87 574.63 448.78 578.77 419.67 582.57 C 416.99 579.49 412.78 579.27 409.30 577.62 C 415.07 576.71 420.87 576.03 426.61 574.94 C 434.42 573.91 442.17 572.46 450.02 571.79 C 452.33 572.70 454.88 572.47 456.90 570.99 C 463.34 570.05 469.79 569.27 476.27 568.66 C 510.11 564.75 544.10 562.19 578.11 560.07 Z" />
</g>
<g id="#9e2e40d4">
<path fill="#9e2e40" opacity="0.83" d=" M 190.10 564.27 C 195.91 562.92 201.49 560.61 207.46 559.90 C 209.40 560.27 211.33 560.70 213.29 561.06 C 213.45 561.83 213.61 562.61 213.77 563.39 C 212.20 563.62 210.63 563.86 209.06 564.11 C 202.53 564.71 195.79 565.03 189.72 567.76 C 186.38 569.37 182.66 569.62 179.03 569.93 C 178.86 569.50 178.51 568.62 178.34 568.19 C 181.88 565.90 186.09 565.28 190.10 564.27 Z" />
</g>
<g id="#96391fb5">
<path fill="#96391f" opacity="0.71" d=" M 559.99 560.93 C 566.05 561.01 572.03 559.54 578.11 560.07 C 544.10 562.19 510.11 564.75 476.27 568.66 L 476.25 568.07 L 476.23 567.39 C 482.15 568.14 487.98 566.69 493.87 566.33 C 497.86 565.58 501.96 565.83 505.92 564.96 C 510.50 563.63 515.32 565.15 519.90 563.76 C 533.27 563.05 546.59 561.39 559.99 560.93 Z" />
<path fill="#96391f" opacity="0.71" d=" M 299.24 573.16 C 310.69 570.81 322.30 569.36 333.85 567.57 C 339.55 569.71 345.68 568.51 351.61 568.79 C 352.02 569.06 352.85 569.60 353.26 569.87 C 349.21 570.69 345.08 570.55 340.99 570.58 C 337.07 570.45 333.83 573.16 330.01 573.52 C 326.04 573.95 322.02 574.02 318.11 574.85 C 317.79 575.27 317.17 576.12 316.86 576.54 C 312.38 578.20 307.31 577.46 302.75 579.13 C 302.55 579.16 302.15 579.23 301.95 579.27 C 298.60 579.78 295.31 580.63 291.94 581.06 C 288.84 581.62 286.31 578.65 283.36 578.82 C 279.33 580.70 275.43 582.99 270.94 583.59 C 272.63 581.73 274.40 579.73 276.93 579.04 C 284.27 576.75 291.82 575.16 299.24 573.16 M 287.21 578.09 C 289.40 578.87 291.69 579.66 294.05 579.28 C 297.03 578.82 300.94 578.51 302.03 575.14 C 296.97 575.05 291.57 575.17 287.21 578.09 Z" />
</g>
<g id="#b54c50ca">
<path fill="#b54c50" opacity="0.79" d=" M 213.29 561.06 C 217.19 561.68 221.15 561.46 225.09 561.33 C 223.92 562.17 222.82 563.09 221.71 564.01 C 226.29 564.09 230.93 563.67 235.45 564.60 L 236.77 565.06 C 228.63 565.64 220.40 564.95 212.33 566.37 C 211.48 564.96 210.28 564.50 208.74 564.98 L 209.06 564.11 C 210.63 563.86 212.20 563.62 213.77 563.39 C 213.61 562.61 213.45 561.83 213.29 561.06 Z" />
</g>
<g id="#924b3e9b">
<path fill="#924b3e" opacity="0.61" d=" M 225.09 561.33 C 227.06 561.25 229.03 561.35 231.00 561.43 C 232.53 561.46 234.07 561.42 235.60 561.25 C 237.37 562.15 239.13 563.02 240.93 563.87 C 239.10 564.13 237.28 564.39 235.45 564.60 C 230.93 563.67 226.29 564.09 221.71 564.01 C 222.82 563.09 223.92 562.17 225.09 561.33 Z" />
</g>
<g id="#bb7983be">
<path fill="#bb7983" opacity="0.75" d=" M 240.93 563.87 C 242.72 563.63 244.50 563.35 246.30 563.12 C 247.09 563.33 248.68 563.74 249.48 563.94 C 242.38 565.65 235.18 566.89 228.00 568.20 C 230.89 566.70 234.02 565.84 237.19 565.19 L 236.77 565.06 L 235.45 564.60 C 237.28 564.39 239.10 564.13 240.93 563.87 Z" />
</g>
<g id="#e84183fa">
<path fill="#e84183" opacity="0.98" d=" M 189.72 567.76 C 195.79 565.03 202.53 564.71 209.06 564.11 L 208.74 564.98 C 208.73 565.42 208.69 566.28 208.68 566.72 C 203.85 566.13 199.05 567.33 194.23 567.38 C 194.60 567.66 195.34 568.22 195.70 568.50 C 194.93 568.82 194.15 569.14 193.37 569.47 C 189.96 570.85 186.41 571.94 182.75 572.40 L 182.30 572.42 C 180.52 572.05 178.75 571.63 176.97 571.24 L 176.60 570.25 C 177.41 570.13 178.22 570.03 179.03 569.93 C 182.66 569.62 186.38 569.37 189.72 567.76 Z" />
</g>
<g id="#f8ee5df8">
<path fill="#f8ee5d" opacity="0.97" d=" M 289.32 564.76 C 291.51 564.39 293.70 563.99 295.90 563.66 C 296.12 564.21 296.57 565.31 296.79 565.86 C 294.23 566.65 291.67 567.45 289.11 568.25 C 289.63 568.56 290.66 569.18 291.17 569.49 C 288.17 570.08 285.19 570.76 282.18 571.31 C 280.34 571.17 278.51 570.94 276.69 570.72 C 280.97 568.87 285.85 568.12 289.32 564.76 Z" />
</g>
<g id="#9c3c15bb">
<path fill="#9c3c15" opacity="0.73" d=" M 333.85 567.57 C 341.72 566.20 349.63 564.98 357.58 564.13 C 359.82 564.03 362.07 563.98 364.31 563.76 L 365.17 565.49 C 362.43 565.60 359.71 565.99 357.01 566.44 C 358.41 566.64 359.82 566.86 361.23 567.08 C 358.03 567.71 354.84 568.41 351.61 568.79 C 345.68 568.51 339.55 569.71 333.85 567.57 Z" />
</g>
<g id="#a05969a9">
<path fill="#a05969" opacity="0.66" d=" M 208.74 564.98 C 210.28 564.50 211.48 564.96 212.33 566.37 C 211.14 566.88 209.92 567.00 208.68 566.72 C 208.69 566.28 208.73 565.42 208.74 564.98 Z" />
</g>
<g id="#f55299f8">
<path fill="#f55299" opacity="0.97" d=" M 212.33 566.37 C 220.40 564.95 228.63 565.64 236.77 565.06 L 237.19 565.19 C 234.02 565.84 230.89 566.70 228.00 568.20 C 223.93 569.26 219.79 570.08 215.67 570.93 C 209.95 568.10 203.78 571.05 197.79 570.57 C 197.75 571.81 197.73 573.07 197.70 574.33 C 196.79 574.57 195.88 574.82 194.98 575.09 C 195.19 574.59 195.61 573.58 195.82 573.08 C 195.00 571.87 194.18 570.66 193.37 569.47 C 194.15 569.14 194.93 568.82 195.70 568.50 C 195.34 568.22 194.60 567.66 194.23 567.38 C 199.05 567.33 203.85 566.13 208.68 566.72 C 209.92 567.00 211.14 566.88 212.33 566.37 Z" />
</g>
<g id="#fbf98cfb">
<path fill="#fbf98c" opacity="1.00" d=" M 276.05 567.15 C 280.41 566.03 284.89 565.51 289.32 564.76 C 285.85 568.12 280.97 568.87 276.69 570.72 C 278.51 570.94 280.34 571.17 282.18 571.31 C 276.75 572.49 271.27 573.46 265.75 574.10 C 262.11 572.87 258.53 571.48 254.79 570.59 C 258.47 569.85 262.21 569.65 265.96 569.59 C 269.50 569.67 272.69 567.97 276.05 567.15 Z" />
</g>
<g id="#1a090a3c">
<path fill="#1a090a" opacity="0.24" d=" M 145.42 566.04 C 148.27 565.64 145.55 568.90 144.00 568.19 C 142.41 567.57 144.54 566.02 145.42 566.04 Z" />
</g>
<g id="#f758baf9">
<path fill="#f758ba" opacity="0.98" d=" M 197.79 570.57 C 203.78 571.05 209.95 568.10 215.67 570.93 C 213.21 571.45 210.73 571.93 208.24 572.27 C 206.86 571.55 205.74 571.81 204.88 573.06 C 204.46 573.10 203.61 573.18 203.19 573.22 C 201.90 572.56 200.76 572.75 199.77 573.79 C 199.25 573.93 198.22 574.20 197.70 574.33 C 197.73 573.07 197.75 571.81 197.79 570.57 Z" />
</g>
<g id="#fe4cbfff">
<path fill="#fe4cbf" opacity="1.00" d=" M 182.75 572.40 C 186.41 571.94 189.96 570.85 193.37 569.47 C 194.18 570.66 195.00 571.87 195.82 573.08 C 195.61 573.58 195.19 574.59 194.98 575.09 C 192.42 575.83 189.89 576.71 187.27 577.24 C 185.96 577.13 184.65 577.01 183.34 576.88 C 183.16 575.38 182.96 573.88 182.75 572.40 Z" />
</g>
<g id="#994242bb">
<path fill="#994242" opacity="0.73" d=" M 135.08 582.16 C 144.19 581.03 149.51 570.92 159.03 571.49 C 164.89 571.20 170.76 570.85 176.60 570.25 L 176.97 571.24 C 176.28 571.53 174.89 572.11 174.20 572.40 C 174.72 573.34 175.24 574.27 175.77 575.23 L 174.83 574.98 C 173.94 574.73 173.05 574.48 172.16 574.25 C 170.22 576.25 167.79 577.62 164.96 577.86 C 165.11 577.09 165.40 575.54 165.55 574.77 C 162.71 574.31 159.91 573.60 157.03 573.44 C 154.45 573.30 152.42 575.13 150.64 576.75 C 148.43 578.81 145.61 580.02 142.91 581.28 C 141.87 581.33 140.83 581.38 139.80 581.48 C 139.36 581.54 138.50 581.65 138.07 581.71 C 137.32 581.82 135.82 582.05 135.08 582.16 Z" />
</g>
<g id="#f5e562f5">
<path fill="#f5e562" opacity="0.96" d=" M 239.66 573.46 C 244.69 572.43 249.74 571.50 254.79 570.59 C 258.53 571.48 262.11 572.87 265.75 574.10 C 263.06 574.57 260.38 575.07 257.66 575.29 C 251.81 573.24 245.49 575.84 239.66 573.46 Z" />
</g>
<g id="#09040117">
<path fill="#090401" opacity="0.09" d=" M 357.08 574.03 C 362.32 572.80 367.61 571.64 372.99 571.25 C 383.00 570.90 393.02 571.74 403.04 571.31 C 405.55 571.12 408.02 571.67 410.32 572.68 C 412.37 573.73 414.64 572.71 416.74 572.39 C 417.66 573.06 418.58 573.75 419.51 574.45 C 411.88 575.43 404.29 576.72 396.67 577.79 C 396.37 577.56 395.75 577.10 395.44 576.87 C 391.57 576.35 387.98 574.03 383.98 574.74 C 375.66 575.71 367.23 572.87 359.00 575.04 C 358.52 574.79 357.56 574.28 357.08 574.03 Z" />
</g>
<g id="#c3aa86d2">
<path fill="#c3aa86" opacity="0.82" d=" M 450.02 571.79 C 452.14 570.60 454.56 570.46 456.90 570.99 C 454.88 572.47 452.33 572.70 450.02 571.79 Z" />
</g>
<g id="#b76068bb">
<path fill="#b76068" opacity="0.73" d=" M 174.20 572.40 C 174.89 572.11 176.28 571.53 176.97 571.24 C 178.75 571.63 180.52 572.05 182.30 572.42 L 181.11 572.72 C 180.43 573.13 179.08 573.95 178.41 574.35 C 177.84 574.72 177.28 575.10 176.73 575.49 C 176.25 575.37 175.31 575.11 174.83 574.98 L 175.77 575.23 C 175.24 574.27 174.72 573.34 174.20 572.40 Z" />
</g>
<g id="#ce81b8d0">
<path fill="#ce81b8" opacity="0.82" d=" M 204.88 573.06 C 205.74 571.81 206.86 571.55 208.24 572.27 C 207.27 573.22 206.15 573.49 204.88 573.06 Z" />
</g>
<g id="#39110969">
<path fill="#391109" opacity="0.41" d=" M 419.67 582.57 C 448.78 578.77 477.87 574.63 507.11 572.06 C 501.68 573.66 495.96 573.20 490.44 574.25 C 474.73 575.80 459.24 578.89 443.53 579.98 C 444.72 580.64 445.96 581.26 447.21 581.84 C 438.85 581.51 430.38 586.01 422.20 582.78 C 421.79 582.92 420.98 583.19 420.58 583.33 C 421.25 583.74 422.60 584.55 423.28 584.95 C 420.73 585.24 418.44 584.25 416.13 583.51 C 415.67 584.12 414.75 585.32 414.30 585.93 C 412.73 585.86 411.29 585.35 409.99 584.50 C 409.10 584.69 407.32 585.09 406.43 585.28 C 407.11 585.70 408.46 586.53 409.14 586.95 C 407.49 586.79 405.93 586.27 404.81 585.01 C 409.76 584.15 414.73 583.47 419.67 582.57 M 437.30 580.99 C 437.50 584.32 440.25 579.38 437.30 580.99 M 429.44 582.06 C 429.67 583.40 430.37 583.62 431.57 582.71 C 431.33 581.34 430.63 581.13 429.44 582.06 Z" />
</g>
<g id="#e64688f8">
<path fill="#e64688" opacity="0.97" d=" M 150.64 576.75 C 152.42 575.13 154.45 573.30 157.03 573.44 C 159.91 573.60 162.71 574.31 165.55 574.77 C 165.40 575.54 165.11 577.09 164.96 577.86 C 164.72 578.38 164.49 578.91 164.28 579.45 C 161.27 579.16 158.25 579.23 155.24 579.29 C 155.22 580.69 155.19 582.10 155.17 583.52 C 156.71 583.82 158.27 584.11 159.83 584.39 C 157.50 585.04 155.19 585.75 152.95 586.65 L 152.38 585.98 C 151.22 584.60 150.27 583.08 149.33 581.57 C 147.19 582.02 144.86 582.79 142.91 581.28 C 145.61 580.02 148.43 578.81 150.64 576.75 Z" />
</g>
<g id="#f4e5e6f6">
<path fill="#f4e5e6" opacity="0.96" d=" M 178.41 574.35 C 179.08 573.95 180.43 573.13 181.11 572.72 C 181.46 573.78 181.80 574.83 182.15 575.90 C 181.46 576.21 180.08 576.84 179.39 577.16 C 179.06 576.21 178.73 575.28 178.41 574.35 Z" />
</g>
<g id="#d48dc0d5">
<path fill="#d48dc0" opacity="0.84" d=" M 181.11 572.72 L 182.30 572.42 L 182.75 572.40 C 182.96 573.88 183.16 575.38 183.34 576.88 C 184.65 577.01 185.96 577.13 187.27 577.24 C 184.81 577.75 182.31 578.02 179.83 578.44 C 179.72 578.12 179.50 577.48 179.39 577.16 C 180.08 576.84 181.46 576.21 182.15 575.90 C 181.80 574.83 181.46 573.78 181.11 572.72 Z" />
</g>
<g id="#cb81bbcc">
<path fill="#cb81bb" opacity="0.80" d=" M 199.77 573.79 C 200.76 572.75 201.90 572.56 203.19 573.22 C 202.19 574.26 201.05 574.45 199.77 573.79 Z" />
</g>
<g id="#c9761bd8">
<path fill="#c9761b" opacity="0.85" d=" M 269.74 577.86 C 279.71 577.31 289.32 574.17 299.24 573.16 C 291.82 575.16 284.27 576.75 276.93 579.04 C 274.40 579.73 272.63 581.73 270.94 583.59 C 266.51 584.55 262.03 585.29 257.70 586.63 C 256.34 585.81 254.92 585.09 253.42 584.60 C 251.45 583.90 249.50 583.14 247.54 582.45 C 254.85 580.46 262.46 579.95 269.74 577.86 Z" />
</g>
<g id="#c78977c8">
<path fill="#c78977" opacity="0.78" d=" M 164.96 577.86 C 167.79 577.62 170.22 576.25 172.16 574.25 C 173.05 574.48 173.94 574.73 174.83 574.98 C 175.31 575.11 176.25 575.37 176.73 575.49 C 177.28 575.10 177.84 574.72 178.41 574.35 C 178.73 575.28 179.06 576.21 179.39 577.16 C 179.50 577.48 179.72 578.12 179.83 578.44 C 176.76 579.31 173.80 580.57 170.72 581.43 C 168.60 580.70 166.46 579.97 164.28 579.45 C 164.49 578.91 164.72 578.38 164.96 577.86 Z" />
</g>
<g id="#f1d238f2">
<path fill="#f1d238" opacity="0.95" d=" M 235.15 574.24 C 236.65 573.97 238.15 573.69 239.66 573.46 C 245.49 575.84 251.81 573.24 257.66 575.29 C 256.18 575.45 254.69 575.63 253.21 575.83 C 241.54 577.68 230.49 582.54 218.63 583.46 C 221.66 581.49 224.58 579.25 228.05 578.09 C 230.62 577.22 233.07 576.01 235.15 574.24 Z" />
<path fill="#f1d238" opacity="0.95" d=" M 211.48 595.89 C 213.53 595.18 215.59 594.50 217.67 593.87 C 218.82 594.41 219.97 594.96 221.13 595.52 C 212.24 597.80 203.43 600.41 194.76 603.41 C 195.87 602.36 196.94 601.28 198.09 600.28 C 199.46 599.87 200.85 599.50 202.23 599.09 C 205.34 598.10 208.40 596.96 211.48 595.89 Z" />
</g>
<g id="#56271078">
<path fill="#562710" opacity="0.47" d=" M 396.67 577.79 C 404.29 576.72 411.88 575.43 419.51 574.45 C 421.88 574.41 424.25 574.69 426.61 574.94 C 420.87 576.03 415.07 576.71 409.30 577.62 C 391.01 580.54 372.68 583.22 354.50 586.80 C 345.30 588.64 336.07 590.37 326.92 592.47 C 321.57 593.71 316.20 594.82 310.82 595.84 C 323.89 591.77 337.55 589.83 350.92 586.89 C 355.61 585.98 360.18 584.51 364.90 583.76 C 369.43 582.75 374.16 582.82 378.58 581.26 C 381.79 581.18 384.88 580.21 388.09 580.11 C 389.39 579.44 390.69 578.75 391.99 578.07 C 392.34 578.24 393.06 578.58 393.42 578.75 C 394.23 578.51 395.86 578.03 396.67 577.79 Z" />
<path fill="#562710" opacity="0.47" d=" M 212.21 589.85 C 219.27 589.90 226.16 588.20 233.15 587.50 C 233.76 587.90 234.98 588.69 235.59 589.09 C 234.13 589.44 232.70 589.85 231.26 590.25 C 226.73 591.48 222.14 592.44 217.67 593.87 C 215.59 594.50 213.53 595.18 211.48 595.89 C 207.25 594.66 202.85 594.14 198.46 593.88 C 202.20 592.79 205.97 591.77 209.67 590.52 C 210.52 590.30 211.36 590.07 212.21 589.85 Z" />
</g>
<g id="#d6a135d8">
<path fill="#d6a135" opacity="0.85" d=" M 215.17 578.01 C 221.77 576.45 228.45 575.28 235.15 574.24 C 233.07 576.01 230.62 577.22 228.05 578.09 C 224.58 579.25 221.66 581.49 218.63 583.46 C 215.43 584.30 212.23 585.10 209.03 585.91 C 204.88 587.00 200.73 588.10 196.54 589.04 C 202.05 585.71 208.53 584.86 214.53 582.81 C 214.74 581.21 214.96 579.61 215.17 578.01 Z" />
</g>
<g id="#be422ad8">
<path fill="#be422a" opacity="0.85" d=" M 287.21 578.09 C 291.57 575.17 296.97 575.05 302.03 575.14 C 300.94 578.51 297.03 578.82 294.05 579.28 C 291.69 579.66 289.40 578.87 287.21 578.09 Z" />
</g>
<g id="#fbfba6fc">
<path fill="#fbfba6" opacity="1.00" d=" M 218.63 583.46 C 230.49 582.54 241.54 577.68 253.21 575.83 C 258.64 577.09 264.20 577.48 269.74 577.86 C 262.46 579.95 254.85 580.46 247.54 582.45 C 240.27 583.90 232.96 585.09 225.66 586.38 C 219.76 584.98 213.79 586.23 208.13 587.97 C 208.35 587.45 208.80 586.43 209.03 585.91 C 212.23 585.10 215.43 584.30 218.63 583.46 Z" />
</g>
<g id="#1307072e">
<path fill="#130707" opacity="0.18" d=" M 126.45 578.08 C 127.42 576.93 129.77 578.35 128.76 579.69 C 127.79 580.81 125.46 579.39 126.45 578.08 Z" />
</g>
<g id="#5e241488">
<path fill="#5e2414" opacity="0.53" d=" M 270.94 583.59 C 275.43 582.99 279.33 580.70 283.36 578.82 C 286.31 578.65 288.84 581.62 291.94 581.06 C 295.31 580.63 298.60 579.78 301.95 579.27 L 301.67 580.29 C 298.59 581.15 295.49 581.96 292.42 582.89 C 288.80 582.52 285.07 581.69 281.49 582.74 C 278.21 583.71 275.03 585.08 271.62 585.53 C 267.55 586.21 263.29 585.96 259.36 587.36 C 258.51 588.42 257.97 589.70 257.34 590.91 C 257.03 590.32 256.40 589.12 256.09 588.53 C 250.30 591.69 243.62 592.12 237.55 594.51 C 232.52 596.26 227.12 596.35 221.97 597.62 C 222.25 596.75 222.53 595.88 222.82 595.02 C 225.64 594.14 228.49 593.34 231.36 592.63 C 240.15 590.68 248.99 588.94 257.70 586.63 C 262.03 585.29 266.51 584.55 270.94 583.59 Z" />
</g>
<g id="#0b05011a">
<path fill="#0b0501" opacity="0.10" d=" M 302.75 579.13 C 313.00 580.17 323.18 578.29 333.41 577.99 C 330.23 579.68 326.44 578.98 323.01 579.71 C 315.45 581.16 307.76 582.05 300.41 584.42 C 296.31 585.80 291.57 586.29 288.43 589.56 C 287.49 590.52 286.10 590.72 284.89 591.18 C 280.76 592.41 277.06 594.80 272.83 595.76 C 272.33 596.87 271.82 597.98 271.34 599.11 C 267.57 595.72 262.03 596.26 257.57 597.70 C 255.02 598.77 252.43 599.85 249.61 599.90 C 251.27 597.17 254.28 596.08 257.19 595.24 C 259.62 594.65 261.27 592.68 263.23 591.28 C 265.14 591.95 266.81 593.16 268.66 594.00 C 269.60 593.20 270.40 592.25 271.39 591.51 C 273.12 591.47 274.77 592.09 276.44 592.49 C 278.70 590.20 280.63 586.89 284.15 586.54 C 289.92 585.71 295.68 584.57 301.11 582.42 C 301.25 581.89 301.53 580.82 301.67 580.29 L 301.95 579.27 C 302.15 579.23 302.55 579.16 302.75 579.13 Z" />
</g>
<g id="#fbfbdefd">
<path fill="#fbfbde" opacity="1.00" d=" M 354.50 586.80 C 372.68 583.22 391.01 580.54 409.30 577.62 C 412.78 579.27 416.99 579.49 419.67 582.57 C 414.73 583.47 409.76 584.15 404.81 585.01 C 394.31 586.66 383.82 588.42 373.31 589.93 C 369.74 589.79 366.16 590.00 362.67 590.77 C 362.61 590.34 362.48 589.49 362.42 589.06 C 361.50 589.28 360.58 589.51 359.67 589.74 C 359.59 589.39 359.42 588.68 359.34 588.32 C 357.73 587.79 356.12 587.26 354.50 586.80 Z" />
</g>
<g id="#fd52b7fe">
<path fill="#fd52b7" opacity="1.00" d=" M 155.24 579.29 C 158.25 579.23 161.27 579.16 164.28 579.45 C 166.46 579.97 168.60 580.70 170.72 581.43 C 167.10 582.46 163.47 583.44 159.83 584.39 C 158.27 584.11 156.71 583.82 155.17 583.52 C 155.19 582.10 155.22 580.69 155.24 579.29 Z" />
</g>
<g id="#bc7b30c0">
<path fill="#bc7b30" opacity="0.75" d=" M 190.90 582.97 C 198.97 581.22 207.17 580.10 215.17 578.01 C 214.96 579.61 214.74 581.21 214.53 582.81 C 208.53 584.86 202.05 585.71 196.54 589.04 C 191.80 590.80 186.99 592.49 182.01 593.45 C 180.56 593.69 179.11 593.94 177.66 594.20 C 182.54 591.98 188.01 591.49 192.85 589.12 C 194.04 588.58 195.24 588.04 196.34 587.34 C 196.71 585.80 196.48 584.21 196.42 582.66 C 194.58 582.74 192.73 582.82 190.90 582.97 Z" />
</g>
<g id="#df2276fe">
<path fill="#df2276" opacity="1.00" d=" M 139.80 581.48 C 140.83 581.38 141.87 581.33 142.91 581.28 C 144.86 582.79 147.19 582.02 149.33 581.57 C 150.27 583.08 151.22 584.60 152.38 585.98 C 151.98 586.27 151.20 586.85 150.80 587.13 C 150.37 587.12 149.50 587.10 149.06 587.09 C 145.59 587.02 141.98 586.63 139.40 584.03 C 139.50 583.39 139.70 582.12 139.80 581.48 Z" />
</g>
<g id="#1709032f">
<path fill="#170903" opacity="0.18" d=" M 292.42 582.89 C 295.49 581.96 298.59 581.15 301.67 580.29 C 301.53 580.82 301.25 581.89 301.11 582.42 C 295.68 584.57 289.92 585.71 284.15 586.54 C 280.63 586.89 278.70 590.20 276.44 592.49 C 274.77 592.09 273.12 591.47 271.39 591.51 C 270.40 592.25 269.60 593.20 268.66 594.00 C 266.81 593.16 265.14 591.95 263.23 591.28 C 261.27 592.68 259.62 594.65 257.19 595.24 C 254.28 596.08 251.27 597.17 249.61 599.90 C 249.28 600.33 248.62 601.17 248.29 601.59 C 245.51 601.52 242.69 601.15 239.95 601.77 C 233.41 603.45 226.48 602.68 220.04 600.95 C 220.26 602.07 220.48 603.18 220.70 604.31 C 217.78 602.37 214.74 600.23 211.03 600.66 C 213.03 599.75 215.24 599.42 217.44 599.57 C 225.19 599.97 233.18 600.05 240.63 597.55 C 244.53 596.02 249.13 597.36 252.58 594.60 C 257.16 592.52 261.30 588.61 266.59 588.89 C 269.28 588.11 272.03 587.65 274.80 587.27 C 278.34 586.82 281.38 584.58 284.97 584.33 C 287.49 584.06 290.01 583.69 292.42 582.89 Z" />
</g>
<g id="#9f1040e7">
<path fill="#9f1040" opacity="0.91" d=" M 129.06 583.15 C 131.06 582.81 133.07 582.50 135.08 582.16 C 135.82 582.05 137.32 581.82 138.07 581.71 C 136.99 582.72 135.91 583.76 135.12 585.03 C 135.55 586.65 136.25 588.18 136.88 589.73 C 135.72 589.80 134.56 589.85 133.39 589.85 C 131.40 589.71 129.41 589.51 127.43 589.27 C 127.55 587.51 127.67 585.75 127.80 584.00 L 127.85 583.34 L 129.06 583.15 Z" />
</g>
<g id="#c3185af7">
<path fill="#c3185a" opacity="0.97" d=" M 138.07 581.71 C 138.50 581.65 139.36 581.54 139.80 581.48 C 139.70 582.12 139.50 583.39 139.40 584.03 C 141.98 586.63 145.59 587.02 149.06 587.09 L 149.46 587.80 C 148.71 587.91 147.22 588.14 146.47 588.26 C 143.26 588.63 140.09 589.29 136.88 589.73 C 136.25 588.18 135.55 586.65 135.12 585.03 C 135.91 583.76 136.99 582.72 138.07 581.71 Z" />
</g>
<g id="#3213085c">
<path fill="#321308" opacity="0.36" d=" M 281.49 582.74 C 285.07 581.69 288.80 582.52 292.42 582.89 C 290.01 583.69 287.49 584.06 284.97 584.33 C 281.38 584.58 278.34 586.82 274.80 587.27 C 272.03 587.65 269.28 588.11 266.59 588.89 C 261.30 588.61 257.16 592.52 252.58 594.60 C 249.13 597.36 244.53 596.02 240.63 597.55 C 233.18 600.05 225.19 599.97 217.44 599.57 C 215.24 599.42 213.03 599.75 211.03 600.66 C 210.11 601.26 209.25 601.94 208.38 602.61 C 208.24 602.11 207.97 601.11 207.83 600.61 C 207.29 601.37 206.75 602.13 206.22 602.91 C 206.17 602.45 206.08 601.52 206.03 601.06 C 203.27 601.70 200.51 602.34 197.75 603.01 C 198.05 604.03 198.35 605.06 198.66 606.10 C 198.06 605.37 197.48 604.66 196.89 603.95 C 196.10 603.91 194.53 603.83 193.74 603.79 C 194.00 603.70 194.50 603.51 194.76 603.41 C 203.43 600.41 212.24 597.80 221.13 595.52 C 221.55 595.40 222.40 595.14 222.82 595.02 C 222.53 595.88 222.25 596.75 221.97 597.62 C 227.12 596.35 232.52 596.26 237.55 594.51 C 243.62 592.12 250.30 591.69 256.09 588.53 C 256.40 589.12 257.03 590.32 257.34 590.91 C 257.97 589.70 258.51 588.42 259.36 587.36 C 263.29 585.96 267.55 586.21 271.62 585.53 C 275.03 585.08 278.21 583.71 281.49 582.74 Z" />
</g>
<g id="#985419af">
<path fill="#985419" opacity="0.69" d=" M 225.66 586.38 C 232.96 585.09 240.27 583.90 247.54 582.45 C 249.50 583.14 251.45 583.90 253.42 584.60 C 247.55 586.38 241.60 587.86 235.59 589.09 C 234.98 588.69 233.76 587.90 233.15 587.50 C 226.16 588.20 219.27 589.90 212.21 589.85 C 216.61 588.40 221.13 587.34 225.66 586.38 Z" />
</g>
<g id="#7c0c32cf">
<path fill="#7c0c32" opacity="0.81" d=" M 120.88 587.25 C 122.88 585.57 125.32 584.69 127.80 584.00 C 127.67 585.75 127.55 587.51 127.43 589.27 C 129.41 589.51 131.40 589.71 133.39 589.85 C 131.81 590.53 130.23 591.24 128.74 592.14 C 128.45 591.81 127.88 591.17 127.59 590.84 C 127.29 591.17 126.68 591.82 126.37 592.15 C 125.81 590.76 124.18 586.51 122.38 588.92 C 121.88 588.35 121.38 587.80 120.88 587.25 Z" />
</g>
<g id="#a96b7fb6">
<path fill="#a96b7f" opacity="0.71" d=" M 150.80 587.13 C 151.20 586.85 151.98 586.27 152.38 585.98 L 152.95 586.65 C 152.41 586.77 151.34 587.01 150.80 587.13 Z" />
</g>
<g id="#5b321770">
<path fill="#5b3217" opacity="0.44" d=" M 177.86 589.82 C 182.57 588.18 187.43 587.05 192.33 586.20 C 192.46 586.93 192.72 588.39 192.85 589.12 C 188.01 591.49 182.54 591.98 177.66 594.20 C 175.87 594.73 174.07 595.22 172.28 595.72 C 172.78 594.91 173.28 594.11 173.78 593.32 C 171.76 593.06 169.73 592.81 167.72 592.52 C 166.38 591.48 164.97 589.85 163.06 590.41 C 159.84 591.31 156.69 593.14 153.25 591.92 L 152.60 591.74 C 156.71 590.87 160.79 589.87 164.87 588.89 C 169.18 589.17 173.57 591.37 177.86 589.82 Z" />
</g>
<g id="#fafa88fb">
<path fill="#fafa88" opacity="1.00" d=" M 196.54 589.04 C 200.73 588.10 204.88 587.00 209.03 585.91 C 208.80 586.43 208.35 587.45 208.13 587.97 C 213.79 586.23 219.76 584.98 225.66 586.38 C 221.13 587.34 216.61 588.40 212.21 589.85 C 211.36 590.07 210.52 590.30 209.67 590.52 C 202.53 590.79 195.80 593.33 188.85 594.72 C 186.76 594.96 184.68 595.27 182.61 595.60 C 182.46 595.06 182.16 593.99 182.01 593.45 C 186.99 592.49 191.80 590.80 196.54 589.04 Z" />
</g>
<g id="#26110743">
<path fill="#261107" opacity="0.26" d=" M 136.88 589.73 C 140.09 589.29 143.26 588.63 146.47 588.26 C 143.81 589.02 141.14 589.76 138.50 590.59 C 134.16 591.68 129.99 593.34 125.71 594.63 C 123.74 595.17 121.77 595.72 119.82 596.33 C 122.61 594.52 125.97 593.96 128.74 592.14 C 130.23 591.24 131.81 590.53 133.39 589.85 C 134.56 589.85 135.72 589.80 136.88 589.73 Z" />
<path fill="#261107" opacity="0.26" d=" M 144.34 593.83 C 151.68 596.33 159.41 591.95 166.65 594.75 C 166.57 595.45 166.42 596.84 166.35 597.54 C 163.08 598.62 159.75 599.48 156.44 600.42 C 156.44 599.93 156.45 598.95 156.45 598.46 C 151.32 596.56 145.65 596.73 140.49 594.84 C 141.78 594.52 143.06 594.18 144.34 593.83 Z" />
</g>
<g id="#f5edc9f9">
<path fill="#f5edc9" opacity="0.98" d=" M 146.47 588.26 C 147.22 588.14 148.71 587.91 149.46 587.80 C 150.20 589.33 151.09 590.83 152.60 591.74 L 153.25 591.92 C 150.21 592.16 147.25 592.96 144.34 593.83 C 143.06 594.18 141.78 594.52 140.49 594.84 C 137.61 595.52 134.70 596.09 131.82 596.82 C 131.24 596.97 130.09 597.26 129.51 597.41 C 131.47 593.96 135.48 592.84 138.50 590.59 C 141.14 589.76 143.81 589.02 146.47 588.26 Z" />
</g>
<g id="#3b1c0b55">
<path fill="#3b1c0b" opacity="0.33" d=" M 153.25 591.92 C 156.69 593.14 159.84 591.31 163.06 590.41 C 164.97 589.85 166.38 591.48 167.72 592.52 C 169.73 592.81 171.76 593.06 173.78 593.32 C 173.28 594.11 172.78 594.91 172.28 595.72 C 170.29 596.28 168.32 596.91 166.35 597.54 C 166.42 596.84 166.57 595.45 166.65 594.75 C 159.41 591.95 151.68 596.33 144.34 593.83 C 147.25 592.96 150.21 592.16 153.25 591.92 Z" />
</g>
<g id="#f8f096f9">
<path fill="#f8f096" opacity="0.98" d=" M 125.71 594.63 C 129.99 593.34 134.16 591.68 138.50 590.59 C 135.48 592.84 131.47 593.96 129.51 597.41 C 127.41 598.05 125.31 598.76 123.13 599.11 C 122.13 599.01 121.13 598.92 120.14 598.84 C 122.27 597.82 124.36 596.63 125.71 594.63 Z" />
<path fill="#f8f096" opacity="0.98" d=" M 277.44 603.87 C 284.49 601.95 291.58 600.23 298.68 598.54 C 298.63 599.56 298.57 600.58 298.52 601.61 C 299.99 602.17 301.46 602.72 302.95 603.22 C 298.42 604.23 293.89 605.31 289.33 606.17 C 285.34 605.66 281.10 605.78 277.44 603.87 Z" />
</g>
<g id="#f8f2aafa">
<path fill="#f8f2aa" opacity="0.98" d=" M 310.82 595.84 C 316.20 594.82 321.57 593.71 326.92 592.47 C 326.80 593.01 326.58 594.07 326.47 594.60 C 328.38 596.17 330.70 597.04 333.18 597.16 C 323.06 598.95 313.05 601.37 302.95 603.22 C 301.46 602.72 299.99 602.17 298.52 601.61 C 298.57 600.58 298.63 599.56 298.68 598.54 C 302.72 597.58 306.77 596.74 310.82 595.84 Z" />
</g>
<g id="#f6ef55f8">
<path fill="#f6ef55" opacity="0.97" d=" M 177.66 594.20 C 179.11 593.94 180.56 593.69 182.01 593.45 C 182.16 593.99 182.46 595.06 182.61 595.60 C 184.68 595.27 186.76 594.96 188.85 594.72 L 190.49 595.04 C 187.23 595.79 183.98 596.59 180.75 597.44 C 172.57 599.53 164.49 602.03 156.27 603.95 C 153.47 604.33 150.69 604.88 147.94 605.58 C 147.40 604.91 146.87 604.25 146.31 603.61 C 148.44 602.86 150.58 602.16 152.75 601.53 C 153.98 601.16 155.21 600.78 156.44 600.42 C 159.75 599.48 163.08 598.62 166.35 597.54 C 168.32 596.91 170.29 596.28 172.28 595.72 C 174.07 595.22 175.87 594.73 177.66 594.20 Z" />
</g>
<g id="#441c0f69">
<path fill="#441c0f" opacity="0.41" d=" M 197.58 594.11 C 197.80 594.05 198.24 593.94 198.46 593.88 C 202.85 594.14 207.25 594.66 211.48 595.89 C 208.40 596.96 205.34 598.10 202.23 599.09 C 200.68 597.43 199.13 595.76 197.58 594.11 Z" />
</g>
<g id="#d8c77de8">
<path fill="#d8c77d" opacity="0.91" d=" M 119.82 596.33 C 121.77 595.72 123.74 595.17 125.71 594.63 C 124.36 596.63 122.27 597.82 120.14 598.84 C 121.13 598.92 122.13 599.01 123.13 599.11 C 120.07 600.15 116.92 600.87 113.80 601.71 C 113.55 600.97 113.03 599.48 112.77 598.73 C 115.14 597.97 117.47 597.13 119.82 596.33 Z" />
</g>
<g id="#0f070326">
<path fill="#0f0703" opacity="0.15" d=" M 131.82 596.82 C 134.70 596.09 137.61 595.52 140.49 594.84 C 145.65 596.73 151.32 596.56 156.45 598.46 C 156.45 598.95 156.44 599.93 156.44 600.42 C 155.21 600.78 153.98 601.16 152.75 601.53 C 152.15 600.52 151.71 599.17 150.29 599.58 C 143.95 600.26 138.07 597.24 131.82 596.82 Z" />
</g>
<g id="#11080226">
<path fill="#110802" opacity="0.15" d=" M 190.49 595.04 C 191.82 594.90 193.14 594.75 194.47 594.57 C 195.26 596.58 196.07 598.60 196.88 600.61 C 193.89 601.46 191.02 602.66 188.18 603.93 C 186.72 603.59 185.30 603.70 183.93 604.25 C 183.10 602.66 182.47 600.99 182.10 599.24 C 181.76 598.79 181.09 597.89 180.75 597.44 C 183.98 596.59 187.23 595.79 190.49 595.04 Z" />
</g>
<g id="#2b12084f">
<path fill="#2b1208" opacity="0.31" d=" M 194.47 594.57 C 195.25 594.46 196.80 594.22 197.58 594.11 C 199.13 595.76 200.68 597.43 202.23 599.09 C 200.85 599.50 199.46 599.87 198.09 600.28 L 196.88 600.61 C 196.07 598.60 195.26 596.58 194.47 594.57 Z" />
</g>
<g id="#f7dc33fa">
<path fill="#f7dc33" opacity="0.98" d=" M 132.77 608.78 C 137.36 607.24 141.72 605.13 146.31 603.61 C 146.87 604.25 147.40 604.91 147.94 605.58 C 150.69 604.88 153.47 604.33 156.27 603.95 C 144.69 608.11 132.65 610.81 121.00 614.75 C 124.22 611.63 128.73 610.48 132.77 608.78 Z" />
</g>
<g id="#c89e3ad1">
<path fill="#c89e3a" opacity="0.82" d=" M 183.93 604.25 C 185.30 603.70 186.72 603.59 188.18 603.93 C 187.28 605.51 184.76 607.18 183.56 604.94 L 183.93 604.25 Z" />
</g>
<g id="#17090332">
<path fill="#170903" opacity="0.20" d=" M 199.50 603.70 C 201.07 603.90 202.66 604.16 204.24 604.41 C 203.75 604.62 202.77 605.03 202.28 605.24 C 202.35 605.74 202.50 606.74 202.57 607.24 C 201.09 606.47 199.74 605.48 199.50 603.70 Z" />
</g>
<g id="#f0dc7ef2">
<path fill="#f0dc7e" opacity="0.95" d=" M 271.54 605.51 C 273.48 604.89 275.45 604.33 277.44 603.87 C 281.10 605.78 285.34 605.66 289.33 606.17 C 286.61 606.93 283.84 607.53 281.06 608.04 C 277.98 608.49 274.88 608.80 271.79 609.15 C 271.73 608.24 271.60 606.42 271.54 605.51 Z" />
</g>
<g id="#dbba54e2">
<path fill="#dbba54" opacity="0.89" d=" M 239.15 614.65 C 250.04 611.96 260.72 608.48 271.54 605.51 C 271.60 606.42 271.73 608.24 271.79 609.15 C 274.88 608.80 277.98 608.49 281.06 608.04 C 271.41 610.30 261.67 612.18 252.06 614.63 C 249.58 615.19 247.14 616.02 244.58 616.14 C 242.77 615.66 240.97 615.10 239.15 614.65 Z" />
</g>
<g id="#e1b136e3">
<path fill="#e1b136" opacity="0.89" d=" M 200.89 626.78 C 213.55 622.45 226.22 618.09 239.15 614.65 C 240.97 615.10 242.77 615.66 244.58 616.14 L 245.02 616.26 C 230.38 620.04 215.70 623.74 200.89 626.78 Z" />
</g>
<g id="#604d3882">
<path fill="#604d38" opacity="0.51" d=" M 160.22 621.28 C 160.77 621.81 160.77 621.81 160.22 621.28 Z" />
</g>
</svg>
