<?xml version="1.0" encoding="UTF-8" ?>
<!DOCTYPE svg PUBLIC "-//W3C//DTD SVG 1.1//EN" "http://www.w3.org/Graphics/SVG/1.1/DTD/svg11.dtd">
<svg width="1250pt" height="1250pt" viewBox="0 0 1250 1250" version="1.1" xmlns="http://www.w3.org/2000/svg">
<g id="#ffffffff">
</g>
<g id="#000000ff">
<path fill="#000000" opacity="1.00" d=" M 623.00 357.02 C 625.66 354.76 628.16 351.56 632.02 351.72 C 636.22 351.92 639.00 355.49 642.02 357.97 C 700.17 408.16 758.27 458.42 816.43 508.61 C 818.92 510.57 819.40 513.97 819.28 516.95 C 819.14 521.25 819.52 525.57 819.05 529.85 C 817.47 534.19 811.75 533.70 808.06 533.14 C 802.61 531.50 804.09 524.31 803.89 519.94 C 804.52 517.34 801.76 516.23 800.24 514.76 C 744.08 466.30 688.00 417.76 631.84 369.31 C 596.23 400.87 560.15 431.93 524.40 463.35 C 521.30 465.74 518.83 469.25 514.86 470.26 C 510.06 471.34 505.43 466.82 505.67 462.08 C 505.71 436.60 505.62 411.12 505.72 385.65 C 498.24 385.60 490.76 385.67 483.28 385.61 C 483.39 420.75 483.27 455.90 483.34 491.04 C 483.39 494.03 483.01 497.48 480.51 499.50 C 474.80 504.44 469.81 510.13 464.21 515.18 C 463.31 516.05 462.31 516.89 461.89 518.10 C 461.60 522.19 461.96 526.35 461.21 530.41 C 459.21 534.25 453.77 533.73 450.20 532.95 C 446.96 532.53 446.28 528.76 446.53 526.07 C 446.94 521.74 446.38 517.36 446.99 513.05 C 447.50 509.50 450.75 507.45 452.98 504.98 C 457.93 499.83 463.25 495.05 468.27 489.97 C 468.23 453.31 468.29 416.65 468.24 379.99 C 468.26 377.60 468.30 374.93 470.00 373.05 C 472.00 370.89 475.14 370.40 477.95 370.48 C 489.88 370.60 501.83 370.36 513.76 370.60 C 518.13 370.67 521.13 374.76 521.07 378.92 C 521.26 401.20 521.04 423.50 521.18 445.78 C 555.26 416.36 589.00 386.55 623.00 357.02 Z" />
<path fill="#000000" opacity="1.00" d=" M 646.46 581.91 C 655.44 580.75 664.86 581.20 673.33 584.63 C 679.15 587.24 685.12 591.52 686.67 598.08 C 688.64 603.83 686.04 610.87 680.42 613.47 C 676.88 615.01 672.29 616.71 668.79 614.18 C 666.95 612.12 667.20 609.09 666.79 606.52 C 666.83 601.54 665.49 595.87 661.15 592.90 C 654.42 589.30 644.39 592.05 641.84 599.69 C 639.96 606.44 640.10 615.18 646.22 619.79 C 657.30 627.91 671.34 631.12 681.85 640.15 C 695.65 652.49 694.28 677.44 679.29 688.27 C 673.77 692.56 666.85 694.33 660.05 695.32 C 648.74 695.94 636.17 695.57 626.95 688.07 C 619.77 682.91 616.57 672.85 619.78 664.56 C 621.15 660.77 624.73 658.29 628.53 657.39 C 631.54 656.02 635.53 656.64 637.24 659.69 C 638.23 666.94 637.87 675.13 642.97 681.03 C 649.68 688.11 663.38 686.65 668.30 678.16 C 671.46 671.16 671.64 661.10 664.76 656.22 C 653.18 647.73 638.00 644.76 628.04 633.96 C 622.38 628.19 619.98 619.93 620.17 611.99 C 620.14 604.15 622.36 595.76 628.42 590.40 C 633.17 585.45 639.85 583.09 646.46 581.91 Z" />
<path fill="#000000" opacity="1.00" d=" M 1123.10 585.00 C 1134.07 580.87 1146.02 580.78 1157.55 581.87 C 1165.49 583.05 1173.93 585.33 1179.53 591.48 C 1184.21 596.62 1184.73 604.86 1180.39 610.39 C 1177.01 614.71 1171.14 615.63 1166.03 616.23 C 1161.85 616.16 1160.68 611.37 1160.87 608.00 C 1160.89 602.23 1159.33 595.07 1153.35 592.71 C 1147.35 590.66 1140.64 591.14 1134.63 592.90 C 1127.75 594.90 1123.05 601.19 1120.85 607.75 C 1116.42 620.69 1117.66 634.54 1117.44 647.98 C 1118.17 658.66 1119.60 670.52 1127.47 678.53 C 1135.85 686.35 1148.42 686.21 1159.03 684.41 C 1159.37 674.26 1159.10 664.09 1159.19 653.94 C 1159.47 651.35 1157.65 648.25 1154.78 648.52 C 1152.08 648.51 1148.39 648.53 1147.18 645.60 C 1144.85 642.20 1148.17 637.62 1151.97 637.66 C 1163.00 637.57 1174.03 637.68 1185.06 637.61 C 1187.71 637.53 1190.93 638.12 1192.44 640.57 C 1193.06 642.76 1193.11 645.60 1191.11 647.11 C 1188.86 648.48 1186.20 648.51 1183.68 648.69 C 1183.20 650.07 1182.45 651.42 1182.52 652.93 C 1182.47 663.26 1182.56 673.59 1182.50 683.93 C 1182.67 686.18 1180.91 688.08 1178.99 688.96 C 1171.44 692.47 1163.22 694.22 1155.02 695.32 C 1145.34 695.66 1135.47 695.84 1126.16 692.75 C 1113.82 688.95 1103.22 679.69 1098.17 667.76 C 1090.51 649.76 1090.23 628.71 1097.50 610.54 C 1102.06 599.00 1111.51 589.48 1123.10 585.00 Z" />
<path fill="#000000" opacity="1.00" d=" M 58.99 591.88 C 55.99 589.45 57.12 584.71 59.90 582.55 C 84.62 582.65 109.34 582.50 134.07 582.62 C 137.00 582.58 138.08 585.84 138.22 588.26 C 138.78 596.70 138.90 605.19 138.62 613.63 C 136.90 617.74 130.35 617.50 128.98 613.23 C 128.10 608.12 128.83 602.57 126.24 597.87 C 124.89 595.13 121.85 593.68 118.94 593.35 C 110.78 592.27 102.52 592.99 94.32 592.80 C 94.23 605.44 94.36 618.08 94.24 630.73 C 103.86 630.65 113.47 630.70 123.08 630.68 C 125.58 630.77 129.01 631.27 129.77 634.14 C 131.13 636.44 129.72 639.55 127.27 640.39 C 124.67 641.55 121.78 641.25 119.01 641.28 C 110.77 641.25 102.53 641.26 94.28 641.28 C 94.29 655.42 94.30 669.57 94.28 683.71 C 102.86 683.72 111.43 683.68 120.01 683.77 C 124.04 683.70 128.75 682.67 131.06 679.03 C 133.38 674.84 133.32 669.87 133.59 665.22 C 133.68 662.54 136.10 659.84 138.92 660.25 C 141.97 659.84 143.82 663.31 143.72 665.96 C 143.62 672.62 143.09 679.28 143.31 685.96 C 143.37 689.79 141.69 694.60 137.04 694.27 C 112.33 694.35 87.62 694.34 62.91 694.28 C 59.46 694.49 57.61 691.75 56.52 688.91 C 57.30 687.56 57.85 686.03 59.02 684.97 C 62.26 683.30 66.36 684.58 69.31 682.28 C 70.68 680.90 70.64 678.81 70.75 677.02 C 70.75 651.03 70.75 625.03 70.75 599.04 C 70.65 597.31 70.73 595.10 69.02 594.09 C 65.99 592.36 62.08 593.42 58.99 591.88 Z" />
<path fill="#000000" opacity="1.00" d=" M 194.86 587.85 C 195.42 585.84 196.59 584.12 197.98 582.61 C 201.60 582.68 205.25 582.29 208.84 582.80 C 210.31 583.82 211.37 585.30 211.95 586.99 C 222.41 614.44 233.07 641.80 243.60 669.21 C 245.48 674.02 247.02 679.00 249.56 683.52 C 252.00 683.90 254.85 683.52 256.93 685.06 C 259.66 688.44 257.62 694.07 253.06 694.25 C 241.02 694.43 228.97 694.25 216.92 694.33 C 214.32 694.34 210.83 693.68 210.13 690.72 C 208.79 688.11 210.66 684.97 213.14 683.89 C 216.46 683.61 219.79 683.85 223.11 683.54 C 223.74 679.65 221.65 676.12 220.44 672.58 C 218.34 667.29 216.86 661.76 214.34 656.65 C 203.53 656.82 192.73 656.66 181.92 656.74 C 180.03 661.67 178.46 666.73 176.71 671.71 C 175.49 675.22 173.67 678.72 174.20 682.56 C 178.84 684.68 184.06 682.87 188.73 684.35 C 193.79 685.81 192.15 694.26 187.05 694.25 C 176.69 694.44 166.31 694.23 155.95 694.34 C 153.46 694.42 150.52 694.24 148.87 692.11 C 146.86 689.80 147.81 685.76 150.65 684.62 C 153.33 682.94 156.61 684.34 159.43 683.36 C 162.65 681.57 163.44 677.65 164.72 674.51 C 174.84 645.64 184.81 616.73 194.86 587.85 M 185.35 646.56 C 193.77 646.75 202.23 646.94 210.64 646.46 C 206.39 634.94 201.91 623.50 197.75 611.95 C 193.11 623.27 189.47 635.02 185.35 646.56 Z" />
<path fill="#000000" opacity="1.00" d=" M 262.24 590.59 C 260.71 587.85 261.94 584.68 264.01 582.63 C 279.34 582.52 294.68 582.61 310.02 582.58 C 318.13 583.57 326.69 584.67 333.56 589.49 C 341.33 594.53 346.01 603.71 345.73 612.95 C 346.04 619.74 344.62 626.86 340.30 632.28 C 336.69 637.41 331.03 640.44 325.46 643.00 C 330.66 651.58 336.28 659.89 341.59 668.41 C 344.81 673.13 347.61 678.25 351.82 682.19 C 353.67 684.03 356.58 683.87 358.63 685.39 C 360.63 687.54 359.99 691.06 358.16 693.12 C 355.47 694.83 352.15 694.31 349.13 694.27 C 343.15 693.66 336.79 693.65 331.45 690.53 C 327.02 688.04 324.24 683.65 321.50 679.54 C 314.78 668.90 308.14 658.21 301.40 647.59 C 300.78 646.57 299.48 646.36 298.52 645.81 C 298.44 656.85 298.33 667.89 298.57 678.92 C 298.34 682.36 302.04 684.18 305.05 683.75 C 308.44 683.32 311.99 685.37 312.37 688.98 C 311.57 691.50 310.10 694.28 307.06 694.26 C 293.69 694.35 280.32 694.37 266.96 694.26 C 262.57 694.56 259.88 689.07 262.67 685.77 C 265.82 682.70 270.87 684.96 274.04 682.02 C 274.89 680.52 275.30 678.79 275.24 677.08 C 275.21 651.02 275.23 624.96 275.23 598.91 C 275.43 596.35 273.81 593.21 270.92 593.30 C 268.03 592.53 264.12 593.46 262.24 590.59 M 298.43 592.90 C 298.45 607.20 298.47 621.49 298.42 635.79 C 303.91 635.61 309.87 636.80 314.87 633.89 C 319.47 631.45 320.90 625.84 321.39 621.06 C 321.34 613.13 322.55 604.27 317.49 597.48 C 312.72 592.21 304.91 592.74 298.43 592.90 Z" />
<path fill="#000000" opacity="1.00" d=" M 360.70 587.07 C 361.19 585.08 362.49 582.36 364.93 582.60 C 391.31 582.54 417.69 582.62 444.07 582.56 C 445.56 582.59 447.25 582.33 448.36 583.62 C 450.66 586.11 450.45 589.78 450.55 592.95 C 450.33 599.28 450.73 605.61 450.77 611.94 C 451.21 616.02 445.28 618.13 442.51 615.50 C 439.88 613.51 440.93 609.85 440.48 607.04 C 440.14 602.23 439.13 596.07 433.98 594.15 C 428.62 592.35 422.83 592.84 417.27 592.82 C 417.10 621.54 417.30 650.26 417.17 678.98 C 417.02 680.29 417.55 681.57 418.57 682.43 C 421.51 684.87 425.87 682.76 428.88 685.16 C 430.93 686.47 430.98 689.20 430.43 691.32 C 429.12 693.47 426.50 694.44 424.07 694.33 C 411.69 694.31 399.31 694.31 386.93 694.33 C 384.49 694.36 381.70 693.81 380.41 691.51 C 380.07 689.86 379.95 688.10 380.47 686.50 C 383.52 681.87 391.03 685.96 393.39 680.52 C 393.96 677.72 393.63 674.83 393.71 672.00 C 393.67 645.63 393.76 619.27 393.66 592.91 C 388.11 592.73 382.35 592.48 376.99 594.08 C 370.27 596.68 370.62 605.04 370.16 611.00 C 370.67 614.70 366.30 618.14 362.97 616.10 C 360.36 615.42 359.41 612.50 359.82 610.07 C 360.71 602.43 359.85 594.72 360.70 587.07 Z" />
<path fill="#000000" opacity="1.00" d=" M 457.76 589.38 C 456.65 586.82 458.47 584.49 459.98 582.61 C 474.34 582.56 488.70 582.57 503.06 582.59 C 506.01 582.13 507.41 585.05 508.68 587.14 C 507.72 589.32 507.05 592.75 504.01 592.63 C 501.27 593.30 497.87 592.52 495.71 594.69 C 494.50 595.77 494.58 597.48 494.51 598.97 C 494.49 609.72 494.55 620.47 494.49 631.23 C 506.94 631.34 519.39 631.24 531.84 631.28 C 531.81 619.59 531.97 607.88 531.79 596.19 C 529.63 590.57 521.17 595.23 518.57 589.89 C 518.03 587.14 518.52 582.90 522.05 582.69 C 535.03 582.41 548.03 582.68 561.03 582.56 C 563.41 582.63 566.13 582.18 568.07 583.96 C 568.89 585.94 569.28 588.35 568.44 590.39 C 566.47 593.52 562.27 592.58 559.18 593.35 C 556.70 593.28 555.07 595.75 555.37 598.05 C 555.38 625.01 555.33 651.98 555.40 678.94 C 555.23 681.93 558.36 683.93 561.10 683.73 C 564.38 683.56 569.27 684.81 568.89 689.01 C 569.35 692.24 565.95 694.33 563.10 694.31 C 550.38 694.34 537.65 694.30 524.93 694.33 C 522.67 694.38 520.31 693.55 518.87 691.76 C 517.97 689.39 518.14 685.97 520.78 684.79 C 523.75 682.97 527.68 684.71 530.46 682.47 C 531.52 681.64 532.02 680.32 531.90 679.01 C 531.85 666.42 531.79 653.82 531.92 641.23 C 519.44 641.27 506.97 641.23 494.50 641.25 C 494.58 653.81 494.43 666.37 494.57 678.92 C 494.29 682.31 498.10 684.15 501.05 683.75 C 504.13 683.44 507.50 684.90 508.41 688.08 C 508.35 691.44 505.71 694.77 502.08 694.32 C 488.77 694.18 475.42 694.59 462.12 694.11 C 457.67 694.17 455.78 687.64 459.25 685.12 C 462.70 683.30 466.95 684.36 470.28 682.12 C 470.73 679.78 471.40 677.46 471.32 675.06 C 471.29 650.01 471.31 624.97 471.31 599.92 C 471.46 597.16 470.40 593.39 467.07 593.29 C 463.89 592.46 458.67 593.60 457.76 589.38 Z" />
<path fill="#000000" opacity="1.00" d=" M 742.31 591.27 C 743.43 588.27 743.98 584.43 747.05 582.73 C 750.35 582.46 753.69 582.45 757.00 582.73 C 760.69 584.50 761.03 589.19 762.68 592.51 C 772.87 618.92 783.00 645.34 793.22 671.73 C 794.89 675.68 796.02 679.88 798.32 683.55 C 800.63 683.77 803.08 683.73 805.23 684.78 C 806.70 686.47 806.79 688.82 806.48 690.95 C 805.39 693.36 802.57 694.42 800.07 694.33 C 788.69 694.32 777.31 694.30 765.94 694.34 C 763.89 694.40 761.87 693.95 760.03 693.10 C 757.37 690.38 758.01 684.87 762.01 683.84 C 765.25 683.65 768.52 683.85 771.76 683.48 C 771.73 681.31 771.71 679.08 770.83 677.06 C 768.27 670.27 765.81 663.44 763.10 656.71 C 752.34 656.71 741.57 656.75 730.81 656.69 C 727.70 665.05 724.10 673.34 722.32 682.11 C 727.39 685.37 733.87 682.00 738.84 685.19 C 742.53 688.10 739.60 694.61 735.05 694.29 C 725.02 694.39 714.99 694.26 704.96 694.34 C 703.37 694.25 701.70 694.52 700.20 693.93 C 696.37 692.90 695.01 686.80 698.81 684.82 C 702.13 682.30 707.26 685.55 709.91 681.87 C 712.59 678.39 713.48 673.96 714.99 669.91 C 724.10 643.70 733.23 617.49 742.31 591.27 M 734.02 646.67 C 742.47 646.75 750.93 646.74 759.39 646.67 C 755.00 635.02 750.74 623.33 746.27 611.72 C 741.96 623.28 738.15 635.03 734.02 646.67 Z" />
<path fill="#000000" opacity="1.00" d=" M 805.29 590.56 C 803.80 587.83 805.05 584.74 807.02 582.65 C 821.02 582.53 835.03 582.54 849.03 582.64 C 852.71 582.97 853.43 587.51 852.44 590.43 C 849.63 594.13 844.25 592.29 840.30 593.57 C 843.76 606.25 848.66 618.50 852.88 630.95 C 856.08 641.15 860.11 651.07 863.21 661.30 C 865.61 655.97 866.89 650.24 868.79 644.74 C 873.32 631.56 877.38 618.24 881.86 605.05 C 883.06 601.31 884.51 597.58 884.64 593.61 C 880.16 592.40 875.53 592.96 870.98 592.70 C 867.57 592.83 865.25 588.11 867.07 585.39 C 867.95 583.14 870.71 582.46 872.91 582.52 C 883.30 582.53 893.69 582.52 904.08 582.52 C 906.25 582.44 908.93 583.23 909.79 585.46 C 911.47 587.72 909.63 590.75 907.84 592.36 C 903.95 593.49 897.93 591.30 896.13 596.22 C 891.86 606.06 889.27 616.55 885.68 626.66 C 878.50 648.15 871.60 669.74 864.29 691.18 C 863.24 694.11 859.70 694.33 857.06 694.37 C 854.17 694.45 850.57 693.63 849.71 690.44 C 839.47 661.29 829.24 632.14 818.93 603.01 C 817.80 599.94 817.21 596.53 815.10 593.94 C 812.13 592.09 807.50 593.84 805.29 590.56 Z" />
<path fill="#000000" opacity="1.00" d=" M 914.19 589.77 C 912.49 586.70 915.25 581.95 918.91 582.57 C 933.26 582.65 947.62 582.46 961.98 582.67 C 963.30 584.76 965.35 587.16 963.86 589.74 C 962.23 594.21 956.31 592.02 952.95 593.93 C 951.20 594.93 950.66 597.03 950.73 598.92 C 950.71 624.97 950.75 651.02 950.71 677.07 C 950.69 678.78 950.77 680.63 951.87 682.07 C 955.04 684.90 960.05 682.82 963.22 685.76 C 966.03 688.98 963.25 694.35 959.04 694.22 C 947.70 694.46 936.35 694.23 925.00 694.33 C 921.92 694.28 918.64 694.71 915.82 693.21 C 912.85 691.13 912.89 685.64 916.77 684.62 C 920.49 683.23 927.19 684.73 927.49 679.03 C 927.63 652.01 927.55 624.98 927.53 597.96 C 927.71 595.40 925.64 593.16 923.08 593.23 C 920.07 592.47 915.38 593.50 914.19 589.77 Z" />
<path fill="#000000" opacity="1.00" d=" M 974.68 591.38 C 972.42 588.57 973.59 584.88 976.00 582.62 C 986.02 582.57 996.05 582.54 1006.09 582.62 C 1007.77 582.46 1008.95 583.94 1009.88 585.14 C 1025.30 608.08 1040.39 631.27 1056.01 654.07 C 1056.39 635.69 1056.07 617.29 1056.18 598.91 C 1056.33 596.45 1054.94 593.38 1052.18 593.24 C 1048.93 592.45 1045.42 593.25 1042.29 592.00 C 1039.19 589.58 1040.19 584.88 1042.96 582.60 C 1054.65 582.61 1066.35 582.50 1078.04 582.64 C 1083.67 582.45 1083.68 592.69 1077.98 592.64 C 1074.03 593.04 1067.18 591.71 1066.42 597.20 C 1066.03 627.80 1066.47 658.43 1066.20 689.04 C 1066.05 695.62 1055.72 696.01 1053.07 690.93 C 1035.09 664.17 1017.30 637.28 999.34 610.51 C 999.33 632.36 999.36 654.21 999.32 676.06 C 999.37 678.15 999.31 680.53 1000.75 682.23 C 1004.59 685.27 1009.90 682.47 1014.03 684.79 C 1016.62 687.98 1015.41 693.56 1010.95 694.14 C 1002.99 694.58 994.98 694.18 987.01 694.32 C 983.21 694.17 979.22 694.91 975.64 693.34 C 972.80 691.53 972.47 686.13 975.96 684.80 C 978.70 683.30 981.84 683.90 984.83 683.68 C 987.54 683.50 989.58 680.70 989.31 678.07 C 989.29 651.36 989.30 624.66 989.30 597.95 C 989.55 596.22 988.47 594.76 987.15 593.81 C 983.21 592.00 978.31 593.90 974.68 591.38 Z" />
<path fill="#000000" opacity="1.00" d=" M 340.48 724.50 C 349.58 718.08 363.72 719.24 370.72 728.27 C 373.52 732.02 376.01 737.18 374.06 741.82 C 371.57 743.88 367.90 744.83 364.92 743.27 C 363.25 739.30 362.16 734.19 357.59 732.56 C 354.15 732.17 349.94 731.59 347.19 734.19 C 344.86 736.24 344.37 740.96 347.83 742.15 C 355.77 745.67 365.30 745.08 372.39 750.63 C 381.82 757.37 379.92 773.62 370.04 779.04 C 361.11 784.11 349.36 783.79 340.72 778.24 C 335.32 774.34 331.02 768.01 331.28 761.15 C 331.04 756.90 336.81 755.35 339.98 757.01 C 342.13 757.70 342.21 760.31 343.00 762.10 C 344.26 766.82 348.72 770.69 353.68 770.74 C 357.59 770.89 362.20 771.23 365.12 768.09 C 367.18 766.46 366.57 763.69 366.69 761.41 C 358.80 754.58 346.69 757.10 338.70 750.31 C 330.80 743.79 332.66 730.31 340.48 724.50 Z" />
<path fill="#000000" opacity="1.00" d=" M 425.46 720.77 C 435.80 719.41 447.49 722.41 454.24 730.80 C 459.11 736.37 460.60 743.85 461.42 750.99 C 460.95 759.42 458.71 768.36 452.35 774.35 C 439.83 786.10 417.08 785.40 406.01 771.99 C 396.83 759.98 397.12 741.49 406.97 729.95 C 411.62 724.57 418.55 721.76 425.46 720.77 M 424.40 732.63 C 419.23 733.93 414.77 737.76 412.78 742.71 C 410.98 746.85 411.02 751.50 411.52 755.91 C 412.38 763.01 418.13 769.29 425.19 770.56 C 430.34 770.78 435.99 771.46 440.58 768.58 C 452.54 761.66 452.53 741.35 440.55 734.46 C 435.72 731.50 429.77 732.13 424.40 732.63 Z" />
<path fill="#000000" opacity="1.00" d=" M 744.43 720.67 C 754.28 719.60 765.24 722.36 771.94 730.05 C 781.91 741.70 782.06 760.54 772.44 772.45 C 761.23 785.45 738.99 785.91 726.53 774.45 C 715.89 763.72 714.95 745.51 722.92 732.99 C 727.70 725.76 735.95 721.57 744.43 720.67 M 742.48 732.72 C 733.60 734.81 728.58 744.38 729.56 753.04 C 729.38 761.34 735.63 769.60 744.07 770.60 C 748.96 770.75 754.33 771.40 758.70 768.67 C 770.45 762.00 770.86 742.69 759.88 735.11 C 754.88 731.47 748.27 732.00 742.48 732.72 Z" />
<path fill="#000000" opacity="1.00" d=" M 890.48 720.74 C 897.42 719.62 905.24 721.61 910.01 726.99 C 913.02 730.23 915.17 734.54 915.32 738.99 C 915.30 742.92 911.08 743.85 908.00 744.29 C 903.39 743.32 904.29 737.43 901.20 734.79 C 898.82 731.73 894.64 732.10 891.22 732.44 C 887.72 732.67 885.08 736.45 885.82 739.82 C 887.47 742.77 891.20 743.23 894.16 744.11 C 901.50 745.86 909.88 746.78 915.16 752.84 C 919.36 756.90 919.21 763.27 918.36 768.62 C 916.81 775.12 910.96 780.04 904.56 781.50 C 897.59 783.50 889.91 782.84 883.44 779.57 C 876.94 776.09 872.17 769.37 871.54 761.97 C 870.86 756.64 878.68 754.62 881.86 758.08 C 883.42 761.41 883.87 765.54 887.00 767.94 C 890.83 771.30 896.24 771.06 900.98 770.54 C 905.62 770.11 909.70 763.87 905.75 760.19 C 897.77 755.08 887.03 756.56 879.44 750.55 C 872.84 745.58 872.93 735.44 876.90 728.86 C 879.82 724.16 885.11 721.49 890.48 720.74 Z" />
<path fill="#000000" opacity="1.00" d=" M 486.96 722.99 C 489.11 721.95 491.77 722.01 494.03 722.79 C 496.28 724.36 496.74 727.36 496.67 729.93 C 496.61 743.11 496.70 756.28 496.62 769.46 C 504.89 769.62 513.20 769.10 521.46 769.73 C 525.84 772.05 525.16 780.53 519.66 780.63 C 509.83 780.96 499.98 780.77 490.15 780.73 C 487.37 780.99 484.69 778.96 484.79 776.04 C 484.57 760.68 484.79 745.32 484.68 729.96 C 484.72 727.52 484.49 724.38 486.96 722.99 Z" />
<path fill="#000000" opacity="1.00" d=" M 550.39 722.25 C 553.41 721.69 557.28 723.43 557.18 726.92 C 557.32 738.23 557.12 749.54 557.25 760.85 C 557.34 765.61 561.03 770.62 566.07 770.67 C 569.44 770.62 573.33 771.42 576.23 769.25 C 578.91 767.38 580.71 764.24 580.72 760.95 C 580.83 749.61 580.65 738.26 580.79 726.92 C 580.73 720.48 592.52 720.62 592.39 726.94 C 592.48 736.62 592.37 746.31 592.43 756.00 C 592.73 761.79 592.09 767.90 588.95 772.92 C 581.45 784.34 563.80 785.46 553.30 777.71 C 547.96 773.56 545.45 766.63 545.53 760.01 C 545.58 748.99 545.48 737.97 545.57 726.95 C 545.21 724.28 547.98 722.38 550.39 722.25 Z" />
<path fill="#000000" opacity="1.00" d=" M 618.32 722.37 C 629.21 722.01 640.14 722.36 651.05 722.21 C 653.59 722.29 656.37 721.92 658.71 723.17 C 662.05 725.86 661.08 733.76 655.92 733.49 C 651.66 733.67 647.41 733.51 643.15 733.55 C 643.03 747.70 643.28 761.87 643.03 776.01 C 643.25 782.61 630.92 782.41 631.43 775.93 C 631.36 761.80 631.47 747.68 631.38 733.56 C 626.43 733.44 621.46 733.85 616.53 733.29 C 612.09 731.02 612.76 722.44 618.32 722.37 Z" />
<path fill="#000000" opacity="1.00" d=" M 685.53 722.67 C 689.03 721.37 694.08 722.70 694.18 727.10 C 694.53 742.41 694.19 757.74 694.34 773.06 C 694.34 775.66 694.11 779.17 691.30 780.30 C 688.79 781.02 685.73 781.05 683.64 779.30 C 682.41 777.46 682.33 775.18 682.33 773.06 C 682.38 758.36 682.34 743.67 682.35 728.98 C 682.41 726.61 682.71 723.28 685.53 722.67 Z" />
<path fill="#000000" opacity="1.00" d=" M 803.16 727.01 C 802.86 724.68 804.83 722.49 807.13 722.39 C 810.20 722.04 814.31 721.69 816.12 724.83 C 823.25 735.78 829.86 747.08 837.18 757.91 C 837.48 747.33 837.05 736.75 837.39 726.18 C 837.63 721.86 843.25 721.72 846.42 722.70 C 848.68 724.28 849.00 727.37 849.17 729.91 C 849.16 744.30 849.16 758.69 849.17 773.08 C 849.03 775.63 848.65 778.67 846.45 780.31 C 842.98 780.92 837.97 781.81 835.87 778.19 C 828.69 767.28 822.09 755.99 814.86 745.12 C 814.31 755.94 815.02 766.80 814.50 777.62 C 812.84 782.51 802.73 781.91 803.16 776.00 C 803.14 759.67 803.13 743.34 803.16 727.01 Z" />
<path fill="#000000" opacity="1.00" d=" M 459.46 819.55 C 462.78 819.16 466.20 819.10 469.52 819.61 C 472.12 820.45 472.29 823.63 472.28 825.93 C 472.24 844.82 472.30 863.72 472.25 882.62 C 579.53 882.57 686.82 882.63 794.10 882.59 C 793.68 864.71 794.00 846.83 793.87 828.95 C 793.88 826.17 793.77 823.04 795.67 820.80 C 798.03 818.26 801.89 819.61 804.95 819.32 C 808.01 818.94 809.86 822.36 809.72 825.04 C 809.78 846.04 809.70 867.04 809.76 888.04 C 809.72 890.68 809.77 893.71 807.73 895.71 C 806.11 897.66 803.46 898.10 801.07 898.16 C 691.05 898.18 581.03 898.16 471.00 898.18 C 467.79 898.12 464.51 898.46 461.38 897.58 C 458.02 896.24 456.48 892.48 456.67 889.06 C 456.69 867.69 456.65 846.32 456.70 824.95 C 456.61 822.81 457.58 820.64 459.46 819.55 Z" />
</g>
</svg>
