<?xml version="1.0" encoding="UTF-8" ?>
<!DOCTYPE svg PUBLIC "-//W3C//DTD SVG 1.1//EN" "http://www.w3.org/Graphics/SVG/1.1/DTD/svg11.dtd">
<svg width="1024pt" height="1024pt" viewBox="0 0 1024 1024" version="1.1" xmlns="http://www.w3.org/2000/svg">
<g id="#000614ff">
</g>
<g id="#02a5d1ff">
<path fill="#02a5d1" opacity="1.00" d=" M 318.10 176.67 C 330.02 177.97 342.00 176.27 353.95 177.08 C 371.29 176.48 388.64 177.24 405.98 176.90 C 421.97 176.99 437.96 176.70 453.95 176.92 C 459.27 177.30 464.62 177.16 469.95 176.88 C 484.97 176.98 500.00 176.89 515.03 176.85 C 525.35 177.38 535.68 176.39 546.00 177.09 C 577.00 176.59 608.02 176.98 639.03 176.85 C 654.00 177.51 668.97 176.93 683.94 176.82 C 684.29 225.87 684.00 274.93 684.10 323.98 C 684.11 384.65 684.08 445.32 684.08 505.99 C 684.03 516.88 684.25 527.77 683.90 538.66 C 623.30 538.69 562.70 538.62 502.09 538.69 C 502.11 534.86 502.10 531.03 502.20 527.20 C 511.81 527.23 521.41 527.33 531.01 527.01 C 545.66 527.25 560.32 527.39 574.97 526.93 C 589.31 527.67 603.67 526.44 618.01 527.11 C 629.98 526.71 641.96 526.91 653.94 526.89 C 659.93 527.38 665.93 527.01 671.92 526.81 C 672.03 414.26 671.98 301.71 671.93 189.16 C 558.02 189.25 444.11 189.09 330.20 189.23 C 329.92 270.17 330.16 351.11 330.08 432.05 C 326.03 432.03 321.98 432.03 317.93 432.01 C 317.92 356.37 317.95 280.72 317.94 205.07 C 318.04 195.61 317.72 186.13 318.10 176.67 Z" />
<path fill="#02a5d1" opacity="1.00" d=" M 465.44 300.27 C 475.61 300.23 485.78 300.23 495.95 300.18 C 503.84 300.32 512.46 300.95 518.84 306.13 C 525.09 311.08 528.25 319.16 528.14 327.02 C 528.05 335.72 529.21 344.98 525.09 353.01 C 522.60 357.92 517.74 360.93 512.80 362.94 C 518.96 364.38 525.52 367.69 527.67 374.09 C 530.49 383.09 529.84 392.69 529.74 401.99 C 529.45 411.14 526.55 421.25 518.60 426.65 C 510.90 432.07 501.03 432.28 491.98 432.02 C 483.13 432.01 474.29 432.10 465.45 431.96 C 465.56 388.07 465.56 344.17 465.44 300.27 M 481.34 314.39 C 481.42 328.12 481.39 341.84 481.34 355.57 C 488.98 355.43 496.88 356.70 504.28 354.29 C 509.40 352.14 511.01 346.18 511.62 341.16 C 512.16 334.87 512.36 328.36 510.54 322.24 C 509.33 318.33 505.64 315.57 501.66 314.98 C 494.96 313.80 488.11 314.52 481.34 314.39 M 481.28 370.05 C 481.27 385.92 481.39 401.78 481.22 417.65 C 488.66 417.40 496.26 418.35 503.55 416.38 C 508.70 415.20 512.76 410.36 512.68 405.00 C 512.82 396.98 513.18 388.90 512.53 380.90 C 512.21 375.24 507.14 371.39 501.90 370.53 C 495.07 369.67 488.14 370.31 481.28 370.05 Z" />
<path fill="#02a5d1" opacity="1.00" d=" M 326.68 595.73 C 332.47 588.53 342.09 585.81 351.02 585.82 C 360.60 585.86 371.14 588.66 376.83 597.00 C 382.86 604.51 382.21 614.57 382.18 623.61 C 376.39 623.65 370.60 623.56 364.81 623.62 C 364.55 617.54 365.97 610.36 361.46 605.44 C 358.30 602.00 353.42 601.77 349.07 602.09 C 344.21 602.03 339.67 605.61 338.33 610.24 C 336.90 614.68 337.21 619.40 337.18 624.00 C 337.17 639.98 337.19 655.97 337.17 671.96 C 337.18 677.18 336.90 682.58 338.69 687.59 C 342.46 694.62 351.94 695.60 358.65 692.67 C 362.73 690.89 364.74 686.30 364.79 682.06 C 364.95 674.89 364.75 667.72 364.80 660.56 C 360.64 660.59 356.48 660.59 352.32 660.58 C 352.34 655.03 352.30 649.48 352.22 643.94 C 362.20 643.83 372.19 643.98 382.17 643.87 C 381.94 657.58 382.17 671.30 382.12 685.01 C 381.62 693.43 376.28 700.79 369.77 705.79 C 363.77 710.02 356.11 710.69 348.99 710.49 C 342.25 710.33 335.27 708.74 329.95 704.39 C 323.39 699.00 319.88 690.39 319.95 681.98 C 319.98 660.99 319.95 640.00 319.95 619.01 C 319.96 610.87 321.66 602.33 326.68 595.73 Z" />
<path fill="#02a5d1" opacity="1.00" d=" M 746.98 587.56 C 753.65 587.71 760.33 587.57 767.01 587.71 C 772.17 606.30 778.98 624.42 783.68 643.16 C 789.08 624.58 795.01 606.14 800.94 587.73 C 807.36 587.15 813.86 587.74 820.31 587.39 C 813.12 608.27 804.70 628.73 797.21 649.52 C 795.60 654.24 792.96 658.85 793.21 664.00 C 793.14 679.06 793.21 694.12 793.18 709.19 C 787.25 709.19 781.31 709.04 775.39 709.28 C 775.10 707.54 774.82 705.79 774.80 704.04 C 774.83 690.35 774.90 676.66 774.80 662.98 C 774.90 660.00 773.59 657.29 772.58 654.59 C 764.07 632.24 755.70 609.83 746.98 587.56 Z" />
<path fill="#02a5d1" opacity="1.00" d=" M 168.36 587.96 C 181.93 588.26 195.63 586.96 209.09 589.14 C 219.20 590.73 226.94 599.90 227.86 609.92 C 228.39 616.59 228.29 623.33 227.94 630.01 C 227.30 637.95 220.89 644.41 213.30 646.18 C 219.42 648.11 225.43 651.87 227.84 658.09 C 230.77 666.07 230.26 674.78 229.70 683.11 C 229.16 690.86 226.21 699.09 219.64 703.73 C 213.68 707.95 206.11 708.90 198.99 709.15 C 188.78 709.17 178.57 709.14 168.35 709.16 C 168.52 668.76 168.42 628.35 168.36 587.96 M 185.48 603.21 C 185.37 615.32 185.45 627.43 185.44 639.54 C 192.08 639.08 199.28 640.82 205.43 637.57 C 210.27 634.60 211.00 628.20 210.89 623.04 C 210.83 617.25 211.62 610.34 207.01 605.96 C 200.67 601.65 192.64 603.57 185.48 603.21 M 182.43 654.18 C 182.92 656.08 183.54 657.99 183.48 660.00 C 183.55 669.34 183.27 678.68 183.58 688.02 C 183.69 689.96 183.01 691.81 182.60 693.70 C 187.72 694.01 192.86 693.90 197.99 693.88 C 203.03 693.84 208.87 692.00 210.82 686.87 C 212.64 681.45 211.58 675.61 211.88 670.02 C 212.20 665.24 211.22 660.05 207.63 656.63 C 200.99 652.29 192.66 654.64 185.23 654.24 C 185.27 666.30 185.28 678.36 185.18 690.41 C 185.32 691.10 184.70 694.03 183.99 692.11 C 182.88 679.55 184.10 666.87 183.32 654.32 C 183.09 654.29 182.65 654.21 182.43 654.18 Z" />
<path fill="#02a5d1" opacity="1.00" d=" M 265.63 587.87 C 271.48 587.93 277.33 587.87 283.18 587.89 C 283.11 628.31 283.18 668.73 283.14 709.15 C 277.30 709.21 271.45 709.13 265.61 709.19 C 265.77 668.75 265.51 628.31 265.63 587.87 Z" />
<path fill="#02a5d1" opacity="1.00" d=" M 468.70 587.90 C 486.22 587.98 503.75 587.84 521.27 587.74 C 521.26 593.20 521.24 598.66 521.36 604.12 C 509.62 604.10 497.88 604.02 486.14 604.15 C 486.05 616.16 486.06 628.17 486.11 640.18 C 495.78 640.07 505.45 640.11 515.13 640.16 C 515.13 645.38 515.14 650.60 515.11 655.82 C 505.44 655.94 495.78 655.79 486.12 655.91 C 486.11 668.21 485.90 680.52 486.26 692.82 C 488.43 692.82 490.60 692.83 492.78 692.87 C 492.83 692.50 492.94 691.76 492.99 691.39 C 493.06 691.75 493.19 692.49 493.26 692.86 C 502.60 692.80 511.94 692.82 521.28 692.71 C 521.10 698.16 521.53 703.62 521.12 709.05 C 503.65 709.32 486.16 709.01 468.68 709.19 C 468.69 668.76 468.58 628.33 468.70 587.90 Z" />
<path fill="#02a5d1" opacity="1.00" d=" M 578.12 588.15 C 586.11 588.22 594.21 587.21 602.14 588.47 C 602.33 592.32 603.33 596.07 604.20 599.82 C 611.99 636.27 619.64 672.76 627.38 709.23 C 621.46 709.15 615.55 709.16 609.63 709.17 C 607.67 700.23 606.15 691.19 604.59 682.18 C 595.03 682.00 585.47 682.09 575.92 682.11 C 573.96 690.97 572.63 699.96 570.70 708.81 C 564.91 709.65 558.93 708.94 553.07 709.15 C 561.68 668.87 569.91 628.50 578.12 588.15 M 590.50 606.05 C 586.20 625.88 582.47 645.82 578.94 665.80 C 586.29 665.91 593.64 665.89 600.99 665.77 C 598.00 645.78 592.96 626.12 590.50 606.05 Z" />
<path fill="#02a5d1" opacity="1.00" d=" M 661.86 587.58 C 681.24 587.90 700.63 587.64 720.02 587.75 C 719.67 593.29 721.26 599.30 718.41 604.40 C 710.97 621.29 703.60 638.21 696.11 655.09 C 690.66 667.63 684.88 680.04 679.87 692.77 C 693.25 692.93 706.64 692.77 720.02 692.88 C 720.06 698.30 720.06 703.71 720.02 709.14 C 700.30 709.20 680.57 709.12 660.85 709.17 C 661.12 703.92 660.15 698.50 661.55 693.37 C 674.37 663.63 687.04 633.80 700.37 604.28 C 687.56 603.63 674.71 604.21 661.89 604.14 C 661.95 598.62 661.93 593.10 661.86 587.58 Z" />
<path fill="#02a5d1" opacity="1.00" d=" M 405.44 739.71 C 408.54 739.37 412.02 739.26 414.67 741.19 C 418.36 743.44 420.30 747.80 420.11 752.05 C 420.05 758.07 420.22 764.11 419.99 770.14 C 419.56 778.01 410.13 783.52 403.07 780.00 C 398.65 778.31 395.95 773.67 395.93 769.05 C 395.85 763.00 395.88 756.95 395.98 750.90 C 396.00 745.58 400.06 740.40 405.44 739.71 M 406.33 744.40 C 403.48 745.20 401.66 748.04 401.38 750.88 C 401.01 754.91 401.31 758.96 401.22 763.01 C 401.28 766.44 400.79 770.22 402.76 773.27 C 404.58 776.40 409.33 777.28 412.09 774.87 C 414.42 773.01 414.90 769.80 414.85 767.00 C 414.78 761.64 414.96 756.27 414.75 750.91 C 414.73 746.83 410.40 742.99 406.33 744.40 Z" />
<path fill="#02a5d1" opacity="1.00" d=" M 566.46 739.90 C 568.09 739.74 569.73 739.78 571.38 739.76 C 573.82 749.90 576.17 760.06 578.38 770.25 C 580.94 760.31 582.87 750.22 585.16 740.22 C 586.82 740.21 588.47 740.21 590.14 740.22 C 592.58 750.19 594.52 760.27 596.83 770.27 C 599.27 760.29 601.21 750.18 604.00 740.28 C 605.82 740.24 607.65 740.18 609.48 740.10 C 606.19 753.54 602.70 766.92 599.41 780.36 C 597.96 780.26 596.53 780.17 595.10 780.10 L 595.35 781.76 C 593.22 777.82 592.69 773.32 591.78 769.01 C 590.37 762.62 588.85 756.26 587.63 749.83 C 585.72 760.07 583.27 770.21 581.07 780.39 C 579.35 780.32 577.64 780.27 575.93 780.22 C 572.74 767.67 569.85 755.05 566.37 742.58 C 565.98 741.65 566.01 740.75 566.46 739.90 Z" />
<path fill="#02a5d1" opacity="1.00" d=" M 863.88 740.86 C 865.92 738.94 868.98 739.66 871.53 739.47 C 871.51 740.82 871.50 742.17 871.50 743.54 C 869.93 743.92 868.37 744.29 866.81 744.62 C 866.77 746.59 866.74 748.57 866.72 750.55 C 868.67 750.61 870.62 750.66 872.60 750.72 C 872.49 752.15 872.39 753.59 872.31 755.05 C 870.41 755.15 868.52 755.28 866.64 755.43 C 866.90 763.72 866.63 772.01 866.75 780.30 C 865.16 780.36 863.58 780.44 862.02 780.54 C 861.80 772.10 862.00 763.65 861.84 755.21 C 861.19 755.17 859.90 755.08 859.26 755.03 C 859.24 753.53 859.23 752.05 859.21 750.57 C 859.85 750.59 861.13 750.64 861.76 750.66 C 862.01 747.39 861.29 743.40 863.88 740.86 Z" />
<path fill="#02a5d1" opacity="1.00" d=" M 878.59 740.59 C 880.87 739.05 883.82 739.71 886.42 739.50 C 886.36 740.92 886.27 742.35 886.13 743.78 C 884.67 743.93 883.21 744.11 881.76 744.31 C 881.56 746.36 881.35 748.42 881.15 750.48 C 883.14 750.54 885.16 750.62 887.17 750.70 C 887.18 751.98 887.21 753.26 887.26 754.56 C 885.24 754.79 883.24 755.03 881.25 755.27 C 881.46 763.61 881.37 771.97 881.31 780.32 C 879.65 780.33 878.01 780.36 876.38 780.41 C 876.44 772.09 876.17 763.78 876.42 755.47 C 875.77 755.39 874.47 755.23 873.82 755.15 C 873.79 753.67 873.78 752.20 873.78 750.74 C 874.40 750.65 875.64 750.49 876.26 750.40 C 876.17 747.04 875.88 743.09 878.59 740.59 Z" />
<path fill="#02a5d1" opacity="1.00" d=" M 138.50 740.73 C 145.83 738.35 154.09 744.28 154.09 752.00 C 154.00 759.29 154.62 766.69 153.37 773.90 C 150.72 782.38 137.96 784.05 132.54 777.38 C 130.53 775.08 129.69 772.00 129.78 768.99 C 129.79 763.33 129.65 757.66 129.78 752.00 C 129.90 746.90 133.47 741.97 138.50 740.73 M 139.46 745.56 C 137.29 746.95 135.15 749.13 135.23 751.91 C 135.06 756.61 135.22 761.32 135.14 766.03 C 135.19 769.00 134.89 772.56 137.42 774.71 C 139.60 777.20 143.83 777.51 146.16 775.06 C 148.86 772.50 148.68 768.42 148.71 765.00 C 148.57 760.34 148.96 755.66 148.48 751.02 C 147.99 746.89 143.41 743.90 139.46 745.56 Z" />
<path fill="#02a5d1" opacity="1.00" d=" M 247.02 740.39 C 249.01 740.30 251.00 740.22 253.00 740.16 C 255.72 746.38 257.83 752.87 260.90 758.95 C 263.44 752.70 266.16 746.53 268.67 740.27 C 270.79 740.29 272.92 740.28 275.05 740.29 C 271.31 748.60 267.39 756.84 263.80 765.21 C 262.66 770.27 263.61 775.56 263.35 780.72 C 261.62 780.72 259.89 780.74 258.17 780.76 C 257.36 775.54 258.56 770.23 257.74 765.06 C 254.38 756.75 250.27 748.75 247.02 740.39 Z" />
<path fill="#02a5d1" opacity="1.00" d=" M 328.39 740.59 C 330.50 740.56 332.62 740.54 334.74 740.52 C 334.91 742.37 335.18 744.23 335.12 746.12 C 333.80 749.86 331.22 752.99 328.85 756.13 C 327.03 753.10 330.60 750.32 330.98 747.31 C 330.34 747.29 329.05 747.27 328.40 747.26 C 328.40 745.03 328.40 742.81 328.39 740.59 Z" />
<path fill="#02a5d1" opacity="1.00" d=" M 476.29 740.43 C 478.34 740.41 480.40 740.35 482.47 740.26 C 484.68 746.67 487.93 752.65 489.90 759.15 C 492.97 752.94 495.24 746.37 498.34 740.17 C 500.31 740.19 502.28 740.21 504.26 740.23 C 500.52 748.72 496.30 757.01 492.78 765.58 C 492.22 770.47 492.71 775.44 492.54 780.37 C 490.89 780.41 489.24 780.44 487.60 780.46 C 487.27 775.35 488.19 770.12 487.13 765.10 C 483.59 756.84 479.78 748.70 476.29 740.43 Z" />
<path fill="#02a5d1" opacity="1.00" d=" M 665.34 740.55 C 667.31 740.56 669.29 740.56 671.28 740.57 C 671.23 743.00 671.57 745.50 670.95 747.89 C 669.86 750.36 668.32 752.64 666.57 754.69 C 666.01 754.64 664.89 754.54 664.33 754.49 C 665.83 752.25 667.16 749.91 668.23 747.44 C 667.47 747.39 665.97 747.27 665.21 747.21 C 665.25 744.98 665.30 742.77 665.34 740.55 Z" />
<path fill="#02a5d1" opacity="1.00" d=" M 703.57 740.07 C 705.32 740.15 707.09 740.18 708.85 740.41 C 711.13 750.56 713.74 760.69 715.66 770.93 C 718.15 760.79 719.96 750.50 722.46 740.37 C 724.15 740.39 725.85 740.42 727.55 740.45 C 729.85 750.67 732.15 760.90 734.28 771.16 C 736.49 760.90 738.70 750.64 741.14 740.43 C 743.03 740.44 744.93 740.45 746.83 740.46 C 743.25 753.63 740.31 766.96 736.98 780.19 C 735.24 780.57 733.46 780.45 731.71 780.53 C 729.47 770.31 726.89 760.16 725.08 749.86 C 722.94 760.02 720.81 770.20 718.59 780.35 C 716.80 780.37 715.01 780.41 713.23 780.46 C 710.27 766.94 706.23 753.65 703.57 740.07 Z" />
<path fill="#02a5d1" opacity="1.00" d=" M 837.35 740.59 C 843.94 737.88 852.94 741.55 854.12 748.97 C 854.64 756.26 854.43 763.61 854.25 770.92 C 854.13 778.45 845.21 782.81 838.64 780.44 C 833.90 779.33 830.82 774.76 830.42 770.09 C 829.93 764.40 830.19 758.67 830.12 752.97 C 829.95 747.93 832.49 742.54 837.35 740.59 M 839.39 745.25 C 837.35 746.42 835.79 748.55 835.80 750.98 C 835.55 756.63 835.67 762.30 835.76 767.96 C 835.78 771.28 837.24 775.33 840.85 776.16 C 844.12 777.30 847.50 774.68 848.56 771.67 C 850.02 767.64 849.15 763.27 849.36 759.09 C 849.14 755.46 850.07 751.50 848.25 748.16 C 846.71 745.07 842.47 743.17 839.39 745.25 Z" />
<path fill="#02a5d1" opacity="1.00" d=" M 678.70 743.25 C 680.45 743.27 682.22 743.30 683.99 743.33 C 684.11 745.79 684.19 748.26 684.29 750.73 C 685.82 750.73 687.35 750.76 688.90 750.84 C 688.81 752.32 688.69 753.83 688.56 755.33 C 687.11 755.22 685.66 755.13 684.21 755.05 C 684.15 761.36 683.84 767.69 684.29 773.99 C 684.48 776.12 687.24 775.54 688.71 776.08 C 688.67 777.58 688.64 779.09 688.61 780.61 C 685.41 780.71 682.36 779.80 679.76 777.93 C 678.51 770.51 679.42 762.95 678.79 755.48 C 675.77 755.83 675.54 752.90 676.08 750.72 C 676.74 750.70 678.08 750.65 678.74 750.62 C 678.73 748.16 678.72 745.70 678.70 743.25 Z" />
<path fill="#02a5d1" opacity="1.00" d=" M 803.83 743.23 C 805.48 743.28 807.14 743.33 808.81 743.39 C 808.70 745.81 808.89 748.24 809.28 750.64 C 810.83 750.58 812.39 750.53 813.95 750.49 C 813.87 752.01 813.85 753.55 813.81 755.10 C 812.07 755.26 810.35 755.39 808.63 755.46 C 809.38 762.10 808.85 768.79 809.46 775.44 C 811.04 775.67 812.62 775.84 814.23 776.01 C 814.06 777.56 813.91 779.13 813.83 780.71 C 809.85 780.80 805.06 779.48 803.99 775.10 C 803.61 768.50 804.05 761.88 803.79 755.27 C 802.75 754.99 801.72 754.72 800.70 754.46 C 800.70 753.50 800.71 751.58 800.71 750.62 C 801.74 750.56 802.78 750.51 803.84 750.47 C 803.82 748.05 803.82 745.64 803.83 743.23 Z" />
<path fill="#02a5d1" opacity="1.00" d=" M 426.86 750.66 C 428.45 750.63 430.05 750.61 431.66 750.60 C 431.80 751.12 432.08 752.16 432.22 752.68 C 434.87 751.14 437.87 749.25 441.08 750.08 C 445.23 750.69 447.92 755.01 447.89 758.99 C 447.96 766.07 447.58 773.15 447.62 780.24 C 446.00 780.27 444.39 780.32 442.78 780.38 C 442.73 773.59 442.92 766.81 442.76 760.03 C 442.82 757.92 441.91 755.69 439.89 754.82 C 436.15 753.34 431.74 757.05 432.04 760.94 C 431.93 767.41 432.08 773.89 432.00 780.37 C 430.27 780.33 428.54 780.30 426.82 780.27 C 426.82 770.40 426.88 760.53 426.86 750.66 Z" />
<path fill="#02a5d1" opacity="1.00" d=" M 511.69 750.92 C 515.95 750.15 521.35 751.21 523.65 755.25 C 525.37 758.91 524.57 763.09 524.77 766.99 C 524.60 770.81 525.19 775.31 522.37 778.37 C 517.07 783.02 506.72 781.98 504.29 774.68 C 503.33 770.22 503.91 765.57 503.73 761.04 C 503.28 756.27 506.90 751.55 511.69 750.92 M 512.36 755.49 C 509.46 756.73 508.87 760.12 508.75 762.93 C 508.66 766.61 508.29 770.55 509.91 773.98 C 511.35 777.02 516.02 777.42 518.21 775.02 C 520.49 772.20 519.62 768.34 519.80 765.02 C 519.58 762.31 520.24 759.10 518.23 756.93 C 516.89 755.17 514.34 754.80 512.36 755.49 Z" />
<path fill="#02a5d1" opacity="1.00" d=" M 545.83 750.71 C 547.51 750.69 549.18 750.67 550.86 750.66 C 550.75 760.48 550.84 770.31 550.52 780.14 C 548.96 780.21 547.40 780.30 545.85 780.40 C 545.75 779.77 545.55 778.49 545.45 777.85 C 545.04 778.43 544.20 779.58 543.79 780.16 C 540.42 780.74 536.66 781.25 533.63 779.29 C 531.34 777.24 530.81 773.93 530.82 771.01 C 530.87 764.24 530.67 757.46 531.00 750.70 C 532.64 750.75 534.29 750.81 535.95 750.88 C 535.99 758.52 535.56 766.19 536.36 773.80 C 536.54 775.54 538.75 775.81 539.91 776.75 C 542.70 776.14 545.29 774.45 545.65 771.38 C 546.23 764.52 545.75 757.59 545.83 750.71 Z" />
<path fill="#02a5d1" opacity="1.00" d=" M 619.54 750.88 C 624.56 749.86 630.95 752.43 632.00 757.87 C 632.24 763.23 632.24 768.63 631.99 773.99 C 629.76 782.93 615.29 783.36 611.85 775.14 C 610.86 771.50 611.26 767.68 611.16 763.97 C 611.22 760.69 611.00 757.00 613.22 754.31 C 614.65 752.22 617.20 751.44 619.54 750.88 M 616.17 761.93 C 616.19 765.63 615.67 769.53 616.84 773.11 C 618.17 777.59 625.57 777.23 626.59 772.70 C 627.11 767.89 626.69 763.03 626.82 758.20 C 625.22 756.70 623.56 754.58 621.08 755.24 C 617.74 755.32 616.13 759.02 616.17 761.93 Z" />
<path fill="#02a5d1" opacity="1.00" d=" M 639.31 750.52 C 640.80 750.54 642.30 750.56 643.81 750.59 C 643.91 751.15 644.11 752.27 644.21 752.83 C 647.00 750.78 650.51 749.24 653.99 750.60 C 658.01 751.71 659.27 756.32 659.23 760.02 C 659.22 766.76 659.24 773.51 659.25 780.27 C 657.67 780.30 656.10 780.35 654.54 780.42 C 654.50 774.94 654.47 769.46 654.53 763.99 C 654.52 761.13 654.56 758.09 653.03 755.57 C 651.03 755.02 648.94 755.23 646.92 755.20 C 647.11 755.87 647.49 757.22 647.68 757.89 C 647.24 757.34 646.38 756.23 645.95 755.68 C 643.49 758.98 644.18 763.14 644.12 766.98 C 644.14 771.41 644.09 775.85 644.09 780.29 C 642.49 780.32 640.89 780.37 639.30 780.43 C 639.52 770.45 638.23 760.46 639.31 750.52 Z" />
<path fill="#02a5d1" opacity="1.00" d=" M 747.84 759.23 C 748.57 755.39 750.53 751.07 754.86 750.42 C 760.23 748.32 767.70 751.79 767.96 757.94 C 768.13 765.39 768.01 772.85 768.00 780.31 C 766.55 780.30 765.11 780.31 763.68 780.33 C 763.38 780.08 762.78 779.58 762.47 779.34 C 758.61 781.20 753.50 781.82 749.98 778.91 C 746.25 775.27 746.58 768.16 750.95 765.14 C 754.42 762.72 758.86 762.91 762.90 762.58 C 762.63 760.20 763.21 757.38 761.38 755.50 C 759.94 754.05 757.70 754.33 755.88 754.53 C 754.18 755.63 753.40 757.62 752.08 759.09 C 750.66 759.21 749.25 759.25 747.84 759.23 M 754.31 768.50 C 752.94 769.97 751.81 772.23 752.83 774.21 C 754.27 777.84 760.06 777.39 761.68 774.12 C 763.18 771.81 762.66 768.97 762.75 766.38 C 759.92 766.98 756.89 767.08 754.31 768.50 Z" />
<path fill="#02a5d1" opacity="1.00" d=" M 780.60 752.70 C 782.54 751.46 784.50 749.97 786.91 749.87 C 790.64 749.81 795.20 751.63 795.64 755.86 C 796.63 763.95 795.88 772.16 796.13 780.30 C 794.52 780.35 792.92 780.37 791.33 780.38 C 791.08 772.15 791.70 763.85 790.38 755.69 C 787.28 753.49 782.34 754.11 781.37 758.27 C 780.73 765.67 781.69 773.14 780.86 780.54 C 779.22 780.44 777.59 780.33 775.96 780.19 C 775.87 770.24 775.96 760.30 775.90 750.36 C 777.52 750.36 779.15 750.35 780.79 750.35 C 780.74 750.94 780.65 752.11 780.60 752.70 Z" />
<path fill="#02a5d1" opacity="1.00" d=" M 160.79 751.10 C 164.50 751.54 168.27 751.80 171.94 750.94 C 176.34 750.02 180.75 753.51 181.01 757.98 C 181.40 765.57 181.05 773.19 181.12 780.80 C 179.53 780.82 177.95 780.85 176.37 780.88 C 175.92 773.03 176.99 765.08 175.59 757.31 C 172.98 754.32 167.21 755.16 166.34 759.29 C 165.60 766.56 166.47 773.92 165.84 781.21 C 164.18 781.04 162.52 780.87 160.87 780.71 C 160.67 770.84 160.97 760.97 160.79 751.10 Z" />
<path fill="#02a5d1" opacity="1.00" d=" M 191.10 753.14 C 195.80 749.72 203.62 750.03 206.95 755.22 C 208.23 756.91 207.92 759.13 208.13 761.12 C 206.51 761.14 204.90 761.13 203.28 761.09 C 202.74 759.60 202.67 757.79 201.32 756.77 C 198.84 754.38 194.03 755.71 193.34 759.11 C 192.43 763.29 192.25 767.70 193.05 771.92 C 193.50 774.56 196.01 777.34 198.91 776.44 C 201.58 775.92 202.35 773.04 203.35 770.92 C 204.93 770.85 206.51 770.79 208.10 770.77 C 207.82 772.99 207.78 775.44 206.32 777.31 C 202.67 782.86 193.36 782.63 189.73 777.17 C 187.21 774.01 187.89 769.73 187.76 765.99 C 187.78 761.59 187.37 756.28 191.10 753.14 Z" />
<path fill="#02a5d1" opacity="1.00" d=" M 212.18 761.02 C 212.50 757.01 214.80 752.42 219.07 751.55 C 223.21 750.60 228.54 751.05 231.15 754.87 C 233.88 758.54 233.33 763.38 232.75 767.65 C 227.54 767.78 222.32 767.74 217.11 767.81 C 216.97 771.30 217.77 776.14 221.97 776.78 C 225.43 777.42 227.20 773.89 228.44 771.33 C 230.00 771.33 231.56 771.34 233.12 771.37 C 232.92 775.38 230.77 779.31 226.88 780.81 C 222.47 782.21 216.44 781.51 214.01 777.07 C 211.09 772.25 211.75 766.37 212.18 761.02 M 218.40 757.11 C 217.87 759.27 217.39 761.45 217.00 763.64 C 220.65 763.75 224.30 763.72 227.95 763.72 C 227.82 761.04 227.92 757.36 224.93 756.18 C 222.74 754.93 220.49 756.41 218.40 757.11 Z" />
<path fill="#02a5d1" opacity="1.00" d=" M 302.04 751.34 C 303.76 751.39 305.49 751.45 307.21 751.54 C 307.21 758.69 306.99 765.85 307.27 773.00 C 307.08 776.30 311.56 777.67 313.89 775.84 C 316.02 774.86 316.29 772.18 316.61 770.14 C 316.96 763.90 316.79 757.65 316.78 751.41 C 318.49 751.32 320.20 751.27 321.92 751.26 C 321.91 760.98 321.82 770.70 321.87 780.42 C 320.41 780.50 318.96 780.61 317.50 780.73 C 317.24 780.36 316.72 779.60 316.45 779.22 C 313.22 780.97 309.18 782.09 305.76 780.19 C 302.68 778.77 301.78 775.07 301.88 771.98 C 302.07 765.10 301.79 758.21 302.04 751.34 Z" />
<path fill="#02a5d1" opacity="1.00" d=" M 341.15 751.20 C 343.08 751.44 347.14 750.25 346.35 753.57 C 348.61 751.00 352.07 750.75 355.25 750.52 C 355.20 752.23 355.16 753.97 355.12 755.71 C 351.86 755.47 347.05 755.43 346.64 759.72 C 345.74 766.55 346.37 773.52 346.26 780.41 C 344.58 780.49 342.90 780.55 341.23 780.62 C 341.27 770.81 341.11 761.00 341.15 751.20 Z" />
<path fill="#02a5d1" opacity="1.00" d=" M 360.77 753.74 C 364.73 749.87 371.49 749.94 375.85 753.11 C 379.49 756.80 379.00 762.49 378.86 767.26 C 373.61 767.15 368.35 767.28 363.11 767.26 C 363.10 770.45 362.96 775.28 367.00 776.08 C 370.61 777.21 372.79 773.63 374.02 770.87 C 375.54 770.84 377.06 770.83 378.58 770.83 C 378.13 773.07 378.21 775.70 376.49 777.45 C 372.38 782.00 363.76 782.36 360.12 777.09 C 357.50 774.03 357.94 769.78 357.84 766.05 C 357.86 761.83 357.60 757.01 360.77 753.74 M 363.02 762.82 C 366.67 762.81 370.31 762.78 373.97 762.74 C 374.12 759.23 372.16 754.83 368.02 755.28 C 364.21 755.58 362.94 759.58 363.02 762.82 Z" />
<path fill="#02a5d1" opacity="1.00" d=" M 274.42 759.90 C 274.52 755.64 277.93 751.94 282.12 751.31 C 286.64 749.95 290.66 753.04 295.05 753.51 C 294.55 754.01 294.07 754.53 293.59 755.06 C 295.87 757.89 295.06 761.63 295.23 764.98 C 295.08 769.39 295.99 774.35 293.22 778.18 C 290.44 781.35 285.85 781.66 281.92 781.19 C 278.42 780.83 275.58 777.90 274.93 774.50 C 273.98 769.70 274.17 764.76 274.42 759.90 M 284.44 755.62 C 282.79 755.88 280.80 756.41 280.25 758.22 C 278.83 761.98 279.22 766.12 279.38 770.06 C 279.60 772.83 280.81 776.36 284.06 776.65 C 286.50 777.20 289.61 775.74 289.76 773.03 C 290.03 768.67 289.97 764.29 289.81 759.93 C 289.81 757.32 286.92 755.28 284.44 755.62 Z" />
<path fill="#02a5d1" opacity="1.00" d=" M 454.79 773.65 C 456.93 773.63 459.08 773.63 461.23 773.62 C 461.06 776.48 461.91 779.72 460.20 782.28 C 459.06 784.22 457.73 786.05 456.52 787.95 C 455.97 787.78 454.86 787.45 454.31 787.28 C 455.54 784.93 456.82 782.61 457.99 780.23 C 457.21 780.23 455.65 780.24 454.87 780.24 C 454.84 778.03 454.81 775.84 454.79 773.65 Z" />
</g>
</svg>
