<?xml version="1.0" encoding="UTF-8" ?>
<!DOCTYPE svg PUBLIC "-//W3C//DTD SVG 1.1//EN" "http://www.w3.org/Graphics/SVG/1.1/DTD/svg11.dtd">
<svg width="478pt" height="1024pt" viewBox="0 0 478 1024" version="1.1" xmlns="http://www.w3.org/2000/svg">
<g id="#000000ff">
</g>
<g id="#004f00ff">
<path fill="#004f00" opacity="1.00" d=" M 107.59 297.58 C 109.04 295.00 110.06 292.17 111.91 289.83 C 114.14 289.34 115.33 291.28 116.06 293.02 C 121.77 305.26 131.96 315.41 134.67 329.00 C 135.77 333.81 135.11 338.75 134.42 343.56 C 143.17 339.86 153.21 338.32 162.33 341.64 C 171.12 344.19 178.23 352.69 177.85 362.04 C 177.99 368.17 174.12 373.86 168.99 376.94 C 161.89 380.76 152.68 381.46 145.54 377.35 C 143.59 376.65 143.41 373.00 145.96 373.10 C 149.91 372.70 156.61 372.39 156.47 366.97 C 154.65 364.23 151.09 363.58 148.04 363.63 C 141.71 363.85 135.40 366.24 130.75 370.59 C 134.51 372.61 137.34 376.64 135.87 381.05 C 135.16 384.90 131.02 385.96 127.91 387.22 C 129.56 391.79 133.93 395.22 138.97 394.47 C 142.49 394.73 144.75 392.02 146.45 389.37 C 146.98 387.96 148.47 388.19 149.67 388.42 C 155.32 395.12 153.87 406.62 146.36 411.34 C 142.07 414.41 136.63 414.60 131.56 414.41 C 128.57 421.57 121.24 424.83 115.96 429.96 C 114.98 431.23 113.22 430.88 112.24 429.81 C 106.95 425.08 100.39 421.56 96.85 415.16 C 90.71 415.57 83.95 415.14 79.19 410.75 C 72.59 405.63 71.69 394.48 78.00 388.83 C 81.48 388.48 81.67 393.43 84.63 394.42 C 90.44 396.93 97.30 393.54 99.70 387.88 C 96.62 386.26 92.37 385.03 91.82 381.01 C 90.41 376.79 93.43 372.93 96.66 370.59 C 91.75 366.50 85.49 363.95 79.06 363.99 C 76.24 364.05 73.05 364.86 71.35 367.31 C 71.00 369.04 72.52 370.31 73.78 371.21 C 76.45 373.19 79.93 372.51 83.00 373.06 C 85.11 373.36 85.10 376.55 83.26 377.24 C 77.58 380.77 70.40 381.00 64.01 379.67 C 56.79 378.17 50.28 372.44 48.89 365.05 C 47.40 357.32 51.83 349.43 58.19 345.21 C 68.57 338.66 81.97 339.01 92.99 343.78 C 92.18 337.24 91.53 330.48 93.34 324.04 C 95.97 314.21 102.78 306.35 107.59 297.58 M 112.17 294.01 C 107.38 304.66 98.82 313.38 95.63 324.77 C 93.23 333.25 94.84 342.21 97.99 350.27 C 87.26 341.13 70.48 339.82 58.75 347.79 C 54.35 351.07 50.94 356.29 51.12 361.94 C 50.78 369.51 57.35 375.89 64.47 377.23 C 70.32 378.57 76.39 377.68 81.97 375.68 C 76.45 375.91 70.42 373.54 68.39 368.00 C 69.94 363.63 74.56 361.41 78.99 361.54 C 87.53 361.65 96.46 365.32 101.29 372.62 C 99.29 373.23 97.29 373.85 95.44 374.83 C 93.27 375.84 94.05 379.03 93.66 381.04 C 95.65 383.51 98.45 384.83 101.64 384.80 C 101.71 384.98 101.86 385.33 101.94 385.51 C 101.79 388.98 100.47 392.48 97.58 394.59 C 91.71 399.35 82.18 398.36 78.11 391.74 C 77.00 394.72 75.56 397.86 76.23 401.13 C 77.16 407.01 82.45 411.32 88.07 412.51 C 91.53 413.35 95.09 412.64 98.54 412.08 C 100.85 419.85 108.79 422.98 114.11 428.26 C 119.57 422.87 128.19 419.67 129.73 411.30 C 135.34 412.63 141.84 412.34 146.36 408.35 C 151.32 404.08 152.11 396.19 148.47 390.83 C 146.92 392.81 145.56 395.30 142.97 396.05 C 139.70 397.39 136.12 396.68 132.75 396.28 C 128.18 394.30 125.38 389.65 125.43 384.72 C 127.62 384.22 130.01 384.12 131.97 382.94 C 134.09 381.50 133.82 378.57 133.41 376.38 C 132.25 373.29 128.54 373.33 125.86 372.67 C 130.13 366.27 137.45 362.48 144.95 361.49 C 149.07 361.17 153.83 360.92 157.10 363.92 C 159.10 365.31 159.16 368.13 158.39 370.22 C 156.24 373.97 151.72 375.03 147.82 375.91 C 149.07 376.31 150.31 376.73 151.59 377.06 C 158.35 378.72 166.26 377.24 171.20 372.09 C 174.45 368.83 176.16 363.98 175.43 359.43 C 174.23 353.14 170.13 347.37 164.10 344.93 C 152.96 339.82 139.02 341.98 129.82 350.03 C 132.57 342.36 133.94 333.84 131.43 325.92 C 127.76 314.49 119.38 305.49 114.23 294.79 C 114.00 293.95 112.61 292.20 112.17 294.01 Z" />
<path fill="#004f00" opacity="1.00" d=" M 254.00 369.93 C 266.94 367.74 281.30 369.90 291.60 378.51 C 296.62 382.33 299.61 388.01 302.56 393.44 C 305.02 398.10 308.41 402.42 309.38 407.73 C 310.88 415.63 309.71 424.29 305.13 431.03 C 301.27 436.92 295.75 441.41 290.29 445.74 C 293.80 453.11 299.86 459.57 300.48 468.03 C 302.03 482.17 296.90 496.76 286.94 506.90 C 275.66 519.47 260.14 527.50 243.96 531.77 C 227.97 535.76 210.82 537.19 194.91 532.12 C 187.25 529.62 180.69 524.10 176.78 517.08 C 172.95 510.26 167.56 503.91 166.64 495.87 C 165.78 487.64 168.65 479.51 172.24 472.23 C 176.62 464.02 182.21 456.23 189.83 450.73 C 186.22 442.44 178.31 435.67 178.56 426.04 C 179.14 414.97 186.38 405.45 194.69 398.68 C 212.16 385.19 232.00 373.73 254.00 369.93 M 241.74 378.72 C 227.22 383.65 213.84 391.47 201.52 400.50 C 194.65 405.51 188.29 411.88 185.36 420.02 C 183.47 425.24 183.82 431.60 187.81 435.78 C 189.56 440.79 195.32 441.93 199.98 442.25 C 207.78 442.69 214.84 438.33 220.24 433.08 C 215.69 440.03 210.99 446.91 207.24 454.34 C 206.36 454.38 204.61 454.48 203.73 454.53 C 205.10 452.84 206.50 451.19 207.84 449.49 C 197.94 450.51 189.59 456.94 183.70 464.62 C 177.85 472.65 172.61 481.86 172.22 492.03 C 171.89 497.71 174.26 503.22 177.94 507.45 C 179.79 511.70 183.96 514.22 187.94 516.20 C 198.10 520.85 209.59 521.25 220.55 520.29 C 235.49 518.50 250.24 513.98 263.03 505.94 C 275.07 498.38 285.64 487.04 288.81 472.83 C 290.23 465.65 290.87 457.51 286.71 451.07 C 283.82 443.34 276.04 438.87 268.28 437.39 C 280.22 433.44 292.40 426.34 297.32 414.14 C 300.42 407.44 299.90 399.44 295.90 393.24 C 292.12 384.61 283.89 378.51 274.89 376.17 C 263.92 373.28 252.32 375.19 241.74 378.72 Z" />
<path fill="#004f00" opacity="1.00" d=" M 258.35 387.36 C 264.26 387.02 270.84 387.13 275.24 391.75 C 277.30 398.51 274.00 405.55 269.77 410.73 C 262.67 419.07 252.62 424.24 242.49 427.94 C 247.84 418.47 253.43 409.15 258.82 399.70 C 260.19 397.46 260.64 394.85 261.01 392.30 C 260.41 392.05 259.21 391.56 258.60 391.31 C 258.56 389.99 258.44 388.67 258.35 387.36 Z" />
<path fill="#004f00" opacity="1.00" d=" M 217.03 410.04 C 223.79 402.80 232.69 398.24 241.08 393.24 C 240.33 401.06 235.81 407.74 232.01 414.39 C 230.24 415.16 228.36 415.78 226.83 417.00 C 228.03 414.75 228.65 412.27 229.03 409.77 C 223.31 414.43 217.64 420.12 210.00 421.20 C 211.92 417.24 213.90 413.21 217.03 410.04 Z" />
<path fill="#004f00" opacity="1.00" d=" M 235.05 445.56 C 245.39 443.23 257.19 444.60 265.50 451.65 C 267.40 457.74 264.79 464.08 260.61 468.55 C 252.60 477.25 242.61 484.10 231.71 488.68 C 223.06 492.16 213.41 494.36 204.12 492.50 C 199.51 491.70 195.82 488.30 193.91 484.13 C 195.01 480.19 195.55 476.08 197.19 472.31 C 198.87 468.22 201.51 464.64 203.93 460.98 C 200.71 469.19 197.02 479.25 202.60 487.30 C 204.34 489.85 206.55 492.77 209.99 492.73 C 215.29 493.47 220.50 491.54 224.69 488.37 C 223.78 484.30 223.13 480.11 223.74 475.95 C 224.89 467.07 227.47 458.38 231.04 450.18 C 231.99 448.41 232.76 445.93 235.05 445.56 M 244.45 459.56 C 242.20 459.54 241.56 462.02 240.75 463.66 C 238.66 469.08 236.68 474.59 235.66 480.32 C 243.84 476.51 251.07 470.71 257.09 464.03 C 257.70 462.95 259.99 460.96 257.80 460.28 C 253.54 458.80 248.86 459.20 244.45 459.56 Z" />
<path fill="#004f00" opacity="1.00" d=" M 54.82 560.81 C 71.15 550.36 89.61 541.95 109.23 541.11 C 112.90 541.12 116.57 541.52 120.16 542.28 C 130.65 544.38 140.64 550.68 145.77 560.25 C 148.64 565.47 151.68 570.60 154.49 575.85 C 155.28 575.62 156.08 575.38 156.87 575.15 C 155.40 570.61 154.75 565.56 157.11 561.18 C 160.51 552.87 172.31 548.32 179.54 554.56 C 183.78 558.86 185.41 564.96 188.96 569.78 C 193.98 568.99 199.04 569.58 203.83 571.21 C 208.36 568.83 213.57 567.35 218.69 568.46 C 221.30 569.20 223.49 570.90 225.77 572.32 C 235.83 561.28 249.89 554.92 264.04 550.92 C 274.16 548.05 284.53 546.08 294.98 544.91 C 301.07 544.21 307.59 544.88 312.92 548.12 C 316.28 550.13 318.30 553.61 320.01 557.02 C 322.30 561.63 325.44 565.78 327.33 570.61 C 330.98 570.69 334.61 571.23 338.13 572.22 C 340.60 570.93 343.09 569.42 345.94 569.26 C 352.59 568.81 359.26 568.74 365.93 568.62 C 369.62 568.57 373.32 568.33 377.02 568.47 C 378.72 568.87 380.31 569.67 381.94 570.32 C 386.57 567.07 392.48 564.89 398.10 566.80 C 401.09 567.44 403.05 569.96 405.56 571.43 C 408.49 569.02 411.19 566.04 415.02 565.08 C 421.08 563.16 429.36 564.44 432.39 570.68 C 434.53 574.80 436.69 578.91 439.20 582.83 C 440.97 585.44 441.25 589.38 438.42 591.39 C 429.03 598.76 429.48 611.97 429.89 622.74 C 435.31 624.09 441.55 625.17 445.14 629.90 C 447.95 633.92 449.67 638.58 452.48 642.60 C 454.88 645.80 455.62 650.28 453.86 653.95 C 450.66 659.40 444.15 662.17 437.98 661.89 C 435.55 662.17 433.93 660.15 432.13 658.92 C 429.68 656.93 426.78 655.64 423.94 654.34 C 418.73 667.44 408.65 678.50 396.29 685.21 C 387.26 689.84 376.99 691.91 366.88 691.80 C 359.75 691.72 353.10 687.68 349.38 681.67 C 346.73 677.29 344.03 672.94 341.43 668.54 C 339.76 665.78 339.73 662.35 338.16 659.61 C 299.60 666.55 261.28 675.22 223.78 686.63 C 215.22 689.27 206.73 692.16 198.39 695.43 C 194.51 696.87 189.92 697.76 186.01 696.05 C 183.28 693.78 181.99 690.32 180.15 687.39 C 170.51 692.82 158.73 694.88 147.94 692.16 C 141.21 690.42 137.01 684.40 133.75 678.70 C 126.05 686.24 117.54 693.12 107.63 697.52 C 92.19 704.67 75.03 708.09 58.03 707.31 C 48.01 706.44 37.14 704.67 29.57 697.44 C 24.17 692.84 21.51 686.12 17.61 680.38 C 13.18 673.77 11.49 665.37 13.53 657.63 C 16.77 643.97 24.88 631.39 35.94 622.74 C 32.96 616.32 28.12 610.90 25.60 604.27 C 22.97 595.48 26.91 586.20 32.36 579.33 C 38.38 571.57 46.73 566.15 54.82 560.81 M 91.46 549.65 C 75.51 554.41 60.93 562.88 47.54 572.63 C 45.99 573.82 44.30 574.95 43.17 576.57 C 42.80 577.07 42.44 577.60 42.11 578.15 C 37.63 580.23 35.19 584.83 32.87 588.94 C 29.75 594.75 29.06 602.64 33.88 607.76 C 35.57 612.74 41.33 614.04 45.97 614.37 C 53.84 614.74 60.98 610.47 66.40 605.11 C 61.88 612.03 57.24 618.91 53.42 626.27 C 52.51 626.39 50.69 626.65 49.78 626.78 C 51.20 625.07 52.57 623.33 53.93 621.58 C 42.01 622.83 32.59 631.70 26.52 641.47 C 22.16 648.59 18.26 656.53 18.35 665.07 C 18.23 670.11 20.45 674.94 23.51 678.84 C 28.03 687.32 38.11 690.52 46.98 692.03 C 66.95 694.53 87.51 689.97 105.12 680.38 C 117.74 673.45 129.19 662.89 133.85 648.94 C 136.49 640.58 137.84 630.70 132.77 622.96 C 129.81 615.08 121.72 610.80 113.88 609.25 C 126.13 606.15 138.13 598.44 143.33 586.54 C 146.33 579.95 146.25 571.97 142.26 565.81 C 138.84 557.54 131.34 551.47 122.93 548.78 C 112.71 545.44 101.62 546.73 91.46 549.65 M 283.96 552.12 C 267.85 554.84 251.59 559.47 238.03 568.89 C 232.86 572.73 227.40 577.40 225.97 583.99 C 225.14 587.18 226.78 590.32 228.78 592.71 C 229.98 596.26 233.53 597.77 236.73 599.06 C 223.53 606.13 210.37 616.20 205.55 630.97 C 205.08 631.13 204.12 631.45 203.65 631.61 C 203.83 630.68 204.19 628.82 204.38 627.89 C 208.79 615.92 209.07 602.63 215.33 591.32 C 217.34 587.46 220.40 584.31 222.78 580.70 C 223.03 578.95 221.01 578.58 219.97 577.71 C 220.31 577.27 220.99 576.40 221.32 575.97 C 215.94 571.62 207.85 573.90 204.05 579.23 C 200.88 575.65 195.85 573.90 191.18 575.25 C 181.57 577.66 175.04 586.03 170.15 594.13 C 166.13 600.28 164.69 608.43 158.04 612.54 C 161.27 603.80 165.32 595.37 170.25 587.47 C 171.68 585.57 169.55 584.23 168.27 583.15 C 169.69 581.04 166.79 579.64 165.03 579.62 C 160.56 579.48 155.25 580.86 153.07 585.16 C 146.86 595.67 140.80 606.73 138.98 618.96 C 138.34 622.27 139.14 625.73 141.13 628.45 C 142.61 630.96 144.60 633.96 147.95 633.66 C 155.24 634.21 160.24 627.91 164.16 622.67 C 164.63 623.54 165.16 624.38 165.76 625.18 C 166.86 627.31 168.39 629.86 171.17 629.70 C 161.93 632.03 152.80 635.43 144.95 640.94 C 139.66 644.67 134.92 649.54 132.38 655.57 C 130.44 660.42 132.04 665.93 135.16 669.90 C 137.18 674.67 142.06 677.52 147.01 678.33 C 152.73 679.06 158.61 678.48 164.08 676.69 C 179.71 671.17 191.32 657.99 198.37 643.36 C 199.80 640.72 200.71 636.34 204.71 637.54 C 204.99 640.39 206.26 643.05 207.92 645.36 C 209.70 649.70 213.74 652.23 218.10 653.48 C 211.05 655.29 203.97 656.99 196.99 659.05 C 192.31 660.43 188.24 663.50 185.37 667.43 C 183.03 670.67 180.28 674.00 180.09 678.20 L 181.72 678.24 C 182.08 679.43 182.51 680.60 182.81 681.84 C 185.00 682.58 187.29 682.42 189.40 681.49 C 205.96 674.96 223.04 669.90 240.20 665.24 C 263.48 659.01 286.99 653.67 310.61 648.90 C 325.56 646.06 340.49 642.88 355.61 641.17 C 351.05 645.15 346.56 649.88 345.09 655.93 C 343.95 660.17 345.14 664.81 347.88 668.20 C 349.55 671.67 352.37 674.57 356.06 675.86 C 361.80 678.41 368.17 676.98 374.07 675.89 C 391.81 672.42 407.74 659.35 413.35 642.00 C 413.91 639.99 413.07 639.10 410.82 639.35 C 411.09 638.74 411.63 637.51 411.90 636.89 C 419.29 639.50 427.18 641.76 432.84 647.56 C 436.62 646.64 441.06 645.89 443.38 642.41 C 444.46 640.40 443.53 638.17 442.55 636.35 C 441.20 634.18 439.90 631.69 437.34 630.77 C 431.28 628.16 424.64 627.34 418.19 626.19 C 419.04 614.91 418.13 603.46 420.33 592.31 C 421.50 586.16 425.36 581.05 430.04 577.08 C 429.05 576.17 428.07 575.27 427.08 574.37 L 427.92 573.80 C 425.39 569.29 419.27 569.03 415.04 571.05 C 411.11 573.00 408.55 576.81 406.66 580.64 C 402.90 588.25 399.46 596.25 393.55 602.51 C 392.37 603.66 391.20 605.00 389.53 605.44 C 391.64 595.63 395.18 585.63 402.70 578.61 C 401.54 577.71 400.39 576.80 399.24 575.92 C 401.27 574.15 398.27 572.80 396.85 572.26 C 390.61 569.85 384.54 574.75 381.34 579.73 C 380.84 579.42 379.85 578.80 379.35 578.49 C 380.05 574.34 375.09 573.50 372.04 573.94 C 363.04 574.63 353.97 574.38 344.98 575.02 C 339.29 577.19 340.23 584.48 338.03 589.15 C 334.70 596.36 331.63 604.06 326.02 609.82 C 328.94 601.19 333.35 593.18 337.43 585.07 C 338.47 583.19 337.64 581.00 335.76 580.04 C 336.83 576.57 332.33 576.35 330.01 576.39 C 326.43 576.19 323.68 578.74 321.72 581.42 C 320.59 579.07 318.82 576.74 315.97 576.60 C 310.14 576.02 304.23 578.52 299.98 582.44 L 299.15 582.39 C 298.51 583.20 297.75 583.93 297.21 584.83 C 296.87 584.83 296.18 584.84 295.84 584.84 C 293.45 589.29 289.32 592.50 286.91 596.97 C 284.03 600.93 283.26 606.19 279.64 609.64 C 270.55 618.30 259.38 624.68 247.49 628.65 C 243.37 630.07 238.35 630.70 234.66 627.88 C 237.03 618.16 245.79 612.32 253.89 607.59 C 261.66 603.24 269.87 598.67 279.00 598.49 C 284.04 599.14 287.97 591.42 283.68 588.16 C 283.68 585.22 280.58 583.42 277.89 584.28 C 270.17 585.77 261.58 588.75 254.09 584.82 C 255.86 582.08 257.87 579.44 260.58 577.58 C 270.57 570.47 282.77 566.51 295.04 566.60 C 292.77 571.56 287.35 573.68 283.45 577.11 C 286.46 576.97 289.49 576.74 292.45 576.13 C 290.08 577.48 287.91 579.16 285.74 580.82 C 294.38 580.65 303.21 578.25 310.39 573.36 C 315.03 570.33 318.60 563.78 314.59 558.82 C 313.13 555.28 310.26 552.31 306.49 551.32 C 299.09 549.27 291.39 551.17 283.96 552.12 M 163.37 574.08 C 164.49 576.01 165.62 578.30 168.00 578.89 C 176.14 581.13 184.32 569.72 178.53 563.03 C 177.48 560.21 175.31 557.26 172.01 557.22 C 163.80 556.66 157.70 567.74 163.37 574.08 Z" />
<path fill="#004f00" opacity="1.00" d=" M 104.39 559.46 C 107.20 559.46 110.03 559.28 112.84 559.58 C 115.87 559.98 118.51 561.67 121.18 563.04 C 123.50 570.33 120.22 577.94 115.41 583.40 C 108.31 591.37 98.53 596.41 88.63 600.00 C 93.62 591.27 98.72 582.60 103.77 573.90 C 105.19 571.38 106.70 568.82 107.21 565.93 C 106.57 564.81 105.73 563.83 104.95 562.82 C 104.77 561.69 104.58 560.57 104.39 559.46 Z" />
<path fill="#004f00" opacity="1.00" d=" M 62.64 582.66 C 69.44 575.18 78.51 570.48 87.10 565.43 C 86.42 573.81 81.29 580.82 77.33 587.95 C 77.19 587.47 76.91 586.50 76.77 586.01 C 75.49 587.09 74.20 588.19 72.98 589.34 C 74.03 586.97 74.80 584.47 75.51 581.99 C 69.28 586.25 63.76 592.26 55.91 593.37 C 57.99 589.70 59.76 585.79 62.64 582.66 Z" />
<path fill="#004f00" opacity="1.00" d=" M 191.79 590.80 C 193.68 588.33 196.50 586.90 199.28 585.64 C 196.96 595.41 190.92 604.79 181.79 609.41 C 183.94 602.66 187.32 596.29 191.79 590.80 Z" />
<path fill="#004f00" opacity="1.00" d=" M 299.29 611.60 C 301.49 601.69 307.82 592.69 316.87 587.92 C 315.98 592.61 312.69 596.27 310.26 600.23 C 307.24 605.03 303.42 609.23 299.28 613.08 C 298.78 612.96 297.77 612.71 297.26 612.58 L 297.40 612.51 C 297.87 612.28 298.82 611.83 299.29 611.60 Z" />
<path fill="#004f00" opacity="1.00" d=" M 347.48 591.48 C 350.18 589.54 353.81 589.63 356.97 588.97 C 351.64 594.29 346.26 599.56 340.93 604.88 C 343.40 600.55 344.68 595.61 347.48 591.48 Z" />
<path fill="#004f00" opacity="1.00" d=" M 356.22 610.04 C 361.91 603.62 367.99 597.57 374.44 591.93 C 372.11 597.38 370.40 603.13 369.98 609.07 C 365.44 609.82 360.83 610.42 356.22 610.04 Z" />
<path fill="#004f00" opacity="1.00" d=" M 388.61 625.12 C 393.02 621.20 397.61 617.28 400.66 612.15 C 399.82 616.30 398.82 620.42 397.66 624.49 C 394.64 624.66 391.62 624.85 388.61 625.12 Z" />
<path fill="#004f00" opacity="1.00" d=" M 79.67 617.69 C 90.64 615.50 104.12 615.75 112.07 624.80 C 113.60 631.70 109.46 638.17 104.74 642.79 C 92.99 654.21 78.01 663.00 61.56 665.05 C 64.69 663.93 67.96 662.80 70.48 660.55 C 70.41 656.34 69.22 652.15 69.94 647.93 C 71.37 637.40 74.41 626.97 79.67 617.69 M 89.77 631.76 C 88.44 631.90 88.07 633.43 87.48 634.40 C 85.05 640.15 82.87 646.08 81.97 652.29 C 87.37 649.91 92.13 646.37 96.62 642.59 C 99.99 639.66 103.63 636.69 105.22 632.37 C 100.16 631.31 94.88 630.82 89.77 631.76 Z" />
<path fill="#004f00" opacity="1.00" d=" M 372.65 618.40 C 373.03 619.01 373.42 619.62 373.82 620.24 C 375.12 622.24 376.56 624.15 378.06 626.02 C 337.19 629.49 296.59 635.77 256.46 644.20 C 265.33 638.65 274.43 633.12 281.59 625.36 C 281.97 626.01 282.37 626.66 282.77 627.32 C 284.35 629.90 286.59 632.81 289.98 632.66 C 297.63 632.82 303.04 626.39 307.90 621.35 C 308.64 623.19 309.52 624.99 310.54 626.71 C 311.51 628.15 312.59 629.53 313.67 630.91 C 319.19 630.29 324.14 627.60 328.12 623.80 C 328.55 624.18 329.42 624.94 329.85 625.32 C 330.26 626.45 330.64 627.59 331.00 628.75 C 341.95 627.57 352.91 626.19 363.96 626.52 C 368.93 627.21 371.16 622.18 372.65 618.40 Z" />
<path fill="#004f00" opacity="1.00" d=" M 42.49 646.46 C 44.17 641.53 47.25 637.29 50.10 632.99 C 47.00 641.16 43.06 651.28 48.76 659.25 C 50.93 663.90 56.07 665.62 60.91 665.13 C 53.83 665.78 45.47 664.87 41.11 658.48 C 41.28 654.46 41.04 650.29 42.49 646.46 Z" />
<path fill="#004f00" opacity="1.00" d=" M 367.47 651.47 C 374.03 644.40 382.94 640.01 392.10 637.37 C 387.36 645.55 380.45 652.44 372.40 657.37 C 369.48 659.28 366.02 660.03 362.57 660.08 C 363.83 657.02 365.16 653.90 367.47 651.47 Z" />
<path fill="#004f00" opacity="1.00" d=" M 154.71 652.75 C 161.25 645.64 170.41 641.76 179.39 638.76 C 176.89 643.56 173.04 647.44 169.33 651.31 C 163.85 656.55 157.45 661.83 149.55 662.38 C 150.75 658.93 152.11 655.41 154.71 652.75 Z" />
</g>
<g id="#ba871eff">
<path fill="#ba871e" opacity="1.00" d=" M 112.17 294.01 C 112.61 292.20 114.00 293.95 114.23 294.79 C 119.38 305.49 127.76 314.49 131.43 325.92 C 133.94 333.84 132.57 342.36 129.82 350.03 C 139.02 341.98 152.96 339.82 164.10 344.93 C 170.13 347.37 174.23 353.14 175.43 359.43 L 174.47 359.00 C 173.87 358.75 172.68 358.26 172.08 358.02 C 171.67 362.20 171.16 366.57 168.61 370.08 C 168.39 369.33 167.95 367.83 167.73 367.08 C 167.55 364.45 168.01 361.62 166.79 359.19 C 163.57 352.95 155.98 349.05 149.06 350.82 C 136.82 353.43 124.72 361.61 121.17 374.14 C 121.41 372.60 121.64 371.05 121.89 369.51 C 121.51 369.17 120.73 368.49 120.34 368.15 C 123.90 361.49 127.02 354.57 129.50 347.44 C 131.85 340.57 131.17 332.72 127.08 326.65 C 124.93 334.04 127.88 341.91 125.20 349.19 C 123.81 353.25 121.57 356.96 118.94 360.33 C 117.89 355.12 116.79 349.87 114.43 345.07 C 114.88 334.64 115.19 324.07 117.70 313.89 C 120.60 315.47 123.36 317.31 126.03 319.26 C 121.48 311.73 117.13 304.10 113.01 296.32 C 112.80 298.42 112.55 300.53 112.44 302.64 C 112.23 302.23 111.82 301.40 111.62 300.99 C 109.23 304.81 107.01 308.75 104.43 312.45 C 106.35 313.05 108.83 313.05 109.94 315.02 C 111.92 318.22 112.47 322.03 113.31 325.63 C 113.61 330.43 113.31 335.24 113.42 340.04 C 113.45 344.42 115.46 348.55 115.18 352.95 C 114.85 359.40 114.81 365.88 113.99 372.29 C 111.74 364.15 110.46 355.71 107.37 347.82 C 106.24 344.67 102.37 343.88 100.88 341.00 C 98.91 337.10 98.18 332.74 96.97 328.57 C 95.89 336.76 96.87 345.55 101.22 352.71 C 105.49 359.40 109.46 366.43 111.27 374.22 C 110.52 374.13 109.03 373.94 108.29 373.84 C 103.25 362.18 92.23 353.40 79.92 350.55 C 70.80 348.60 59.02 355.93 60.21 366.04 C 60.66 371.39 66.08 373.70 70.09 376.12 C 65.54 375.09 61.62 372.54 57.53 370.47 C 58.38 373.94 61.53 375.72 64.47 377.23 C 57.35 375.89 50.78 369.51 51.12 361.94 C 50.94 356.29 54.35 351.07 58.75 347.79 C 70.48 339.82 87.26 341.13 97.99 350.27 C 94.84 342.21 93.23 333.25 95.63 324.77 C 98.82 313.38 107.38 304.66 112.17 294.01 M 151.75 343.35 C 157.49 345.52 163.10 348.00 168.88 350.07 C 164.53 345.36 157.99 343.45 151.75 343.35 M 52.53 360.43 C 57.21 356.23 61.58 351.64 65.51 346.72 C 58.85 348.11 54.07 354.02 52.53 360.43 M 125.80 362.09 C 128.80 358.90 132.53 356.51 135.39 353.19 C 130.15 352.65 127.24 357.84 125.80 362.09 Z" />
<path fill="#ba871e" opacity="1.00" d=" M 93.66 381.04 C 94.05 379.03 93.27 375.84 95.44 374.83 C 105.43 375.08 115.43 375.45 125.43 375.07 C 126.09 376.03 126.76 376.98 127.33 378.01 C 127.33 379.59 126.10 380.78 125.42 382.13 C 118.27 382.34 111.10 382.00 103.94 382.24 C 100.47 382.38 97.04 381.78 93.66 381.04 Z" />
<path fill="#ba871e" opacity="1.00" d=" M 241.74 378.72 C 252.32 375.19 263.92 373.28 274.89 376.17 C 283.89 378.51 292.12 384.61 295.90 393.24 C 297.89 400.70 296.91 409.01 292.39 415.39 C 284.11 427.87 269.04 433.80 254.67 435.50 C 259.21 436.08 263.78 436.53 268.28 437.39 C 276.04 438.87 283.82 443.34 286.71 451.07 C 289.73 464.05 285.45 477.96 276.99 488.02 C 266.12 501.09 250.31 509.04 234.15 513.46 C 221.95 516.60 209.07 517.88 196.60 515.71 C 189.80 514.58 183.36 511.71 177.94 507.45 C 174.26 503.22 171.89 497.71 172.22 492.03 C 172.61 481.86 177.85 472.65 183.70 464.62 C 189.59 456.94 197.94 450.51 207.84 449.49 C 206.50 451.19 205.10 452.84 203.73 454.53 C 198.70 460.83 193.97 467.89 192.73 476.03 C 192.21 478.79 192.90 481.56 193.91 484.13 C 195.82 488.30 199.51 491.70 204.12 492.50 C 213.41 494.36 223.06 492.16 231.71 488.68 C 242.61 484.10 252.60 477.25 260.61 468.55 C 264.79 464.08 267.40 457.74 265.50 451.65 C 263.38 447.82 260.01 444.75 255.90 443.19 C 248.64 440.25 240.42 439.92 232.83 441.62 C 230.70 441.97 229.90 444.22 228.98 445.88 C 225.41 453.92 222.91 462.45 221.60 471.15 C 220.89 475.57 221.38 480.07 222.50 484.38 C 216.96 488.92 209.19 490.43 202.60 487.30 C 197.02 479.25 200.71 469.19 203.93 460.98 C 205.05 458.77 206.14 456.55 207.24 454.34 C 210.99 446.91 215.69 440.03 220.24 433.08 C 224.53 427.09 228.38 420.80 232.01 414.39 C 235.81 407.74 240.33 401.06 241.08 393.24 C 243.99 391.06 246.85 388.49 250.51 387.73 C 253.10 387.27 255.73 387.40 258.35 387.36 C 258.44 388.67 258.56 389.99 258.60 391.31 C 252.35 404.62 243.81 416.73 237.05 429.78 C 238.86 429.17 240.69 428.59 242.49 427.94 C 252.62 424.24 262.67 419.07 269.77 410.73 C 274.00 405.55 277.30 398.51 275.24 391.75 C 273.06 386.48 267.62 383.27 261.99 383.38 C 251.30 383.27 241.37 388.15 232.21 393.19 C 224.61 397.62 217.04 402.67 211.77 409.84 C 209.42 413.05 207.20 417.54 210.00 421.20 C 217.64 420.12 223.31 414.43 229.03 409.77 C 228.65 412.27 228.03 414.75 226.83 417.00 C 221.84 425.28 215.52 433.64 206.11 437.08 C 200.16 439.39 193.48 438.44 187.81 435.78 C 183.82 431.60 183.47 425.24 185.36 420.02 C 188.29 411.88 194.65 405.51 201.52 400.50 C 213.84 391.47 227.22 383.65 241.74 378.72 M 221.79 390.74 C 214.70 395.37 207.57 401.08 204.18 409.06 C 202.73 411.80 203.79 414.70 205.44 417.04 C 208.16 407.59 215.73 400.77 223.63 395.48 C 233.46 388.85 244.28 383.22 256.04 381.09 C 260.43 380.18 264.87 381.05 269.23 381.68 C 266.42 378.56 262.25 376.99 258.08 377.73 C 245.18 379.17 232.99 384.39 221.79 390.74 M 278.24 385.76 C 278.64 389.50 279.53 393.24 279.07 397.02 C 278.72 400.92 277.12 404.53 275.94 408.23 C 279.13 405.36 281.86 401.50 281.76 397.04 C 282.08 392.94 280.25 389.19 278.24 385.76 M 251.52 390.45 C 246.19 399.20 241.38 408.28 236.01 417.02 C 234.15 419.81 232.45 422.75 231.77 426.08 C 233.70 425.50 236.32 425.61 237.42 423.58 C 239.40 420.49 241.03 417.19 242.92 414.05 C 247.34 406.02 252.69 398.45 256.22 389.96 C 254.64 390.08 253.06 390.09 251.52 390.45 M 292.28 392.59 C 291.86 397.77 291.49 403.18 288.70 407.73 C 282.41 418.47 270.79 424.99 258.95 427.78 C 255.05 428.81 250.93 428.76 247.09 429.99 C 247.21 430.34 247.44 431.02 247.56 431.37 C 254.01 433.01 260.85 432.38 267.08 430.15 C 276.22 427.46 284.55 421.84 290.10 414.06 C 294.33 407.92 296.00 399.36 292.28 392.59 M 196.81 405.99 C 192.37 412.47 186.26 419.45 187.60 427.88 C 188.86 427.44 190.12 426.99 191.38 426.53 C 190.64 419.20 193.82 412.44 196.81 405.99 M 210.00 426.00 C 207.16 428.41 203.92 430.43 200.28 431.38 C 196.23 432.63 191.99 431.78 187.88 431.38 C 192.12 436.45 199.67 436.59 205.46 434.46 C 212.32 431.77 217.97 426.31 221.42 419.85 C 217.43 421.52 213.32 423.15 210.00 426.00 M 234.33 434.47 C 230.91 434.97 226.10 434.73 224.72 438.69 C 220.65 447.43 217.82 456.76 216.41 466.30 C 215.77 470.47 216.63 474.65 216.73 478.83 C 213.39 482.49 207.93 482.47 203.40 483.32 C 207.08 488.06 214.42 486.72 218.76 483.69 C 219.40 479.82 218.20 475.83 218.87 471.92 C 220.18 461.77 223.23 451.83 227.64 442.60 C 229.32 438.51 234.33 438.70 238.03 438.19 C 244.94 437.31 251.72 439.02 258.31 440.88 C 256.55 438.66 253.81 438.11 251.16 437.76 C 246.63 433.59 240.00 434.35 234.33 434.47 M 268.05 441.41 C 273.01 444.18 278.68 447.66 278.83 454.09 C 279.21 451.60 280.00 448.80 278.38 446.57 C 276.10 443.16 271.71 442.45 268.05 441.41 M 214.57 444.82 C 212.14 449.08 210.13 453.56 208.17 458.05 C 205.73 464.02 202.89 470.14 203.29 476.75 C 204.74 477.25 206.20 477.70 207.66 478.19 C 207.17 466.65 211.08 455.63 214.57 444.82 M 282.41 448.97 C 282.84 456.69 282.12 464.64 278.75 471.70 C 272.70 485.01 260.45 494.29 247.71 500.72 C 233.45 507.36 217.64 511.02 201.88 510.48 C 195.23 510.41 188.90 508.32 182.47 506.96 C 187.11 511.08 193.41 512.53 199.37 513.52 C 217.11 515.74 235.27 511.88 251.33 504.27 C 265.99 497.20 279.72 485.35 283.87 469.01 C 285.26 462.46 286.13 454.94 282.41 448.97 M 190.25 462.26 C 187.43 468.04 186.43 475.16 189.47 481.06 C 190.04 476.66 190.49 472.18 192.18 468.04 C 193.94 463.20 197.25 459.19 199.94 454.86 C 196.11 456.30 192.13 458.42 190.25 462.26 M 175.49 486.99 C 174.51 492.89 175.94 499.54 180.01 504.04 C 182.95 507.24 187.61 506.93 191.42 505.76 C 187.22 502.66 182.62 499.39 181.11 494.10 C 178.35 484.22 181.81 474.02 185.75 464.97 C 181.35 471.78 177.28 479.02 175.49 486.99 Z" />
<path fill="#ba871e" opacity="1.00" d=" M 101.94 385.51 C 102.94 387.82 103.80 390.20 104.65 392.59 C 106.18 392.11 107.71 391.64 109.24 391.19 C 106.03 399.62 97.20 406.73 87.85 405.18 C 83.33 404.60 80.22 401.05 77.14 398.08 C 77.52 401.67 78.14 405.59 81.02 408.10 C 87.37 413.96 98.18 413.16 104.13 407.09 C 109.85 401.82 111.33 393.88 113.53 386.78 C 113.93 394.01 113.88 401.26 113.81 408.51 C 112.59 413.00 109.52 416.62 105.72 419.20 C 108.44 421.75 111.25 424.21 113.90 426.85 C 120.04 422.50 127.09 418.28 129.65 410.75 C 134.67 411.41 140.28 411.84 144.64 408.74 C 148.55 406.15 150.25 401.08 148.79 396.63 C 148.76 396.43 148.70 396.02 148.68 395.82 C 144.78 398.79 140.73 401.54 136.84 404.53 C 140.63 403.98 144.27 402.50 147.07 399.83 C 144.71 405.14 138.17 406.26 132.98 405.68 C 125.44 405.27 120.78 398.33 117.06 392.58 C 117.93 390.38 118.67 388.13 119.37 385.87 C 120.57 389.57 121.90 393.44 124.83 396.16 C 129.75 401.21 138.46 401.97 143.99 397.46 C 140.23 397.27 136.39 397.38 132.75 396.28 C 136.12 396.68 139.70 397.39 142.97 396.05 C 145.56 395.30 146.92 392.81 148.47 390.83 C 152.11 396.19 151.32 404.08 146.36 408.35 C 141.84 412.34 135.34 412.63 129.73 411.30 C 128.19 419.67 119.57 422.87 114.11 428.26 C 108.79 422.98 100.85 419.85 98.54 412.08 C 95.09 412.64 91.53 413.35 88.07 412.51 C 82.45 411.32 77.16 407.01 76.23 401.13 C 75.56 397.86 77.00 394.72 78.11 391.74 C 82.18 398.36 91.71 399.35 97.58 394.59 C 100.47 392.48 101.79 388.98 101.94 385.51 M 86.53 403.42 C 91.87 404.63 97.13 402.57 101.17 399.13 C 96.33 400.68 91.33 401.75 86.53 403.42 Z" />
<path fill="#ba871e" opacity="1.00" d=" M 91.46 549.65 C 101.62 546.73 112.71 545.44 122.93 548.78 C 131.34 551.47 138.84 557.54 142.26 565.81 C 143.47 570.78 143.59 576.11 141.76 580.96 C 138.33 590.68 129.98 597.84 120.83 602.09 C 115.34 604.82 109.26 605.89 103.46 607.73 C 106.92 608.29 110.40 608.79 113.88 609.25 C 121.72 610.80 129.81 615.08 132.77 622.96 C 135.66 635.04 132.27 648.07 124.85 657.88 C 115.28 670.74 100.71 678.99 85.69 683.90 C 71.47 688.39 56.11 690.44 41.36 687.48 C 34.79 686.18 28.55 683.28 23.51 678.84 C 20.45 674.94 18.23 670.11 18.35 665.07 C 18.26 656.53 22.16 648.59 26.52 641.47 C 32.59 631.70 42.01 622.83 53.93 621.58 C 52.57 623.33 51.20 625.07 49.78 626.78 C 44.72 632.92 40.19 640.00 38.94 647.99 C 38.27 651.64 39.33 655.31 41.11 658.48 C 45.47 664.87 53.83 665.78 60.91 665.13 L 61.56 665.05 C 78.01 663.00 92.99 654.21 104.74 642.79 C 109.46 638.17 113.60 631.70 112.07 624.80 C 110.12 620.33 106.38 616.80 101.79 615.14 C 94.24 612.28 85.67 611.87 77.89 614.02 C 74.93 616.62 74.04 620.81 72.55 624.35 C 69.20 634.61 65.52 645.70 68.62 656.49 C 63.14 661.01 55.26 662.35 48.76 659.25 C 43.06 651.28 47.00 641.16 50.10 632.99 C 51.22 630.75 52.31 628.50 53.42 626.27 C 57.24 618.91 61.88 612.03 66.40 605.11 C 70.34 599.59 73.94 593.82 77.33 587.95 C 81.29 580.82 86.42 573.81 87.10 565.43 C 89.65 563.52 92.07 561.29 95.13 560.25 C 98.10 559.20 101.30 559.51 104.39 559.46 C 104.58 560.57 104.77 561.69 104.95 562.82 C 102.84 568.42 99.45 573.40 96.53 578.59 C 92.10 586.33 87.46 593.95 83.17 601.77 C 84.99 601.19 86.82 600.63 88.63 600.00 C 98.53 596.41 108.31 591.37 115.41 583.40 C 120.22 577.94 123.50 570.33 121.18 563.04 C 118.60 558.25 113.42 555.26 107.97 555.39 C 96.81 555.37 86.54 560.70 77.04 566.04 C 68.79 571.12 60.00 576.81 55.67 585.83 C 54.29 588.23 55.09 590.92 55.91 593.37 C 63.76 592.26 69.28 586.25 75.51 581.99 C 74.80 584.47 74.03 586.97 72.98 589.34 C 67.97 596.99 62.27 604.97 53.54 608.63 C 47.27 611.43 39.95 610.76 33.88 607.76 C 29.06 602.64 29.75 594.75 32.87 588.94 C 35.19 584.83 37.63 580.23 42.11 578.15 L 41.32 579.67 C 38.16 585.89 32.67 591.70 33.51 599.19 C 34.74 599.39 35.99 599.48 37.23 599.56 C 36.78 592.16 39.72 585.37 42.39 578.67 C 42.64 577.96 42.90 577.26 43.17 576.57 C 44.30 574.95 45.99 573.82 47.54 572.63 C 60.93 562.88 75.51 554.41 91.46 549.65 M 72.33 560.33 C 66.33 563.34 60.92 567.47 56.25 572.27 C 53.03 575.79 49.68 579.97 49.69 584.97 C 49.99 586.20 49.85 588.41 51.72 588.05 C 55.87 576.93 65.81 569.56 75.68 563.73 C 84.23 558.99 93.16 554.40 102.97 553.01 C 107.32 552.24 111.67 553.29 115.99 553.80 C 113.14 551.55 109.88 549.26 106.04 549.63 C 94.16 550.51 82.85 554.95 72.33 560.33 M 124.30 557.78 C 124.80 561.49 125.71 565.21 125.25 568.99 C 124.90 572.96 123.30 576.66 121.98 580.39 C 124.92 577.64 127.80 574.23 127.84 569.99 C 128.41 565.57 126.61 561.42 124.30 557.78 M 98.17 562.30 C 96.28 564.12 95.23 566.61 93.90 568.83 C 89.51 576.43 85.17 584.05 80.64 591.57 C 79.39 593.58 78.51 595.78 77.82 598.05 C 80.10 597.64 82.82 597.38 83.93 594.99 C 89.01 586.36 93.97 577.65 99.05 569.01 C 100.39 566.77 101.44 564.38 102.33 561.94 C 100.94 561.99 99.55 562.11 98.17 562.30 M 138.42 563.92 C 138.02 568.61 137.97 573.52 135.75 577.82 C 130.69 588.97 119.35 595.73 108.01 599.08 C 103.15 600.71 97.94 600.66 93.05 602.08 C 93.21 602.40 93.52 603.03 93.68 603.35 C 100.37 605.31 107.60 604.36 114.09 602.01 C 124.26 598.41 134.23 591.91 138.66 581.68 C 141.32 576.07 140.97 569.49 138.42 563.92 M 56.11 598.07 C 52.88 600.74 49.17 602.95 45.02 603.78 C 41.34 604.57 37.59 603.78 33.92 603.36 C 37.53 607.88 43.96 608.41 49.25 607.30 C 57.54 605.09 63.95 598.50 68.19 591.28 C 64.09 593.40 59.68 595.06 56.11 598.07 M 73.01 608.04 C 71.27 609.45 70.56 611.72 69.59 613.67 C 66.23 621.69 63.73 630.11 62.54 638.74 C 61.97 642.79 62.83 646.85 62.89 650.91 C 59.48 654.59 54.09 654.60 49.49 655.25 C 53.12 660.29 61.15 659.00 65.28 655.33 C 63.54 643.34 67.12 631.41 71.26 620.26 C 72.67 617.24 73.64 613.51 76.60 611.65 C 85.97 608.46 95.90 610.59 105.19 612.87 C 102.23 610.71 98.47 610.33 95.37 608.48 C 92.30 606.51 88.49 606.54 84.98 606.39 C 80.96 606.41 76.77 606.47 73.01 608.04 M 114.14 613.51 C 119.10 616.18 124.79 619.67 124.95 626.03 C 125.29 623.50 126.17 620.61 124.38 618.41 C 122.01 615.16 117.79 614.45 114.14 613.51 M 60.83 615.97 C 56.98 624.51 52.52 632.85 50.05 641.94 C 49.33 644.25 49.42 646.70 49.58 649.09 C 51.00 649.46 52.41 649.84 53.82 650.23 C 53.31 638.36 57.57 627.16 60.83 615.97 M 129.13 622.46 C 128.81 631.68 127.30 641.12 122.09 648.96 C 111.36 665.57 92.64 675.17 73.89 679.78 C 59.78 683.01 44.32 684.51 30.61 678.85 C 32.92 678.74 35.21 678.34 37.48 677.87 C 33.74 674.78 29.25 672.02 27.66 667.14 C 23.94 657.11 28.04 646.44 31.80 637.06 C 27.36 644.22 22.98 651.73 21.46 660.12 C 20.75 667.15 23.14 675.84 30.25 678.78 L 28.50 678.59 C 32.38 682.97 38.48 684.18 43.95 685.31 C 64.84 688.36 86.50 683.19 104.57 672.50 C 116.67 664.97 127.55 653.74 130.43 639.33 C 131.31 633.78 132.21 627.51 129.13 622.46 M 36.69 633.69 C 33.58 639.62 32.38 647.03 35.57 653.19 C 36.19 649.34 36.44 645.39 37.76 641.68 C 39.71 636.32 43.00 631.61 45.98 626.80 C 42.40 628.27 38.76 630.29 36.69 633.69 Z" />
<path fill="#ba871e" opacity="1.00" d=" M 283.96 552.12 C 291.39 551.17 299.09 549.27 306.49 551.32 C 310.26 552.31 313.13 555.28 314.59 558.82 C 313.94 562.46 312.47 566.11 309.45 568.43 C 304.63 572.55 298.40 574.33 292.45 576.13 C 289.49 576.74 286.46 576.97 283.45 577.11 C 287.35 573.68 292.77 571.56 295.04 566.60 C 296.78 564.09 292.85 563.13 291.03 562.89 C 282.46 562.30 274.32 565.61 266.43 568.49 C 273.56 562.29 283.59 561.97 292.53 561.18 C 287.18 557.79 280.62 559.89 274.93 561.17 C 266.96 563.68 258.93 567.08 252.70 572.79 C 250.37 574.58 250.10 577.59 249.72 580.28 C 254.17 575.39 258.74 569.62 265.80 568.80 C 261.17 572.02 255.50 574.56 252.75 579.74 C 251.76 581.57 253.05 583.37 254.09 584.82 C 261.58 588.75 270.17 585.77 277.89 584.28 C 280.58 583.42 283.68 585.22 283.68 588.16 C 282.70 590.17 281.99 592.62 280.01 593.90 C 276.38 594.91 272.51 594.66 268.89 595.77 C 258.20 599.14 248.59 605.18 239.62 611.78 C 242.07 607.10 246.97 604.79 251.31 602.23 C 256.38 599.41 261.56 596.69 267.09 594.86 C 271.14 593.48 275.49 593.50 279.58 592.36 C 281.58 590.85 281.35 587.93 282.00 585.75 C 279.61 587.86 277.56 591.02 274.02 591.04 C 262.09 592.05 251.55 598.41 241.81 604.90 C 235.92 608.98 229.33 615.02 231.01 622.99 C 232.89 619.02 234.24 614.17 238.80 612.47 C 235.42 616.64 230.89 622.51 234.66 627.88 C 238.35 630.70 243.37 630.07 247.49 628.65 C 259.38 624.68 270.55 618.30 279.64 609.64 C 283.26 606.19 284.03 600.93 286.91 596.97 C 289.32 592.50 293.45 589.29 295.84 584.84 C 296.18 584.84 296.87 584.83 297.21 584.83 C 297.58 584.85 298.31 584.88 298.67 584.90 C 293.71 591.87 287.51 598.18 284.61 606.42 C 283.03 611.19 281.28 616.49 282.78 621.49 C 283.90 624.06 286.86 622.96 288.95 622.57 C 284.67 615.34 287.15 606.67 290.54 599.64 C 293.23 594.47 296.06 589.18 300.41 585.22 C 300.63 584.76 301.05 583.84 301.26 583.38 C 301.68 583.23 302.53 582.94 302.96 582.80 C 302.21 582.71 300.73 582.53 299.98 582.44 C 304.23 578.52 310.14 576.02 315.97 576.60 C 318.82 576.74 320.59 579.07 321.72 581.42 C 323.68 578.74 326.43 576.19 330.01 576.39 C 332.33 576.35 336.83 576.57 335.76 580.04 C 332.80 585.96 329.72 591.82 326.77 597.74 C 327.22 590.24 333.58 584.87 334.12 577.41 C 330.34 580.58 328.65 585.31 326.61 589.64 C 323.88 595.68 320.51 601.67 320.23 608.46 C 321.97 605.74 323.75 603.04 325.58 600.39 C 324.18 604.06 323.22 607.88 322.54 611.75 C 323.71 611.13 324.87 610.49 326.02 609.82 C 331.63 604.06 334.70 596.36 338.03 589.15 C 340.23 584.48 339.29 577.19 344.98 575.02 C 353.97 574.38 363.04 574.63 372.04 573.94 C 375.09 573.50 380.05 574.34 379.35 578.49 C 377.57 583.85 372.96 587.33 368.93 590.95 C 363.58 595.64 358.86 600.98 353.73 605.89 C 356.01 599.94 361.38 596.14 365.71 591.75 C 370.49 587.22 377.59 583.07 377.56 575.65 C 375.45 578.17 373.56 580.89 371.17 583.16 C 362.94 590.39 354.98 598.00 347.97 606.44 C 349.51 606.75 351.05 607.07 352.59 607.40 C 352.00 608.16 350.81 609.68 350.22 610.44 C 352.21 610.26 354.23 610.31 356.22 610.04 C 360.83 610.42 365.44 609.82 369.98 609.07 C 370.40 603.13 372.11 597.38 374.44 591.93 C 376.68 587.83 378.77 583.63 381.34 579.73 C 384.54 574.75 390.61 569.85 396.85 572.26 C 398.27 572.80 401.27 574.15 399.24 575.92 C 391.88 584.12 387.46 595.11 387.21 606.13 C 387.98 605.90 388.76 605.68 389.53 605.44 C 391.20 605.00 392.37 603.66 393.55 602.51 C 399.46 596.25 402.90 588.25 406.66 580.64 C 408.55 576.81 411.11 573.00 415.04 571.05 C 419.27 569.03 425.39 569.29 427.92 573.80 L 427.08 574.37 C 426.63 574.68 425.72 575.30 425.27 575.61 C 425.38 574.83 425.59 573.25 425.69 572.46 C 424.22 572.60 422.41 572.00 421.37 573.39 C 416.77 578.17 415.01 584.93 414.51 591.38 C 413.83 601.17 414.43 611.05 412.86 620.78 C 409.71 620.56 406.55 620.48 403.40 620.66 C 406.84 621.88 410.48 622.33 414.11 622.56 C 415.76 611.38 414.38 599.97 416.54 588.86 C 417.56 584.23 419.01 578.96 423.67 576.73 C 421.32 580.19 419.08 583.85 418.18 587.99 C 415.50 599.96 417.54 612.35 415.39 624.39 C 411.86 624.01 408.31 623.88 404.78 624.22 C 409.23 625.03 413.72 625.56 418.19 626.19 C 424.64 627.34 431.28 628.16 437.34 630.77 C 439.90 631.69 441.20 634.18 442.55 636.35 C 440.18 640.50 435.82 643.43 430.95 643.36 C 428.33 641.98 426.12 639.95 423.54 638.49 C 410.77 631.46 394.76 630.57 381.39 636.48 C 374.24 639.73 367.22 644.16 362.78 650.81 C 360.80 653.58 359.64 657.51 362.57 660.08 C 366.02 660.03 369.48 659.28 372.40 657.37 C 380.45 652.44 387.36 645.55 392.10 637.37 C 392.82 636.07 393.50 634.77 394.19 633.47 C 400.25 633.25 406.54 633.75 411.90 636.89 C 411.63 637.51 411.09 638.74 410.82 639.35 C 404.42 656.29 388.72 669.04 370.94 672.19 C 363.14 674.17 354.03 674.12 347.88 668.20 C 345.14 664.81 343.95 660.17 345.09 655.93 C 346.56 649.88 351.05 645.15 355.61 641.17 C 357.71 639.45 359.91 637.87 362.08 636.25 C 353.75 636.55 345.57 638.28 337.36 639.59 C 292.67 647.44 248.35 657.57 204.95 670.86 C 210.71 666.65 218.01 665.88 224.59 663.57 C 263.32 652.74 302.65 644.03 342.30 637.29 C 348.07 636.18 354.28 636.28 359.44 633.11 C 350.54 632.81 341.86 635.20 333.11 636.42 C 293.23 643.57 253.57 652.24 214.71 663.77 C 205.20 666.70 195.75 669.85 186.42 673.32 C 184.31 674.00 182.52 675.31 181.17 677.08 C 189.22 676.79 195.84 670.95 203.97 671.20 C 198.99 673.28 193.89 675.03 188.86 676.98 C 186.60 677.90 184.16 678.35 181.72 678.24 L 180.09 678.20 C 180.28 674.00 183.03 670.67 185.37 667.43 C 188.24 663.50 192.31 660.43 196.99 659.05 C 203.97 656.99 211.05 655.29 218.10 653.48 C 230.84 650.18 243.69 647.35 256.46 644.20 C 296.59 635.77 337.19 629.49 378.06 626.02 C 381.57 625.69 385.09 625.41 388.61 625.12 C 391.62 624.85 394.64 624.66 397.66 624.49 C 398.82 620.42 399.82 616.30 400.66 612.15 C 401.29 609.36 401.61 606.51 401.93 603.67 C 397.01 610.47 392.16 617.88 384.48 621.84 C 389.95 614.84 399.12 609.70 399.85 599.92 C 395.16 605.51 391.26 611.93 385.27 616.29 C 382.59 618.38 379.20 619.08 376.00 619.96 C 378.41 620.83 380.83 621.66 383.26 622.48 C 379.91 623.26 376.40 622.57 373.82 620.24 C 373.42 619.62 373.03 619.01 372.65 618.40 C 371.92 617.20 371.22 616.02 370.50 614.83 C 368.72 617.89 367.28 622.54 362.97 622.50 C 351.91 622.80 340.68 622.65 329.85 625.32 C 329.42 624.94 328.55 624.18 328.12 623.80 C 328.26 621.98 328.62 620.17 329.30 618.49 C 330.88 618.56 332.47 618.63 334.06 618.69 C 335.79 614.63 338.35 611.04 340.95 607.51 C 337.13 610.60 334.00 614.42 330.27 617.59 C 332.44 612.33 337.37 609.10 340.93 604.88 C 346.26 599.56 351.64 594.29 356.97 588.97 C 358.61 587.37 360.25 585.77 361.88 584.17 C 356.77 584.72 351.54 585.07 346.65 586.77 C 344.85 587.22 344.26 589.14 343.48 590.60 C 338.34 602.00 332.76 613.84 323.13 622.17 C 319.71 625.34 315.08 626.47 310.54 626.71 C 309.52 624.99 308.64 623.19 307.90 621.35 C 307.75 619.12 307.77 616.89 307.77 614.68 C 303.46 619.98 298.80 625.55 292.28 628.14 C 289.15 629.44 285.77 628.46 282.77 627.32 C 282.37 626.66 281.97 626.01 281.59 625.36 C 280.83 624.10 280.07 622.85 279.31 621.61 C 267.17 633.60 252.03 642.67 235.73 647.74 C 226.72 650.14 215.65 651.93 207.92 645.36 C 206.26 643.05 204.99 640.39 204.71 637.54 C 204.84 635.33 205.12 633.13 205.55 630.97 C 210.37 616.20 223.53 606.13 236.73 599.06 C 239.06 597.86 241.43 596.75 243.82 595.67 C 238.67 595.69 233.42 595.10 228.78 592.71 C 226.78 590.32 225.14 587.18 225.97 583.99 C 227.40 577.40 232.86 572.73 238.03 568.89 C 251.59 559.47 267.85 554.84 283.96 552.12 M 311.94 557.04 C 310.46 561.13 307.91 564.87 304.02 567.00 C 299.58 570.24 293.31 570.34 289.77 574.87 C 297.86 573.52 306.77 570.73 311.57 563.60 C 313.08 561.65 312.62 559.19 311.94 557.04 M 234.46 574.45 C 230.18 578.12 227.07 583.52 228.27 589.33 C 230.13 588.42 231.91 587.36 233.65 586.24 C 233.50 583.01 234.16 579.72 236.16 577.12 C 240.99 570.57 247.98 566.09 254.95 562.11 C 247.53 565.09 240.43 569.09 234.46 574.45 M 297.48 561.11 C 297.42 563.49 297.44 565.89 297.51 568.28 C 298.78 565.96 299.26 563.32 297.48 561.11 M 394.28 575.23 C 390.49 579.93 388.17 585.64 386.40 591.37 C 385.41 594.92 384.01 598.71 385.37 602.37 C 387.02 597.07 388.04 591.54 390.50 586.52 C 392.44 581.94 395.68 578.13 398.26 573.93 C 396.91 574.25 395.13 573.85 394.28 575.23 M 345.90 575.91 C 343.60 576.24 343.74 579.00 342.94 580.67 C 346.30 577.56 350.91 576.87 355.16 575.73 C 352.08 575.64 348.94 575.27 345.90 575.91 M 383.81 580.02 C 380.48 586.65 377.36 593.43 375.33 600.59 C 374.12 605.45 372.11 611.28 375.26 615.79 C 377.26 618.29 380.37 616.96 382.23 615.05 C 379.72 613.94 377.83 611.86 377.92 608.99 C 377.57 599.02 381.15 589.48 383.81 580.02 M 305.85 584.82 C 299.05 591.01 293.89 600.03 294.27 609.42 C 296.77 604.94 297.53 599.69 300.39 595.40 C 303.75 589.90 308.69 585.59 314.22 582.37 C 311.33 579.64 308.12 582.88 305.85 584.82 M 342.87 583.77 C 340.20 587.75 338.85 592.43 336.55 596.61 C 332.16 604.79 327.50 613.20 320.15 619.12 C 317.28 621.44 313.67 622.45 310.20 623.46 C 310.47 623.81 311.01 624.52 311.29 624.87 C 317.91 625.28 324.24 620.95 326.84 614.95 C 328.42 611.40 331.57 609.02 333.96 606.07 C 338.33 600.00 340.38 592.63 344.22 586.29 C 348.90 583.65 354.93 584.69 359.28 581.25 C 353.73 581.00 348.06 581.79 342.87 583.77 M 302.64 594.71 C 299.31 600.11 296.18 606.32 296.73 612.84 L 297.40 612.51 L 297.26 612.58 C 297.77 612.71 298.78 612.96 299.28 613.08 C 303.42 609.23 307.24 605.03 310.26 600.23 C 312.69 596.27 315.98 592.61 316.87 587.92 C 316.60 586.72 316.34 585.53 316.09 584.35 C 310.03 584.96 306.30 590.46 302.64 594.71 M 230.01 591.33 C 233.40 593.32 237.41 594.59 241.09 592.54 C 237.41 592.02 233.71 591.63 230.01 591.33 M 311.84 607.64 C 310.09 611.78 309.85 616.34 310.45 620.76 C 311.11 620.47 312.44 619.89 313.10 619.60 C 312.61 615.61 312.09 611.64 311.84 607.64 M 207.74 631.04 C 206.44 635.86 207.66 642.43 213.16 643.95 C 223.19 646.45 233.34 642.33 242.32 638.12 C 234.47 639.44 226.45 642.19 218.45 640.28 C 215.26 639.46 212.97 636.33 213.16 633.04 C 213.26 623.69 219.25 615.92 225.12 609.21 C 217.28 614.37 210.07 621.69 207.74 631.04 M 293.62 622.68 C 290.80 624.68 287.32 625.17 284.00 625.73 C 288.03 628.94 293.40 626.70 296.97 623.88 C 301.04 620.53 305.78 616.68 305.79 610.90 C 301.85 614.94 298.61 619.81 293.62 622.68 M 359.96 619.19 C 350.87 619.34 341.73 619.30 332.71 620.60 C 331.17 620.79 328.66 621.66 330.22 623.55 C 340.35 621.56 350.70 621.21 361.01 621.15 C 366.13 621.85 369.65 615.90 368.41 611.39 C 366.05 614.33 364.51 619.32 359.96 619.19 M 247.68 638.59 C 239.86 642.31 231.62 645.44 222.95 646.25 C 219.23 646.49 215.52 646.20 211.80 646.27 C 220.24 650.78 229.42 646.25 237.97 644.62 C 246.68 643.07 254.39 638.40 261.79 633.78 C 267.29 630.08 272.89 626.27 277.27 621.23 C 278.19 620.26 277.14 618.90 277.18 617.79 C 268.62 626.36 258.49 633.21 247.68 638.59 M 364.34 642.32 C 360.78 645.71 357.49 650.24 358.31 655.45 C 360.81 652.15 362.26 648.11 365.31 645.23 C 369.30 641.37 374.09 638.44 379.02 635.95 C 382.69 634.05 386.86 633.39 390.49 631.41 C 391.90 630.73 393.31 629.68 394.98 629.93 C 400.60 630.25 406.09 631.88 411.76 631.80 L 410.59 630.78 C 417.59 632.46 425.06 634.52 430.22 639.85 C 431.80 639.52 433.40 639.13 434.85 638.39 C 432.96 636.03 430.12 634.73 427.43 633.51 C 419.96 630.53 411.83 628.96 403.78 629.49 C 389.51 627.44 374.96 632.88 364.34 642.32 M 405.91 640.97 C 396.35 660.59 373.31 672.03 351.90 669.33 C 357.89 672.90 365.19 671.96 371.68 670.52 C 389.07 667.10 404.94 653.99 409.97 636.78 C 407.47 636.71 406.89 639.22 405.91 640.97 M 346.76 655.53 C 344.84 660.63 349.44 665.56 354.09 666.90 C 360.96 668.74 368.27 667.47 374.93 665.32 C 374.42 664.28 373.77 663.32 373.21 662.34 C 367.69 663.79 361.77 665.66 356.09 664.00 C 351.22 662.57 349.39 656.44 351.17 652.05 C 352.93 647.53 356.77 644.35 359.51 640.47 C 354.10 644.27 349.12 649.24 346.76 655.53 M 200.37 659.46 C 195.88 660.33 192.41 663.51 189.77 667.08 C 202.91 660.16 217.48 656.78 231.48 652.12 C 220.92 653.55 210.70 656.88 200.37 659.46 Z" />
<path fill="#ba871e" opacity="1.00" d=" M 163.37 574.08 C 157.70 567.74 163.80 556.66 172.01 557.22 C 175.31 557.26 177.48 560.21 178.53 563.03 C 178.18 567.70 176.01 572.64 171.41 574.51 C 168.84 575.92 165.92 575.05 163.37 574.08 M 164.26 564.27 C 163.02 566.35 161.45 569.37 164.28 570.97 C 164.98 566.96 165.97 562.92 168.67 559.75 C 167.06 561.11 165.37 562.44 164.26 564.27 M 175.89 560.98 C 175.03 563.56 174.43 566.41 172.42 568.40 C 170.28 570.88 166.92 571.50 163.98 572.56 C 170.88 576.93 179.37 567.85 175.89 560.98 Z" />
<path fill="#ba871e" opacity="1.00" d=" M 204.05 579.23 C 207.85 573.90 215.94 571.62 221.32 575.97 C 220.99 576.40 220.31 577.27 219.97 577.71 C 215.76 582.86 211.89 588.43 209.85 594.83 C 206.32 605.37 205.14 616.54 201.09 626.93 C 202.18 627.24 203.28 627.56 204.38 627.89 C 204.19 628.82 203.83 630.68 203.65 631.61 C 203.45 632.37 203.26 633.15 203.07 633.94 C 201.78 633.74 200.50 633.56 199.22 633.37 C 195.00 642.04 190.51 650.77 183.75 657.77 C 185.97 651.80 190.66 647.28 193.42 641.60 C 195.61 637.67 196.55 632.14 201.74 631.14 C 202.15 630.49 202.56 629.85 202.97 629.22 C 200.75 629.73 198.53 630.22 196.29 630.68 C 189.64 644.82 180.56 658.87 166.26 666.22 C 158.31 671.12 148.78 671.50 139.73 671.31 C 148.80 675.09 159.26 673.22 167.68 668.62 C 172.78 666.18 176.62 661.73 181.95 659.68 C 173.14 668.74 160.88 675.47 147.94 674.73 C 143.23 674.79 138.78 672.80 135.16 669.90 C 132.04 665.93 130.44 660.42 132.38 655.57 C 134.92 649.54 139.66 644.67 144.95 640.94 C 152.80 635.43 161.93 632.03 171.17 629.70 C 175.98 628.55 181.00 628.01 185.58 626.08 C 189.12 621.74 190.50 616.09 192.13 610.84 C 187.19 616.70 181.82 622.81 174.40 625.47 C 171.59 626.55 168.57 625.89 165.76 625.18 C 165.16 624.38 164.63 623.54 164.16 622.67 C 163.46 621.33 162.81 619.96 162.15 618.62 C 158.85 622.48 155.78 627.04 150.89 629.00 C 147.72 630.32 144.19 629.77 141.13 628.45 C 139.14 625.73 138.34 622.27 138.98 618.96 C 140.80 606.73 146.86 595.67 153.07 585.16 C 155.25 580.86 160.56 579.48 165.03 579.62 C 166.79 579.64 169.69 581.04 168.27 583.15 C 162.39 592.97 156.64 603.25 154.49 614.60 C 155.67 613.91 156.92 613.33 158.04 612.54 C 164.69 608.43 166.13 600.28 170.15 594.13 C 175.04 586.03 181.57 577.66 191.18 575.25 C 195.85 573.90 200.88 575.65 204.05 579.23 M 209.69 585.61 C 203.87 597.61 203.43 611.27 198.45 623.56 C 198.96 623.54 199.97 623.48 200.48 623.46 C 203.14 618.05 203.99 611.99 205.28 606.16 C 207.26 597.20 209.93 588.05 215.80 580.80 C 217.07 578.97 219.31 577.12 218.07 574.67 C 214.07 577.23 211.84 581.55 209.69 585.61 M 190.95 579.86 C 184.85 584.40 181.34 591.48 178.30 598.27 C 177.05 600.80 176.81 603.64 177.10 606.43 C 181.76 596.79 185.57 585.09 196.07 580.26 C 194.47 579.58 192.54 578.56 190.95 579.86 M 165.10 580.98 C 161.78 585.93 158.96 591.21 156.65 596.71 C 154.71 601.43 152.21 606.12 152.15 611.35 C 154.94 609.32 155.24 605.62 156.59 602.69 C 159.21 595.45 163.33 588.93 166.90 582.15 C 166.45 581.86 165.55 581.27 165.10 580.98 M 182.92 583.10 C 176.25 590.03 169.73 597.66 166.67 606.94 C 165.28 611.03 165.03 616.47 169.28 618.98 C 169.12 605.69 175.93 593.89 182.92 583.10 M 185.51 592.62 C 182.49 597.78 179.26 603.25 179.22 609.42 C 179.83 609.51 181.06 609.67 181.67 609.76 L 181.79 609.41 C 190.92 604.79 196.96 595.41 199.28 585.64 C 198.12 584.20 197.30 581.62 194.95 582.65 C 190.57 584.50 187.97 588.78 185.51 592.62 M 145.51 604.56 C 143.32 609.61 141.06 614.86 141.22 620.48 C 144.52 618.43 144.90 614.37 145.87 610.97 C 147.69 603.71 150.72 596.84 152.93 589.71 C 150.16 594.50 147.76 599.51 145.51 604.56 M 176.66 619.66 C 173.62 621.61 170.04 622.35 166.64 623.42 C 168.51 624.19 170.51 625.18 172.58 624.54 C 178.04 623.12 182.44 619.22 186.24 615.23 C 188.17 613.33 188.61 610.58 189.10 608.05 C 185.37 612.33 181.55 616.67 176.66 619.66 M 171.41 614.74 C 171.36 615.87 171.33 617.01 171.30 618.17 C 173.91 617.65 176.14 616.21 178.18 614.57 C 175.92 614.62 173.66 614.70 171.41 614.74 M 150.40 624.49 C 147.84 626.06 144.75 626.17 141.87 626.74 C 143.48 627.48 145.07 628.59 146.93 628.37 C 152.49 628.13 156.27 623.39 159.56 619.46 C 160.90 618.16 160.49 616.38 160.10 614.79 C 156.96 618.10 154.39 622.09 150.40 624.49 M 156.04 640.06 C 150.51 644.12 144.39 649.81 145.38 657.38 C 149.01 651.11 152.79 643.11 160.77 641.83 C 155.36 645.69 149.62 650.22 147.90 656.97 C 147.08 658.99 148.67 660.71 149.55 662.38 C 157.45 661.83 163.85 656.55 169.33 651.31 C 173.04 647.44 176.89 643.56 179.39 638.76 C 181.17 637.42 181.83 635.08 182.98 633.26 C 175.42 634.89 168.32 638.02 161.43 641.43 C 164.20 637.69 168.82 636.37 172.96 634.77 C 175.73 633.70 179.22 633.14 180.39 629.98 C 171.71 631.61 163.42 635.24 156.04 640.06 M 136.09 654.95 C 135.06 658.00 136.19 661.23 138.34 663.50 C 139.05 659.03 138.91 654.24 141.20 650.18 C 143.18 646.08 146.67 643.06 149.89 639.96 C 143.66 642.98 137.62 647.85 136.09 654.95 Z" />
</g>
<g id="#86026eff">
<path fill="#86026e" opacity="1.00" d=" M 113.01 296.32 C 117.13 304.10 121.48 311.73 126.03 319.26 C 123.36 317.31 120.60 315.47 117.70 313.89 C 115.19 324.07 114.88 334.64 114.43 345.07 C 116.79 349.87 117.89 355.12 118.94 360.33 C 121.57 356.96 123.81 353.25 125.20 349.19 C 127.88 341.91 124.93 334.04 127.08 326.65 C 131.17 332.72 131.85 340.57 129.50 347.44 C 127.02 354.57 123.90 361.49 120.34 368.15 C 120.73 368.49 121.51 369.17 121.89 369.51 C 121.64 371.05 121.41 372.60 121.17 374.14 C 124.72 361.61 136.82 353.43 149.06 350.82 C 155.98 349.05 163.57 352.95 166.79 359.19 C 168.01 361.62 167.55 364.45 167.73 367.08 C 165.17 373.64 158.21 376.64 151.59 377.06 C 150.31 376.73 149.07 376.31 147.82 375.91 C 151.72 375.03 156.24 373.97 158.39 370.22 C 159.16 368.13 159.10 365.31 157.10 363.92 C 153.83 360.92 149.07 361.17 144.95 361.49 C 137.45 362.48 130.13 366.27 125.86 372.67 C 128.54 373.33 132.25 373.29 133.41 376.38 C 133.82 378.57 134.09 381.50 131.97 382.94 C 130.01 384.12 127.62 384.22 125.43 384.72 C 125.38 389.65 128.18 394.30 132.75 396.28 C 136.39 397.38 140.23 397.27 143.99 397.46 C 138.46 401.97 129.75 401.21 124.83 396.16 C 121.90 393.44 120.57 389.57 119.37 385.87 C 118.67 388.13 117.93 390.38 117.06 392.58 C 120.78 398.33 125.44 405.27 132.98 405.68 C 138.17 406.26 144.71 405.14 147.07 399.83 C 147.50 399.03 148.36 397.43 148.79 396.63 C 150.25 401.08 148.55 406.15 144.64 408.74 C 140.28 411.84 134.67 411.41 129.65 410.75 C 127.09 418.28 120.04 422.50 113.90 426.85 C 113.67 420.74 113.78 414.62 113.81 408.51 C 113.88 401.26 113.93 394.01 113.53 386.78 C 111.33 393.88 109.85 401.82 104.13 407.09 C 98.18 413.16 87.37 413.96 81.02 408.10 C 78.14 405.59 77.52 401.67 77.14 398.08 C 80.22 401.05 83.33 404.60 87.85 405.18 C 97.20 406.73 106.03 399.62 109.24 391.19 C 107.71 391.64 106.18 392.11 104.65 392.59 C 103.80 390.20 102.94 387.82 101.94 385.51 C 101.86 385.33 101.71 384.98 101.64 384.80 C 98.45 384.83 95.65 383.51 93.66 381.04 C 97.04 381.78 100.47 382.38 103.94 382.24 C 111.10 382.00 118.27 382.34 125.42 382.13 C 127.37 381.17 128.84 379.58 129.98 377.77 C 128.50 376.81 127.00 375.87 125.43 375.07 C 115.43 375.45 105.43 375.08 95.44 374.83 C 97.29 373.85 99.29 373.23 101.29 372.62 C 96.46 365.32 87.53 361.65 78.99 361.54 C 74.56 361.41 69.94 363.63 68.39 368.00 C 70.42 373.54 76.45 375.91 81.97 375.68 C 76.39 377.68 70.32 378.57 64.47 377.23 C 61.53 375.72 58.38 373.94 57.53 370.47 C 61.62 372.54 65.54 375.09 70.09 376.12 C 66.08 373.70 60.66 371.39 60.21 366.04 C 59.02 355.93 70.80 348.60 79.92 350.55 C 92.23 353.40 103.25 362.18 108.29 373.84 C 109.03 373.94 110.52 374.13 111.27 374.22 C 109.46 366.43 105.49 359.40 101.22 352.71 C 96.87 345.55 95.89 336.76 96.97 328.57 C 98.18 332.74 98.91 337.10 100.88 341.00 C 102.37 343.88 106.24 344.67 107.37 347.82 C 110.46 355.71 111.74 364.15 113.99 372.29 C 114.81 365.88 114.85 359.40 115.18 352.95 C 115.46 348.55 113.45 344.42 113.42 340.04 C 113.31 335.24 113.61 330.43 113.31 325.63 C 113.23 317.96 112.93 310.30 112.44 302.64 C 112.55 300.53 112.80 298.42 113.01 296.32 Z" />
<path fill="#86026e" opacity="1.00" d=" M 125.80 362.09 C 127.24 357.84 130.15 352.65 135.39 353.19 C 132.53 356.51 128.80 358.90 125.80 362.09 Z" />
<path fill="#86026e" opacity="1.00" d=" M 172.08 358.02 C 172.68 358.26 173.87 358.75 174.47 359.00 C 174.22 362.17 174.34 365.60 172.61 368.41 C 171.17 371.02 168.55 372.59 166.17 374.21 C 166.95 372.81 167.79 371.46 168.61 370.08 C 171.16 366.57 171.67 362.20 172.08 358.02 Z" />
<path fill="#86026e" opacity="1.00" d=" M 232.21 393.19 C 241.37 388.15 251.30 383.27 261.99 383.38 C 267.62 383.27 273.06 386.48 275.24 391.75 C 270.84 387.13 264.26 387.02 258.35 387.36 C 255.73 387.40 253.10 387.27 250.51 387.73 C 246.85 388.49 243.99 391.06 241.08 393.24 C 232.69 398.24 223.79 402.80 217.03 410.04 C 213.90 413.21 211.92 417.24 210.00 421.20 C 207.20 417.54 209.42 413.05 211.77 409.84 C 217.04 402.67 224.61 397.62 232.21 393.19 Z" />
<path fill="#86026e" opacity="1.00" d=" M 258.60 391.31 C 259.21 391.56 260.41 392.05 261.01 392.30 C 260.64 394.85 260.19 397.46 258.82 399.70 C 253.43 409.15 247.84 418.47 242.49 427.94 C 240.69 428.59 238.86 429.17 237.05 429.78 C 243.81 416.73 252.35 404.62 258.60 391.31 Z" />
<path fill="#86026e" opacity="1.00" d=" M 295.90 393.24 C 299.90 399.44 300.42 407.44 297.32 414.14 C 292.40 426.34 280.22 433.44 268.28 437.39 C 263.78 436.53 259.21 436.08 254.67 435.50 C 269.04 433.80 284.11 427.87 292.39 415.39 C 296.91 409.01 297.89 400.70 295.90 393.24 Z" />
<path fill="#86026e" opacity="1.00" d=" M 226.83 417.00 C 228.36 415.78 230.24 415.16 232.01 414.39 C 228.38 420.80 224.53 427.09 220.24 433.08 C 214.84 438.33 207.78 442.69 199.98 442.25 C 195.32 441.93 189.56 440.79 187.81 435.78 C 193.48 438.44 200.16 439.39 206.11 437.08 C 215.52 433.64 221.84 425.28 226.83 417.00 Z" />
<path fill="#86026e" opacity="1.00" d=" M 232.83 441.62 C 240.42 439.92 248.64 440.25 255.90 443.19 C 260.01 444.75 263.38 447.82 265.50 451.65 C 257.19 444.60 245.39 443.23 235.05 445.56 C 232.76 445.93 231.99 448.41 231.04 450.18 C 227.47 458.38 224.89 467.07 223.74 475.95 C 223.13 480.11 223.78 484.30 224.69 488.37 C 220.50 491.54 215.29 493.47 209.99 492.73 C 206.55 492.77 204.34 489.85 202.60 487.30 C 209.19 490.43 216.96 488.92 222.50 484.38 C 221.38 480.07 220.89 475.57 221.60 471.15 C 222.91 462.45 225.41 453.92 228.98 445.88 C 229.90 444.22 230.70 441.97 232.83 441.62 Z" />
<path fill="#86026e" opacity="1.00" d=" M 286.71 451.07 C 290.87 457.51 290.23 465.65 288.81 472.83 C 285.64 487.04 275.07 498.38 263.03 505.94 C 250.24 513.98 235.49 518.50 220.55 520.29 C 209.59 521.25 198.10 520.85 187.94 516.20 C 183.96 514.22 179.79 511.70 177.94 507.45 C 183.36 511.71 189.80 514.58 196.60 515.71 C 209.07 517.88 221.95 516.60 234.15 513.46 C 250.31 509.04 266.12 501.09 276.99 488.02 C 285.45 477.96 289.73 464.05 286.71 451.07 Z" />
<path fill="#86026e" opacity="1.00" d=" M 192.73 476.03 C 193.97 467.89 198.70 460.83 203.73 454.53 C 204.61 454.48 206.36 454.38 207.24 454.34 C 206.14 456.55 205.05 458.77 203.93 460.98 C 201.51 464.64 198.87 468.22 197.19 472.31 C 195.55 476.08 195.01 480.19 193.91 484.13 C 192.90 481.56 192.21 478.79 192.73 476.03 Z" />
<path fill="#86026e" opacity="1.00" d=" M 77.04 566.04 C 86.54 560.70 96.81 555.37 107.97 555.39 C 113.42 555.26 118.60 558.25 121.18 563.04 C 118.51 561.67 115.87 559.98 112.84 559.58 C 110.03 559.28 107.20 559.46 104.39 559.46 C 101.30 559.51 98.10 559.20 95.13 560.25 C 92.07 561.29 89.65 563.52 87.10 565.43 C 78.51 570.48 69.44 575.18 62.64 582.66 C 59.76 585.79 57.99 589.70 55.91 593.37 C 55.09 590.92 54.29 588.23 55.67 585.83 C 60.00 576.81 68.79 571.12 77.04 566.04 Z" />
<path fill="#86026e" opacity="1.00" d=" M 314.59 558.82 C 318.60 563.78 315.03 570.33 310.39 573.36 C 303.21 578.25 294.38 580.65 285.74 580.82 C 287.91 579.16 290.08 577.48 292.45 576.13 C 298.40 574.33 304.63 572.55 309.45 568.43 C 312.47 566.11 313.94 562.46 314.59 558.82 Z" />
<path fill="#86026e" opacity="1.00" d=" M 178.53 563.03 C 184.32 569.72 176.14 581.13 168.00 578.89 C 165.62 578.30 164.49 576.01 163.37 574.08 C 165.92 575.05 168.84 575.92 171.41 574.51 C 176.01 572.64 178.18 567.70 178.53 563.03 Z" />
<path fill="#86026e" opacity="1.00" d=" M 266.43 568.49 C 274.32 565.61 282.46 562.30 291.03 562.89 C 292.85 563.13 296.78 564.09 295.04 566.60 C 282.77 566.51 270.57 570.47 260.58 577.58 C 257.87 579.44 255.86 582.08 254.09 584.82 C 253.05 583.37 251.76 581.57 252.75 579.74 C 255.50 574.56 261.17 572.02 265.80 568.80 C 265.96 568.73 266.27 568.57 266.43 568.49 Z" />
<path fill="#86026e" opacity="1.00" d=" M 104.95 562.82 C 105.73 563.83 106.57 564.81 107.21 565.93 C 106.70 568.82 105.19 571.38 103.77 573.90 C 98.72 582.60 93.62 591.27 88.63 600.00 C 86.82 600.63 84.99 601.19 83.17 601.77 C 87.46 593.95 92.10 586.33 96.53 578.59 C 99.45 573.40 102.84 568.42 104.95 562.82 Z" />
<path fill="#86026e" opacity="1.00" d=" M 142.26 565.81 C 146.25 571.97 146.33 579.95 143.33 586.54 C 138.13 598.44 126.13 606.15 113.88 609.25 C 110.40 608.79 106.92 608.29 103.46 607.73 C 109.26 605.89 115.34 604.82 120.83 602.09 C 129.98 597.84 138.33 590.68 141.76 580.96 C 143.59 576.11 143.47 570.78 142.26 565.81 Z" />
<path fill="#86026e" opacity="1.00" d=" M 425.27 575.61 C 425.72 575.30 426.63 574.68 427.08 574.37 C 428.07 575.27 429.05 576.17 430.04 577.08 C 425.36 581.05 421.50 586.16 420.33 592.31 C 418.13 603.46 419.04 614.91 418.19 626.19 C 413.72 625.56 409.23 625.03 404.78 624.22 C 408.31 623.88 411.86 624.01 415.39 624.39 C 417.54 612.35 415.50 599.96 418.18 587.99 C 419.08 583.85 421.32 580.19 423.67 576.73 C 424.19 576.34 424.73 575.97 425.27 575.61 Z" />
<path fill="#86026e" opacity="1.00" d=" M 387.21 606.13 C 387.46 595.11 391.88 584.12 399.24 575.92 C 400.39 576.80 401.54 577.71 402.70 578.61 C 395.18 585.63 391.64 595.63 389.53 605.44 C 388.76 605.68 387.98 605.90 387.21 606.13 Z" />
<path fill="#86026e" opacity="1.00" d=" M 209.85 594.83 C 211.89 588.43 215.76 582.86 219.97 577.71 C 221.01 578.58 223.03 578.95 222.78 580.70 C 220.40 584.31 217.34 587.46 215.33 591.32 C 209.07 602.63 208.79 615.92 204.38 627.89 C 203.28 627.56 202.18 627.24 201.09 626.93 C 205.14 616.54 206.32 605.37 209.85 594.83 Z" />
<path fill="#86026e" opacity="1.00" d=" M 379.35 578.49 C 379.85 578.80 380.84 579.42 381.34 579.73 C 378.77 583.63 376.68 587.83 374.44 591.93 C 367.99 597.57 361.91 603.62 356.22 610.04 C 354.23 610.31 352.21 610.26 350.22 610.44 C 350.81 609.68 352.00 608.16 352.59 607.40 C 352.97 606.89 353.35 606.38 353.73 605.89 C 358.86 600.98 363.58 595.64 368.93 590.95 C 372.96 587.33 377.57 583.85 379.35 578.49 Z" />
<path fill="#86026e" opacity="1.00" d=" M 326.77 597.74 C 329.72 591.82 332.80 585.96 335.76 580.04 C 337.64 581.00 338.47 583.19 337.43 585.07 C 333.35 593.18 328.94 601.19 326.02 609.82 C 324.87 610.49 323.71 611.13 322.54 611.75 C 323.22 607.88 324.18 604.06 325.58 600.39 C 325.98 599.50 326.38 598.62 326.77 597.74 Z" />
<path fill="#86026e" opacity="1.00" d=" M 185.51 592.62 C 187.97 588.78 190.57 584.50 194.95 582.65 C 197.30 581.62 198.12 584.20 199.28 585.64 C 196.50 586.90 193.68 588.33 191.79 590.80 C 187.32 596.29 183.94 602.66 181.79 609.41 L 181.67 609.76 C 181.06 609.67 179.83 609.51 179.22 609.42 C 179.26 603.25 182.49 597.78 185.51 592.62 Z" />
<path fill="#86026e" opacity="1.00" d=" M 154.49 614.60 C 156.64 603.25 162.39 592.97 168.27 583.15 C 169.55 584.23 171.68 585.57 170.25 587.47 C 165.32 595.37 161.27 603.80 158.04 612.54 C 156.92 613.33 155.67 613.91 154.49 614.60 Z" />
<path fill="#86026e" opacity="1.00" d=" M 346.65 586.77 C 351.54 585.07 356.77 584.72 361.88 584.17 C 360.25 585.77 358.61 587.37 356.97 588.97 C 353.81 589.63 350.18 589.54 347.48 591.48 C 344.68 595.61 343.40 600.55 340.93 604.88 C 337.37 609.10 332.44 612.33 330.27 617.59 C 330.03 617.82 329.54 618.26 329.30 618.49 C 328.62 620.17 328.26 621.98 328.12 623.80 C 324.14 627.60 319.19 630.29 313.67 630.91 C 312.59 629.53 311.51 628.15 310.54 626.71 C 315.08 626.47 319.71 625.34 323.13 622.17 C 332.76 613.84 338.34 602.00 343.48 590.60 C 344.26 589.14 344.85 587.22 346.65 586.77 Z" />
<path fill="#86026e" opacity="1.00" d=" M 302.64 594.71 C 306.30 590.46 310.03 584.96 316.09 584.35 C 316.34 585.53 316.60 586.72 316.87 587.92 C 307.82 592.69 301.49 601.69 299.29 611.60 C 298.82 611.83 297.87 612.28 297.40 612.51 L 296.73 612.84 C 296.18 606.32 299.31 600.11 302.64 594.71 Z" />
<path fill="#86026e" opacity="1.00" d=" M 72.98 589.34 C 74.20 588.19 75.49 587.09 76.77 586.01 C 76.91 586.50 77.19 587.47 77.33 587.95 C 73.94 593.82 70.34 599.59 66.40 605.11 C 60.98 610.47 53.84 614.74 45.97 614.37 C 41.33 614.04 35.57 612.74 33.88 607.76 C 39.95 610.76 47.27 611.43 53.54 608.63 C 62.27 604.97 67.97 596.99 72.98 589.34 Z" />
<path fill="#86026e" opacity="1.00" d=" M 280.01 593.90 C 281.99 592.62 282.70 590.17 283.68 588.16 C 287.97 591.42 284.04 599.14 279.00 598.49 C 269.87 598.67 261.66 603.24 253.89 607.59 C 245.79 612.32 237.03 618.16 234.66 627.88 C 230.89 622.51 235.42 616.64 238.80 612.47 C 239.07 612.23 239.34 612.00 239.62 611.78 C 248.59 605.18 258.20 599.14 268.89 595.77 C 272.51 594.66 276.38 594.91 280.01 593.90 Z" />
<path fill="#86026e" opacity="1.00" d=" M 228.78 592.71 C 233.42 595.10 238.67 595.69 243.82 595.67 C 241.43 596.75 239.06 597.86 236.73 599.06 C 233.53 597.77 229.98 596.26 228.78 592.71 Z" />
<path fill="#86026e" opacity="1.00" d=" M 384.48 621.84 C 392.16 617.88 397.01 610.47 401.93 603.67 C 401.61 606.51 401.29 609.36 400.66 612.15 C 397.61 617.28 393.02 621.20 388.61 625.12 C 385.09 625.41 381.57 625.69 378.06 626.02 C 376.56 624.15 375.12 622.24 373.82 620.24 C 376.40 622.57 379.91 623.26 383.26 622.48 C 383.56 622.32 384.17 622.00 384.48 621.84 Z" />
<path fill="#86026e" opacity="1.00" d=" M 174.40 625.47 C 181.82 622.81 187.19 616.70 192.13 610.84 C 190.50 616.09 189.12 621.74 185.58 626.08 C 181.00 628.01 175.98 628.55 171.17 629.70 C 168.39 629.86 166.86 627.31 165.76 625.18 C 168.57 625.89 171.59 626.55 174.40 625.47 Z" />
<path fill="#86026e" opacity="1.00" d=" M 77.89 614.02 C 85.67 611.87 94.24 612.28 101.79 615.14 C 106.38 616.80 110.12 620.33 112.07 624.80 C 104.12 615.75 90.64 615.50 79.67 617.69 C 74.41 626.97 71.37 637.40 69.94 647.93 C 69.22 652.15 70.41 656.34 70.48 660.55 C 67.96 662.80 64.69 663.93 61.56 665.05 L 60.91 665.13 C 56.07 665.62 50.93 663.90 48.76 659.25 C 55.26 662.35 63.14 661.01 68.62 656.49 C 65.52 645.70 69.20 634.61 72.55 624.35 C 74.04 620.81 74.93 616.62 77.89 614.02 Z" />
<path fill="#86026e" opacity="1.00" d=" M 292.28 628.14 C 298.80 625.55 303.46 619.98 307.77 614.68 C 307.77 616.89 307.75 619.12 307.90 621.35 C 303.04 626.39 297.63 632.82 289.98 632.66 C 286.59 632.81 284.35 629.90 282.77 627.32 C 285.77 628.46 289.15 629.44 292.28 628.14 Z" />
<path fill="#86026e" opacity="1.00" d=" M 370.50 614.83 C 371.22 616.02 371.92 617.20 372.65 618.40 C 371.16 622.18 368.93 627.21 363.96 626.52 C 352.91 626.19 341.95 627.57 331.00 628.75 C 330.64 627.59 330.26 626.45 329.85 625.32 C 340.68 622.65 351.91 622.80 362.97 622.50 C 367.28 622.54 368.72 617.89 370.50 614.83 Z" />
<path fill="#86026e" opacity="1.00" d=" M 150.89 629.00 C 155.78 627.04 158.85 622.48 162.15 618.62 C 162.81 619.96 163.46 621.33 164.16 622.67 C 160.24 627.91 155.24 634.21 147.95 633.66 C 144.60 633.96 142.61 630.96 141.13 628.45 C 144.19 629.77 147.72 630.32 150.89 629.00 Z" />
<path fill="#86026e" opacity="1.00" d=" M 235.73 647.74 C 252.03 642.67 267.17 633.60 279.31 621.61 C 280.07 622.85 280.83 624.10 281.59 625.36 C 274.43 633.12 265.33 638.65 256.46 644.20 C 243.69 647.35 230.84 650.18 218.10 653.48 C 213.74 652.23 209.70 649.70 207.92 645.36 C 215.65 651.93 226.72 650.14 235.73 647.74 Z" />
<path fill="#86026e" opacity="1.00" d=" M 132.77 622.96 C 137.84 630.70 136.49 640.58 133.85 648.94 C 129.19 662.89 117.74 673.45 105.12 680.38 C 87.51 689.97 66.95 694.53 46.98 692.03 C 38.11 690.52 28.03 687.32 23.51 678.84 C 28.55 683.28 34.79 686.18 41.36 687.48 C 56.11 690.44 71.47 688.39 85.69 683.90 C 100.71 678.99 115.28 670.74 124.85 657.88 C 132.27 648.07 135.66 635.04 132.77 622.96 Z" />
<path fill="#86026e" opacity="1.00" d=" M 38.94 647.99 C 40.19 640.00 44.72 632.92 49.78 626.78 C 50.69 626.65 52.51 626.39 53.42 626.27 C 52.31 628.50 51.22 630.75 50.10 632.99 C 47.25 637.29 44.17 641.53 42.49 646.46 C 41.04 650.29 41.28 654.46 41.11 658.48 C 39.33 655.31 38.27 651.64 38.94 647.99 Z" />
<path fill="#86026e" opacity="1.00" d=" M 203.07 633.94 C 203.26 633.15 203.45 632.37 203.65 631.61 C 204.12 631.45 205.08 631.13 205.55 630.97 C 205.12 633.13 204.84 635.33 204.71 637.54 C 200.71 636.34 199.80 640.72 198.37 643.36 C 191.32 657.99 179.71 671.17 164.08 676.69 C 158.61 678.48 152.73 679.06 147.01 678.33 C 142.06 677.52 137.18 674.67 135.16 669.90 C 138.78 672.80 143.23 674.79 147.94 674.73 C 160.88 675.47 173.14 668.74 181.95 659.68 C 182.57 659.05 183.17 658.41 183.75 657.77 C 190.51 650.77 195.00 642.04 199.22 633.37 C 200.50 633.56 201.78 633.74 203.07 633.94 Z" />
<path fill="#86026e" opacity="1.00" d=" M 381.39 636.48 C 394.76 630.57 410.77 631.46 423.54 638.49 C 426.12 639.95 428.33 641.98 430.95 643.36 C 435.82 643.43 440.18 640.50 442.55 636.35 C 443.53 638.17 444.46 640.40 443.38 642.41 C 441.06 645.89 436.62 646.64 432.84 647.56 C 427.18 641.76 419.29 639.50 411.90 636.89 C 406.54 633.75 400.25 633.25 394.19 633.47 C 393.50 634.77 392.82 636.07 392.10 637.37 C 382.94 640.01 374.03 644.40 367.47 651.47 C 365.16 653.90 363.83 657.02 362.57 660.08 C 359.64 657.51 360.80 653.58 362.78 650.81 C 367.22 644.16 374.24 639.73 381.39 636.48 Z" />
<path fill="#86026e" opacity="1.00" d=" M 161.43 641.43 C 168.32 638.02 175.42 634.89 182.98 633.26 C 181.83 635.08 181.17 637.42 179.39 638.76 C 170.41 641.76 161.25 645.64 154.71 652.75 C 152.11 655.41 150.75 658.93 149.55 662.38 C 148.67 660.71 147.08 658.99 147.90 656.97 C 149.62 650.22 155.36 645.69 160.77 641.83 C 160.94 641.73 161.27 641.53 161.43 641.43 Z" />
<path fill="#86026e" opacity="1.00" d=" M 337.36 639.59 C 345.57 638.28 353.75 636.55 362.08 636.25 C 359.91 637.87 357.71 639.45 355.61 641.17 C 340.49 642.88 325.56 646.06 310.61 648.90 C 286.99 653.67 263.48 659.01 240.20 665.24 C 223.04 669.90 205.96 674.96 189.40 681.49 C 187.29 682.42 185.00 682.58 182.81 681.84 C 182.51 680.60 182.08 679.43 181.72 678.24 C 184.16 678.35 186.60 677.90 188.86 676.98 C 193.89 675.03 198.99 673.28 203.97 671.20 C 204.21 671.11 204.71 670.94 204.95 670.86 C 248.35 657.57 292.67 647.44 337.36 639.59 Z" />
<path fill="#86026e" opacity="1.00" d=" M 370.94 672.19 C 388.72 669.04 404.42 656.29 410.82 639.35 C 413.07 639.10 413.91 639.99 413.35 642.00 C 407.74 659.35 391.81 672.42 374.07 675.89 C 368.17 676.98 361.80 678.41 356.06 675.86 C 352.37 674.57 349.55 671.67 347.88 668.20 C 354.03 674.12 363.14 674.17 370.94 672.19 Z" />
</g>
<g id="#fdfdfaff">
<path fill="#fdfdfa" opacity="1.00" d=" M 111.62 300.99 C 111.82 301.40 112.23 302.23 112.44 302.64 C 112.93 310.30 113.23 317.96 113.31 325.63 C 112.47 322.03 111.92 318.22 109.94 315.02 C 108.83 313.05 106.35 313.05 104.43 312.45 C 107.01 308.75 109.23 304.81 111.62 300.99 Z" />
<path fill="#fdfdfa" opacity="1.00" d=" M 151.75 343.35 C 157.99 343.45 164.53 345.36 168.88 350.07 C 163.10 348.00 157.49 345.52 151.75 343.35 Z" />
<path fill="#fdfdfa" opacity="1.00" d=" M 52.53 360.43 C 54.07 354.02 58.85 348.11 65.51 346.72 C 61.58 351.64 57.21 356.23 52.53 360.43 Z" />
<path fill="#fdfdfa" opacity="1.00" d=" M 125.43 375.07 C 127.00 375.87 128.50 376.81 129.98 377.77 C 128.84 379.58 127.37 381.17 125.42 382.13 C 126.10 380.78 127.33 379.59 127.33 378.01 C 126.76 376.98 126.09 376.03 125.43 375.07 Z" />
<path fill="#fdfdfa" opacity="1.00" d=" M 278.24 385.76 C 280.25 389.19 282.08 392.94 281.76 397.04 C 281.86 401.50 279.13 405.36 275.94 408.23 C 277.12 404.53 278.72 400.92 279.07 397.02 C 279.53 393.24 278.64 389.50 278.24 385.76 Z" />
<path fill="#fdfdfa" opacity="1.00" d=" M 136.84 404.53 C 140.73 401.54 144.78 398.79 148.68 395.82 C 148.70 396.02 148.76 396.43 148.79 396.63 C 148.36 397.43 147.50 399.03 147.07 399.83 C 144.27 402.50 140.63 403.98 136.84 404.53 Z" />
<path fill="#fdfdfa" opacity="1.00" d=" M 86.53 403.42 C 91.33 401.75 96.33 400.68 101.17 399.13 C 97.13 402.57 91.87 404.63 86.53 403.42 Z" />
<path fill="#fdfdfa" opacity="1.00" d=" M 196.81 405.99 C 193.82 412.44 190.64 419.20 191.38 426.53 C 190.12 426.99 188.86 427.44 187.60 427.88 C 186.26 419.45 192.37 412.47 196.81 405.99 Z" />
<path fill="#fdfdfa" opacity="1.00" d=" M 105.72 419.20 C 109.52 416.62 112.59 413.00 113.81 408.51 C 113.78 414.62 113.67 420.74 113.90 426.85 C 111.25 424.21 108.44 421.75 105.72 419.20 Z" />
<path fill="#fdfdfa" opacity="1.00" d=" M 268.05 441.41 C 271.71 442.45 276.10 443.16 278.38 446.57 C 280.00 448.80 279.21 451.60 278.83 454.09 C 278.68 447.66 273.01 444.18 268.05 441.41 Z" />
<path fill="#fdfdfa" opacity="1.00" d=" M 214.57 444.82 C 211.08 455.63 207.17 466.65 207.66 478.19 C 206.20 477.70 204.74 477.25 203.29 476.75 C 202.89 470.14 205.73 464.02 208.17 458.05 C 210.13 453.56 212.14 449.08 214.57 444.82 Z" />
<path fill="#fdfdfa" opacity="1.00" d=" M 175.49 486.99 C 177.28 479.02 181.35 471.78 185.75 464.97 C 181.81 474.02 178.35 484.22 181.11 494.10 C 182.62 499.39 187.22 502.66 191.42 505.76 C 187.61 506.93 182.95 507.24 180.01 504.04 C 175.94 499.54 174.51 492.89 175.49 486.99 Z" />
<path fill="#fdfdfa" opacity="1.00" d=" M 124.30 557.78 C 126.61 561.42 128.41 565.57 127.84 569.99 C 127.80 574.23 124.92 577.64 121.98 580.39 C 123.30 576.66 124.90 572.96 125.25 568.99 C 125.71 565.21 124.80 561.49 124.30 557.78 Z" />
<path fill="#fdfdfa" opacity="1.00" d=" M 164.26 564.27 C 165.37 562.44 167.06 561.11 168.67 559.75 C 165.97 562.92 164.98 566.96 164.28 570.97 C 161.45 569.37 163.02 566.35 164.26 564.27 Z" />
<path fill="#fdfdfa" opacity="1.00" d=" M 234.46 574.45 C 240.43 569.09 247.53 565.09 254.95 562.11 C 247.98 566.09 240.99 570.57 236.16 577.12 C 234.16 579.72 233.50 583.01 233.65 586.24 C 231.91 587.36 230.13 588.42 228.27 589.33 C 227.07 583.52 230.18 578.12 234.46 574.45 Z" />
<path fill="#fdfdfa" opacity="1.00" d=" M 297.48 561.11 C 299.26 563.32 298.78 565.96 297.51 568.28 C 297.44 565.89 297.42 563.49 297.48 561.11 Z" />
<path fill="#fdfdfa" opacity="1.00" d=" M 345.90 575.91 C 348.94 575.27 352.08 575.64 355.16 575.73 C 350.91 576.87 346.30 577.56 342.94 580.67 C 343.74 579.00 343.60 576.24 345.90 575.91 Z" />
<path fill="#fdfdfa" opacity="1.00" d=" M 42.11 578.15 C 42.44 577.60 42.80 577.07 43.17 576.57 C 42.90 577.26 42.64 577.96 42.39 578.67 C 39.72 585.37 36.78 592.16 37.23 599.56 C 35.99 599.48 34.74 599.39 33.51 599.19 C 32.67 591.70 38.16 585.89 41.32 579.67 L 42.11 578.15 Z" />
<path fill="#fdfdfa" opacity="1.00" d=" M 383.81 580.02 C 381.15 589.48 377.57 599.02 377.92 608.99 C 377.83 611.86 379.72 613.94 382.23 615.05 C 380.37 616.96 377.26 618.29 375.26 615.79 C 372.11 611.28 374.12 605.45 375.33 600.59 C 377.36 593.43 380.48 586.65 383.81 580.02 Z" />
<path fill="#fdfdfa" opacity="1.00" d=" M 297.21 584.83 C 297.75 583.93 298.51 583.20 299.15 582.39 L 299.98 582.44 C 300.73 582.53 302.21 582.71 302.96 582.80 C 302.53 582.94 301.68 583.23 301.26 583.38 C 301.05 583.84 300.63 584.76 300.41 585.22 C 296.06 589.18 293.23 594.47 290.54 599.64 C 287.15 606.67 284.67 615.34 288.95 622.57 C 286.86 622.96 283.90 624.06 282.78 621.49 C 281.28 616.49 283.03 611.19 284.61 606.42 C 287.51 598.18 293.71 591.87 298.67 584.90 C 298.31 584.88 297.58 584.85 297.21 584.83 Z" />
<path fill="#fdfdfa" opacity="1.00" d=" M 182.92 583.10 C 175.93 593.89 169.12 605.69 169.28 618.98 C 165.03 616.47 165.28 611.03 166.67 606.94 C 169.73 597.66 176.25 590.03 182.92 583.10 Z" />
<path fill="#fdfdfa" opacity="1.00" d=" M 145.51 604.56 C 147.76 599.51 150.16 594.50 152.93 589.71 C 150.72 596.84 147.69 603.71 145.87 610.97 C 144.90 614.37 144.52 618.43 141.22 620.48 C 141.06 614.86 143.32 609.61 145.51 604.56 Z" />
<path fill="#fdfdfa" opacity="1.00" d=" M 311.84 607.64 C 312.09 611.64 312.61 615.61 313.10 619.60 C 312.44 619.89 311.11 620.47 310.45 620.76 C 309.85 616.34 310.09 611.78 311.84 607.64 Z" />
<path fill="#fdfdfa" opacity="1.00" d=" M 330.27 617.59 C 334.00 614.42 337.13 610.60 340.95 607.51 C 338.35 611.04 335.79 614.63 334.06 618.69 C 332.47 618.63 330.88 618.56 329.30 618.49 C 329.54 618.26 330.03 617.82 330.27 617.59 Z" />
<path fill="#fdfdfa" opacity="1.00" d=" M 207.74 631.04 C 210.07 621.69 217.28 614.37 225.12 609.21 C 219.25 615.92 213.26 623.69 213.16 633.04 C 212.97 636.33 215.26 639.46 218.45 640.28 C 226.45 642.19 234.47 639.44 242.32 638.12 C 233.34 642.33 223.19 646.45 213.16 643.95 C 207.66 642.43 206.44 635.86 207.74 631.04 Z" />
<path fill="#fdfdfa" opacity="1.00" d=" M 114.14 613.51 C 117.79 614.45 122.01 615.16 124.38 618.41 C 126.17 620.61 125.29 623.50 124.95 626.03 C 124.79 619.67 119.10 616.18 114.14 613.51 Z" />
<path fill="#fdfdfa" opacity="1.00" d=" M 171.41 614.74 C 173.66 614.70 175.92 614.62 178.18 614.57 C 176.14 616.21 173.91 617.65 171.30 618.17 C 171.33 617.01 171.36 615.87 171.41 614.74 Z" />
<path fill="#fdfdfa" opacity="1.00" d=" M 60.83 615.97 C 57.57 627.16 53.31 638.36 53.82 650.23 C 52.41 649.84 51.00 649.46 49.58 649.09 C 49.42 646.70 49.33 644.25 50.05 641.94 C 52.52 632.85 56.98 624.51 60.83 615.97 Z" />
<path fill="#fdfdfa" opacity="1.00" d=" M 403.78 629.49 C 411.83 628.96 419.96 630.53 427.43 633.51 C 430.12 634.73 432.96 636.03 434.85 638.39 C 433.40 639.13 431.80 639.52 430.22 639.85 C 425.06 634.52 417.59 632.46 410.59 630.78 C 408.35 630.21 406.06 629.82 403.78 629.49 Z" />
<path fill="#fdfdfa" opacity="1.00" d=" M 21.46 660.12 C 22.98 651.73 27.36 644.22 31.80 637.06 C 28.04 646.44 23.94 657.11 27.66 667.14 C 29.25 672.02 33.74 674.78 37.48 677.87 C 35.21 678.34 32.92 678.74 30.61 678.85 L 30.25 678.78 C 23.14 675.84 20.75 667.15 21.46 660.12 Z" />
<path fill="#fdfdfa" opacity="1.00" d=" M 136.09 654.95 C 137.62 647.85 143.66 642.98 149.89 639.96 C 146.67 643.06 143.18 646.08 141.20 650.18 C 138.91 654.24 139.05 659.03 138.34 663.50 C 136.19 661.23 135.06 658.00 136.09 654.95 Z" />
<path fill="#fdfdfa" opacity="1.00" d=" M 346.76 655.53 C 349.12 649.24 354.10 644.27 359.51 640.47 C 356.77 644.35 352.93 647.53 351.17 652.05 C 349.39 656.44 351.22 662.57 356.09 664.00 C 361.77 665.66 367.69 663.79 373.21 662.34 C 373.77 663.32 374.42 664.28 374.93 665.32 C 368.27 667.47 360.96 668.74 354.09 666.90 C 349.44 665.56 344.84 660.63 346.76 655.53 Z" />
<path fill="#fdfdfa" opacity="1.00" d=" M 200.37 659.46 C 210.70 656.88 220.92 653.55 231.48 652.12 C 217.48 656.78 202.91 660.16 189.77 667.08 C 192.41 663.51 195.88 660.33 200.37 659.46 Z" />
</g>
<g id="#0b6800ff">
<path fill="#0b6800" opacity="1.00" d=" M 169.10 321.87 C 238.44 321.59 307.79 321.76 377.13 321.79 C 377.28 380.18 377.15 438.58 377.19 496.98 C 377.08 520.81 377.43 544.65 377.02 568.47 C 373.32 568.33 369.62 568.57 365.93 568.62 C 365.89 490.06 366.14 411.50 365.89 332.94 C 300.28 332.72 234.67 332.95 169.05 332.83 C 168.90 329.17 168.93 325.52 169.10 321.87 Z" />
<path fill="#0b6800" opacity="1.00" d=" M 109.21 435.16 C 112.89 434.98 116.56 434.91 120.24 434.97 C 120.46 463.66 120.27 492.35 120.34 521.03 C 120.26 528.11 120.51 535.20 120.16 542.28 C 116.57 541.52 112.90 541.12 109.23 541.11 C 109.22 505.79 109.24 470.47 109.21 435.16 Z" />
</g>
<g id="#b36001ff">
<path fill="#b36001" opacity="1.00" d=" M 174.47 359.00 L 175.43 359.43 C 176.16 363.98 174.45 368.83 171.20 372.09 C 166.26 377.24 158.35 378.72 151.59 377.06 C 158.21 376.64 165.17 373.64 167.73 367.08 C 167.95 367.83 168.39 369.33 168.61 370.08 C 167.79 371.46 166.95 372.81 166.17 374.21 C 168.55 372.59 171.17 371.02 172.61 368.41 C 174.34 365.60 174.22 362.17 174.47 359.00 Z" />
<path fill="#b36001" opacity="1.00" d=" M 221.79 390.74 C 232.99 384.39 245.18 379.17 258.08 377.73 C 262.25 376.99 266.42 378.56 269.23 381.68 C 264.87 381.05 260.43 380.18 256.04 381.09 C 244.28 383.22 233.46 388.85 223.63 395.48 C 215.73 400.77 208.16 407.59 205.44 417.04 C 203.79 414.70 202.73 411.80 204.18 409.06 C 207.57 401.08 214.70 395.37 221.79 390.74 Z" />
<path fill="#b36001" opacity="1.00" d=" M 251.52 390.45 C 253.06 390.09 254.64 390.08 256.22 389.96 C 252.69 398.45 247.34 406.02 242.92 414.05 C 241.03 417.19 239.40 420.49 237.42 423.58 C 236.32 425.61 233.70 425.50 231.77 426.08 C 232.45 422.75 234.15 419.81 236.01 417.02 C 241.38 408.28 246.19 399.20 251.52 390.45 Z" />
<path fill="#b36001" opacity="1.00" d=" M 292.28 392.59 C 296.00 399.36 294.33 407.92 290.10 414.06 C 284.55 421.84 276.22 427.46 267.08 430.15 C 260.85 432.38 254.01 433.01 247.56 431.37 C 247.44 431.02 247.21 430.34 247.09 429.99 C 250.93 428.76 255.05 428.81 258.95 427.78 C 270.79 424.99 282.41 418.47 288.70 407.73 C 291.49 403.18 291.86 397.77 292.28 392.59 Z" />
<path fill="#b36001" opacity="1.00" d=" M 210.00 426.00 C 213.32 423.15 217.43 421.52 221.42 419.85 C 217.97 426.31 212.32 431.77 205.46 434.46 C 199.67 436.59 192.12 436.45 187.88 431.38 C 191.99 431.78 196.23 432.63 200.28 431.38 C 203.92 430.43 207.16 428.41 210.00 426.00 Z" />
<path fill="#b36001" opacity="1.00" d=" M 234.33 434.47 C 240.00 434.35 246.63 433.59 251.16 437.76 C 253.81 438.11 256.55 438.66 258.31 440.88 C 251.72 439.02 244.94 437.31 238.03 438.19 C 234.33 438.70 229.32 438.51 227.64 442.60 C 223.23 451.83 220.18 461.77 218.87 471.92 C 218.20 475.83 219.40 479.82 218.76 483.69 C 214.42 486.72 207.08 488.06 203.40 483.32 C 207.93 482.47 213.39 482.49 216.73 478.83 C 216.63 474.65 215.77 470.47 216.41 466.30 C 217.82 456.76 220.65 447.43 224.72 438.69 C 226.10 434.73 230.91 434.97 234.33 434.47 Z" />
<path fill="#b36001" opacity="1.00" d=" M 282.41 448.97 C 286.13 454.94 285.26 462.46 283.87 469.01 C 279.72 485.35 265.99 497.20 251.33 504.27 C 235.27 511.88 217.11 515.74 199.37 513.52 C 193.41 512.53 187.11 511.08 182.47 506.96 C 188.90 508.32 195.23 510.41 201.88 510.48 C 217.64 511.02 233.45 507.36 247.71 500.72 C 260.45 494.29 272.70 485.01 278.75 471.70 C 282.12 464.64 282.84 456.69 282.41 448.97 Z" />
<path fill="#b36001" opacity="1.00" d=" M 190.25 462.26 C 192.13 458.42 196.11 456.30 199.94 454.86 C 197.25 459.19 193.94 463.20 192.18 468.04 C 190.49 472.18 190.04 476.66 189.47 481.06 C 186.43 475.16 187.43 468.04 190.25 462.26 Z" />
<path fill="#b36001" opacity="1.00" d=" M 72.33 560.33 C 82.85 554.95 94.16 550.51 106.04 549.63 C 109.88 549.26 113.14 551.55 115.99 553.80 C 111.67 553.29 107.32 552.24 102.97 553.01 C 93.16 554.40 84.23 558.99 75.68 563.73 C 65.81 569.56 55.87 576.93 51.72 588.05 C 49.85 588.41 49.99 586.20 49.69 584.97 C 49.68 579.97 53.03 575.79 56.25 572.27 C 60.92 567.47 66.33 563.34 72.33 560.33 Z" />
<path fill="#b36001" opacity="1.00" d=" M 311.94 557.04 C 312.62 559.19 313.08 561.65 311.57 563.60 C 306.77 570.73 297.86 573.52 289.77 574.87 C 293.31 570.34 299.58 570.24 304.02 567.00 C 307.91 564.87 310.46 561.13 311.94 557.04 Z" />
<path fill="#b36001" opacity="1.00" d=" M 274.93 561.17 C 280.62 559.89 287.18 557.79 292.53 561.18 C 283.59 561.97 273.56 562.29 266.43 568.49 C 266.27 568.57 265.96 568.73 265.80 568.80 C 258.74 569.62 254.17 575.39 249.72 580.28 C 250.10 577.59 250.37 574.58 252.70 572.79 C 258.93 567.08 266.96 563.68 274.93 561.17 Z" />
<path fill="#b36001" opacity="1.00" d=" M 175.89 560.98 C 179.37 567.85 170.88 576.93 163.98 572.56 C 166.92 571.50 170.28 570.88 172.42 568.40 C 174.43 566.41 175.03 563.56 175.89 560.98 Z" />
<path fill="#b36001" opacity="1.00" d=" M 98.17 562.30 C 99.55 562.11 100.94 561.99 102.33 561.94 C 101.44 564.38 100.39 566.77 99.05 569.01 C 93.97 577.65 89.01 586.36 83.93 594.99 C 82.82 597.38 80.10 597.64 77.82 598.05 C 78.51 595.78 79.39 593.58 80.64 591.57 C 85.17 584.05 89.51 576.43 93.90 568.83 C 95.23 566.61 96.28 564.12 98.17 562.30 Z" />
<path fill="#b36001" opacity="1.00" d=" M 138.42 563.92 C 140.97 569.49 141.32 576.07 138.66 581.68 C 134.23 591.91 124.26 598.41 114.09 602.01 C 107.60 604.36 100.37 605.31 93.68 603.35 C 93.52 603.03 93.21 602.40 93.05 602.08 C 97.94 600.66 103.15 600.71 108.01 599.08 C 119.35 595.73 130.69 588.97 135.75 577.82 C 137.97 573.52 138.02 568.61 138.42 563.92 Z" />
<path fill="#b36001" opacity="1.00" d=" M 421.37 573.39 C 422.41 572.00 424.22 572.60 425.69 572.46 C 425.59 573.25 425.38 574.83 425.27 575.61 C 424.73 575.97 424.19 576.34 423.67 576.73 C 419.01 578.96 417.56 584.23 416.54 588.86 C 414.38 599.97 415.76 611.38 414.11 622.56 C 410.48 622.33 406.84 621.88 403.40 620.66 C 406.55 620.48 409.71 620.56 412.86 620.78 C 414.43 611.05 413.83 601.17 414.51 591.38 C 415.01 584.93 416.77 578.17 421.37 573.39 Z" />
<path fill="#b36001" opacity="1.00" d=" M 394.28 575.23 C 395.13 573.85 396.91 574.25 398.26 573.93 C 395.68 578.13 392.44 581.94 390.50 586.52 C 388.04 591.54 387.02 597.07 385.37 602.37 C 384.01 598.71 385.41 594.92 386.40 591.37 C 388.17 585.64 390.49 579.93 394.28 575.23 Z" />
<path fill="#b36001" opacity="1.00" d=" M 209.69 585.61 C 211.84 581.55 214.07 577.23 218.07 574.67 C 219.31 577.12 217.07 578.97 215.80 580.80 C 209.93 588.05 207.26 597.20 205.28 606.16 C 203.99 611.99 203.14 618.05 200.48 623.46 C 199.97 623.48 198.96 623.54 198.45 623.56 C 203.43 611.27 203.87 597.61 209.69 585.61 Z" />
<path fill="#b36001" opacity="1.00" d=" M 371.17 583.16 C 373.56 580.89 375.45 578.17 377.56 575.65 C 377.59 583.07 370.49 587.22 365.71 591.75 C 361.38 596.14 356.01 599.94 353.73 605.89 C 353.35 606.38 352.97 606.89 352.59 607.40 C 351.05 607.07 349.51 606.75 347.97 606.44 C 354.98 598.00 362.94 590.39 371.17 583.16 Z" />
<path fill="#b36001" opacity="1.00" d=" M 326.61 589.64 C 328.65 585.31 330.34 580.58 334.12 577.41 C 333.58 584.87 327.22 590.24 326.77 597.74 C 326.38 598.62 325.98 599.50 325.58 600.39 C 323.75 603.04 321.97 605.74 320.23 608.46 C 320.51 601.67 323.88 595.68 326.61 589.64 Z" />
<path fill="#b36001" opacity="1.00" d=" M 190.95 579.86 C 192.54 578.56 194.47 579.58 196.07 580.26 C 185.57 585.09 181.76 596.79 177.10 606.43 C 176.81 603.64 177.05 600.80 178.30 598.27 C 181.34 591.48 184.85 584.40 190.95 579.86 Z" />
<path fill="#b36001" opacity="1.00" d=" M 165.10 580.98 C 165.55 581.27 166.45 581.86 166.90 582.15 C 163.33 588.93 159.21 595.45 156.59 602.69 C 155.24 605.62 154.94 609.32 152.15 611.35 C 152.21 606.12 154.71 601.43 156.65 596.71 C 158.96 591.21 161.78 585.93 165.10 580.98 Z" />
<path fill="#b36001" opacity="1.00" d=" M 305.85 584.82 C 308.12 582.88 311.33 579.64 314.22 582.37 C 308.69 585.59 303.75 589.90 300.39 595.40 C 297.53 599.69 296.77 604.94 294.27 609.42 C 293.89 600.03 299.05 591.01 305.85 584.82 Z" />
<path fill="#b36001" opacity="1.00" d=" M 342.87 583.77 C 348.06 581.79 353.73 581.00 359.28 581.25 C 354.93 584.69 348.90 583.65 344.22 586.29 C 340.38 592.63 338.33 600.00 333.96 606.07 C 331.57 609.02 328.42 611.40 326.84 614.95 C 324.24 620.95 317.91 625.28 311.29 624.87 C 311.01 624.52 310.47 623.81 310.20 623.46 C 313.67 622.45 317.28 621.44 320.15 619.12 C 327.50 613.20 332.16 604.79 336.55 596.61 C 338.85 592.43 340.20 587.75 342.87 583.77 Z" />
<path fill="#b36001" opacity="1.00" d=" M 274.02 591.04 C 277.56 591.02 279.61 587.86 282.00 585.75 C 281.35 587.93 281.58 590.85 279.58 592.36 C 275.49 593.50 271.14 593.48 267.09 594.86 C 261.56 596.69 256.38 599.41 251.31 602.23 C 246.97 604.79 242.07 607.10 239.62 611.78 C 239.34 612.00 239.07 612.23 238.80 612.47 C 234.24 614.17 232.89 619.02 231.01 622.99 C 229.33 615.02 235.92 608.98 241.81 604.90 C 251.55 598.41 262.09 592.05 274.02 591.04 Z" />
<path fill="#b36001" opacity="1.00" d=" M 56.11 598.07 C 59.68 595.06 64.09 593.40 68.19 591.28 C 63.95 598.50 57.54 605.09 49.25 607.30 C 43.96 608.41 37.53 607.88 33.92 603.36 C 37.59 603.78 41.34 604.57 45.02 603.78 C 49.17 602.95 52.88 600.74 56.11 598.07 Z" />
<path fill="#b36001" opacity="1.00" d=" M 230.01 591.33 C 233.71 591.63 237.41 592.02 241.09 592.54 C 237.41 594.59 233.40 593.32 230.01 591.33 Z" />
<path fill="#b36001" opacity="1.00" d=" M 385.27 616.29 C 391.26 611.93 395.16 605.51 399.85 599.92 C 399.12 609.70 389.95 614.84 384.48 621.84 C 384.17 622.00 383.56 622.32 383.26 622.48 C 380.83 621.66 378.41 620.83 376.00 619.96 C 379.20 619.08 382.59 618.38 385.27 616.29 Z" />
<path fill="#b36001" opacity="1.00" d=" M 73.01 608.04 C 76.77 606.47 80.96 606.41 84.98 606.39 C 88.49 606.54 92.30 606.51 95.37 608.48 C 98.47 610.33 102.23 610.71 105.19 612.87 C 95.90 610.59 85.97 608.46 76.60 611.65 C 73.64 613.51 72.67 617.24 71.26 620.26 C 67.12 631.41 63.54 643.34 65.28 655.33 C 61.15 659.00 53.12 660.29 49.49 655.25 C 54.09 654.60 59.48 654.59 62.89 650.91 C 62.83 646.85 61.97 642.79 62.54 638.74 C 63.73 630.11 66.23 621.69 69.59 613.67 C 70.56 611.72 71.27 609.45 73.01 608.04 Z" />
<path fill="#b36001" opacity="1.00" d=" M 176.66 619.66 C 181.55 616.67 185.37 612.33 189.10 608.05 C 188.61 610.58 188.17 613.33 186.24 615.23 C 182.44 619.22 178.04 623.12 172.58 624.54 C 170.51 625.18 168.51 624.19 166.64 623.42 C 170.04 622.35 173.62 621.61 176.66 619.66 Z" />
<path fill="#b36001" opacity="1.00" d=" M 293.62 622.68 C 298.61 619.81 301.85 614.94 305.79 610.90 C 305.78 616.68 301.04 620.53 296.97 623.88 C 293.40 626.70 288.03 628.94 284.00 625.73 C 287.32 625.17 290.80 624.68 293.62 622.68 Z" />
<path fill="#b36001" opacity="1.00" d=" M 359.96 619.19 C 364.51 619.32 366.05 614.33 368.41 611.39 C 369.65 615.90 366.13 621.85 361.01 621.15 C 350.70 621.21 340.35 621.56 330.22 623.55 C 328.66 621.66 331.17 620.79 332.71 620.60 C 341.73 619.30 350.87 619.34 359.96 619.19 Z" />
<path fill="#b36001" opacity="1.00" d=" M 150.40 624.49 C 154.39 622.09 156.96 618.10 160.10 614.79 C 160.49 616.38 160.90 618.16 159.56 619.46 C 156.27 623.39 152.49 628.13 146.93 628.37 C 145.07 628.59 143.48 627.48 141.87 626.74 C 144.75 626.17 147.84 626.06 150.40 624.49 Z" />
<path fill="#b36001" opacity="1.00" d=" M 247.68 638.59 C 258.49 633.21 268.62 626.36 277.18 617.79 C 277.14 618.90 278.19 620.26 277.27 621.23 C 272.89 626.27 267.29 630.08 261.79 633.78 C 254.39 638.40 246.68 643.07 237.97 644.62 C 229.42 646.25 220.24 650.78 211.80 646.27 C 215.52 646.20 219.23 646.49 222.95 646.25 C 231.62 645.44 239.86 642.31 247.68 638.59 Z" />
<path fill="#b36001" opacity="1.00" d=" M 129.13 622.46 C 132.21 627.51 131.31 633.78 130.43 639.33 C 127.55 653.74 116.67 664.97 104.57 672.50 C 86.50 683.19 64.84 688.36 43.95 685.31 C 38.48 684.18 32.38 682.97 28.50 678.59 L 30.25 678.78 L 30.61 678.85 C 44.32 684.51 59.78 683.01 73.89 679.78 C 92.64 675.17 111.36 665.57 122.09 648.96 C 127.30 641.12 128.81 631.68 129.13 622.46 Z" />
<path fill="#b36001" opacity="1.00" d=" M 36.69 633.69 C 38.76 630.29 42.40 628.27 45.98 626.80 C 43.00 631.61 39.71 636.32 37.76 641.68 C 36.44 645.39 36.19 649.34 35.57 653.19 C 32.38 647.03 33.58 639.62 36.69 633.69 Z" />
<path fill="#b36001" opacity="1.00" d=" M 196.29 630.68 C 198.53 630.22 200.75 629.73 202.97 629.22 C 202.56 629.85 202.15 630.49 201.74 631.14 C 196.55 632.14 195.61 637.67 193.42 641.60 C 190.66 647.28 185.97 651.80 183.75 657.77 C 183.17 658.41 182.57 659.05 181.95 659.68 C 176.62 661.73 172.78 666.18 167.68 668.62 C 159.26 673.22 148.80 675.09 139.73 671.31 C 148.78 671.50 158.31 671.12 166.26 666.22 C 180.56 658.87 189.64 644.82 196.29 630.68 Z" />
<path fill="#b36001" opacity="1.00" d=" M 364.34 642.32 C 374.96 632.88 389.51 627.44 403.78 629.49 C 406.06 629.82 408.35 630.21 410.59 630.78 L 411.76 631.80 C 406.09 631.88 400.60 630.25 394.98 629.93 C 393.31 629.68 391.90 630.73 390.49 631.41 C 386.86 633.39 382.69 634.05 379.02 635.95 C 374.09 638.44 369.30 641.37 365.31 645.23 C 362.26 648.11 360.81 652.15 358.31 655.45 C 357.49 650.24 360.78 645.71 364.34 642.32 Z" />
<path fill="#b36001" opacity="1.00" d=" M 156.04 640.06 C 163.42 635.24 171.71 631.61 180.39 629.98 C 179.22 633.14 175.73 633.70 172.96 634.77 C 168.82 636.37 164.20 637.69 161.43 641.43 C 161.27 641.53 160.94 641.73 160.77 641.83 C 152.79 643.11 149.01 651.11 145.38 657.38 C 144.39 649.81 150.51 644.12 156.04 640.06 Z" />
<path fill="#b36001" opacity="1.00" d=" M 333.11 636.42 C 341.86 635.20 350.54 632.81 359.44 633.11 C 354.28 636.28 348.07 636.18 342.30 637.29 C 302.65 644.03 263.32 652.74 224.59 663.57 C 218.01 665.88 210.71 666.65 204.95 670.86 C 204.71 670.94 204.21 671.11 203.97 671.20 C 195.84 670.95 189.22 676.79 181.17 677.08 C 182.52 675.31 184.31 674.00 186.42 673.32 C 195.75 669.85 205.20 666.70 214.71 663.77 C 253.57 652.24 293.23 643.57 333.11 636.42 Z" />
<path fill="#b36001" opacity="1.00" d=" M 405.91 640.97 C 406.89 639.22 407.47 636.71 409.97 636.78 C 404.94 653.99 389.07 667.10 371.68 670.52 C 365.19 671.96 357.89 672.90 351.90 669.33 C 373.31 672.03 396.35 660.59 405.91 640.97 Z" />
</g>
</svg>
