<?xml version="1.0" encoding="UTF-8" ?>
<svg width="1024pt" height="1024pt" viewBox="0 0 1024 1024" version="1.1" xmlns="http://www.w3.org/2000/svg">
<g id="big-eazy-spindisplay">
  <path fill="#02a5d1" opacity="1.00" d=" M 318.10 176.67 C 330.02 177.97 342.00 176.27 353.95 177.08 C 371.29 176.48 388.64 177.24 405.98 176.90 C 421.97 176.99 437.96 176.70 453.95 176.92 C 459.27 177.30 464.62 177.16 469.95 176.88 C 484.97 176.98 500.00 176.89 515.03 176.85 C 525.35 177.38 535.68 176.39 546.00 177.09 C 577.00 176.59 608.02 176.98 639.03 176.85 C 654.00 177.51 668.97 176.93 683.94 176.82 C 684.29 225.87 684.00 274.93 684.10 323.98 C 684.11 384.65 684.08 445.32 684.08 505.99 C 684.03 516.88 684.25 527.77 683.90 538.66 C 623.30 538.69 562.70 538.62 502.09 538.69 C 502.11 534.86 502.10 531.03 502.20 527.20 C 511.81 527.23 521.41 527.33 531.01 527.01 C 545.66 527.25 560.32 527.39 574.97 526.93 C 589.31 527.67 603.67 526.44 618.01 527.11 C 629.98 526.71 641.96 526.91 653.94 526.89 C 659.93 527.38 665.93 527.01 671.92 526.81 C 672.03 414.26 671.98 301.71 671.93 189.16 C 558.02 189.25 444.11 189.09 330.20 189.23 C 329.92 270.17 330.16 351.11 330.08 432.05 C 326.03 432.03 321.98 432.03 317.93 432.01 C 317.92 356.37 317.95 280.72 317.94 205.07 C 318.04 195.61 317.72 186.13 318.10 176.67 Z" />
  <path fill="#02a5d1" opacity="1.00" d=" M 465.44 300.27 C 475.61 300.23 485.78 300.23 495.95 300.18 C 503.84 300.32 512.46 300.95 518.84 306.13 C 525.09 311.08 528.25 319.16 528.14 327.02 C 528.05 335.72 529.21 344.98 525.09 353.01 C 522.60 357.92 517.74 360.93 512.80 362.94 C 518.96 364.38 525.52 367.69 527.67 374.09 C 530.49 383.09 529.84 392.69 529.74 401.99 C 529.45 411.14 526.55 421.25 518.60 426.65 C 510.90 432.07 501.03 432.28 491.98 432.02 C 483.13 432.01 474.29 432.10 465.45 431.96 C 465.56 388.07 465.56 344.17 465.44 300.27 M 481.34 314.39 C 481.42 328.12 481.39 341.84 481.34 355.57 C 488.98 355.43 496.88 356.70 504.28 354.29 C 509.40 352.14 511.01 346.18 511.62 341.16 C 512.16 334.87 512.36 328.36 510.54 322.24 C 509.33 318.33 505.64 315.57 501.66 314.98 C 494.96 313.80 488.11 314.52 481.34 314.39 M 481.28 370.05 C 481.27 385.92 481.39 401.78 481.22 417.65 C 488.66 417.40 496.26 418.35 503.55 416.38 C 508.70 415.20 512.76 410.36 512.68 405.00 C 512.82 396.98 513.18 388.90 512.53 380.90 C 512.21 375.24 507.14 371.39 501.90 370.53 C 495.07 369.67 488.14 370.31 481.28 370.05 Z" />
  <path fill="#02a5d1" opacity="1.00" d=" M 326.68 595.73 C 332.47 588.53 342.09 585.81 351.02 585.82 C 360.60 585.86 371.14 588.66 376.83 597.00 C 382.86 604.51 382.21 614.57 382.18 623.61 C 376.39 623.65 370.60 623.56 364.81 623.62 C 364.55 617.54 365.97 610.36 361.46 605.44 C 358.30 602.00 353.42 601.77 349.07 602.09 C 344.21 602.03 339.67 605.61 338.33 610.24 C 336.90 614.68 337.21 619.40 337.18 624.00 C 337.17 639.98 337.19 655.97 337.17 671.96 C 337.18 677.18 336.90 682.58 338.69 687.59 C 342.46 694.62 351.94 695.60 358.65 692.67 C 362.73 690.89 364.74 686.30 364.79 682.06 C 364.95 674.89 364.75 667.72 364.80 660.56 C 360.64 660.59 356.48 660.59 352.32 660.58 C 352.34 655.03 352.30 649.48 352.22 643.94 C 362.20 643.83 372.19 643.98 382.17 643.87 C 381.94 657.58 382.17 671.30 382.12 685.01 C 381.62 693.43 376.28 700.79 369.77 705.79 C 363.77 710.02 356.11 710.69 348.99 710.49 C 342.25 710.33 335.27 708.74 329.95 704.39 C 323.39 699.00 319.88 690.39 319.95 681.98 C 319.98 660.99 319.95 640.00 319.95 619.01 C 319.96 610.87 321.66 602.33 326.68 595.73 Z" />
  <path fill="#02a5d1" opacity="1.00" d=" M 746.98 587.56 C 753.65 587.71 760.33 587.57 767.01 587.71 C 772.17 606.30 778.98 624.42 783.68 643.16 C 789.08 624.58 795.01 606.14 800.94 587.73 C 807.36 587.15 813.86 587.74 820.31 587.39 C 813.12 608.27 804.70 628.73 797.21 649.52 C 795.60 654.24 792.96 658.85 793.21 664.00 C 793.14 679.06 793.21 694.12 793.18 709.19 C 787.25 709.19 781.31 709.04 775.39 709.28 C 775.10 707.54 774.82 705.79 774.80 704.04 C 774.83 690.35 774.90 676.66 774.80 662.98 C 774.90 660.00 773.59 657.29 772.58 654.59 C 764.07 632.24 755.70 609.83 746.98 587.56 Z" />
  <path fill="#02a5d1" opacity="1.00" d=" M 168.36 587.96 C 181.93 588.26 195.63 586.96 209.09 589.14 C 219.20 590.73 226.94 599.90 227.86 609.92 C 228.39 616.59 228.29 623.33 227.94 630.01 C 227.30 637.95 220.89 644.41 213.30 646.18 C 219.42 648.11 225.43 651.87 227.84 658.09 C 230.77 666.07 230.26 674.78 229.70 683.11 C 229.16 690.86 226.21 699.09 219.64 703.73 C 213.68 707.95 206.11 708.90 198.99 709.15 C 188.78 709.17 178.57 709.14 168.35 709.16 C 168.52 668.76 168.42 628.35 168.36 587.96 M 185.48 603.21 C 185.37 615.32 185.45 627.43 185.44 639.54 C 192.08 639.08 199.28 640.82 205.43 637.57 C 210.27 634.60 211.00 628.20 210.89 623.04 C 210.83 617.25 211.62 610.34 207.01 605.96 C 200.67 601.65 192.64 603.57 185.48 603.21 M 182.43 654.18 C 182.92 656.08 183.54 657.99 183.48 660.00 C 183.55 669.34 183.27 678.68 183.58 688.02 C 183.69 689.96 183.01 691.81 182.60 693.70 C 187.72 694.01 192.86 693.90 197.99 693.88 C 203.03 693.84 208.87 692.00 210.82 686.87 C 212.64 681.45 211.58 675.61 211.88 670.02 C 212.20 665.24 211.22 660.05 207.63 656.63 C 200.99 652.29 192.66 654.64 185.23 654.24 C 185.27 666.30 185.28 678.36 185.18 690.41 C 185.32 691.10 184.70 694.03 183.99 692.11 C 182.88 679.55 184.10 666.87 183.32 654.32 C 183.09 654.29 182.65 654.21 182.43 654.18 Z" />
  <path fill="#02a5d1" opacity="1.00" d=" M 265.63 587.87 C 271.48 587.93 277.33 587.87 283.18 587.89 C 283.11 628.31 283.18 668.73 283.14 709.15 C 277.30 709.21 271.45 709.13 265.61 709.19 C 265.77 668.75 265.51 628.31 265.63 587.87 Z" />
  <path fill="#02a5d1" opacity="1.00" d=" M 468.70 587.90 C 486.22 587.98 503.75 587.84 521.27 587.74 C 521.26 593.20 521.24 598.66 521.36 604.12 C 509.62 604.10 497.88 604.02 486.14 604.15 C 486.05 616.16 486.06 628.17 486.11 640.18 C 495.78 640.07 505.45 640.11 515.13 640.16 C 515.13 645.38 515.14 650.60 515.11 655.82 C 505.44 655.94 495.78 655.79 486.12 655.91 C 486.11 668.21 485.90 680.52 486.26 692.82 C 488.43 692.82 490.60 692.83 492.78 692.87 C 492.83 692.50 492.94 691.76 492.99 691.39 C 493.06 691.75 493.19 692.49 493.26 692.86 C 502.60 692.80 511.94 692.82 521.28 692.71 C 521.10 698.16 521.53 703.62 521.12 709.05 C 503.65 709.32 486.16 709.01 468.68 709.19 C 468.69 668.76 468.58 628.33 468.70 587.90 Z" />
  <path fill="#02a5d1" opacity="1.00" d=" M 578.12 588.15 C 586.11 588.22 594.21 587.21 602.14 588.47 C 602.33 592.32 603.33 596.07 604.20 599.82 C 611.99 636.27 619.64 672.76 627.38 709.23 C 621.46 709.15 615.55 709.16 609.63 709.17 C 607.67 700.23 606.15 691.19 604.59 682.18 C 595.03 682.00 585.47 682.09 575.92 682.11 C 573.96 690.97 572.63 699.96 570.70 708.81 C 564.91 709.65 558.93 708.94 553.07 709.15 C 561.68 668.87 569.91 628.50 578.12 588.15 M 590.50 606.05 C 586.20 625.88 582.47 645.82 578.94 665.80 C 586.29 665.91 593.64 665.89 600.99 665.77 C 598.00 645.78 592.96 626.12 590.50 606.05 Z" />
  <path fill="#02a5d1" opacity="1.00" d=" M 661.86 587.58 C 681.24 587.90 700.63 587.64 720.02 587.75 C 719.67 593.29 721.26 599.30 718.41 604.40 C 710.97 621.29 703.60 638.21 696.11 655.09 C 690.66 667.63 684.88 680.04 679.87 692.77 C 693.25 692.93 706.64 692.77 720.02 692.88 C 720.06 698.30 720.06 703.71 720.02 709.14 C 700.30 709.20 680.57 709.12 660.85 709.17 C 661.12 703.92 660.15 698.50 661.55 693.37 C 674.37 663.63 687.04 633.80 700.37 604.28 C 687.56 603.63 674.71 604.21 661.89 604.14 C 661.95 598.62 661.93 593.10 661.86 587.58 Z" />
</g>
</svg>
